<?xml version="1.0" encoding="utf-8"?>
<!-- Generator: Adobe Illustrator 15.1.0, SVG Export Plug-In . SVG Version: 6.00 Build 0)  -->
<!DOCTYPE svg PUBLIC "-//W3C//DTD SVG 1.1//EN" "http://www.w3.org/Graphics/SVG/1.1/DTD/svg11.dtd">
<svg version="1.1" id="レイヤー_1" xmlns="http://www.w3.org/2000/svg" xmlns:xlink="http://www.w3.org/1999/xlink" x="0px"
	 y="0px" width="226.773px" height="113.386px" viewBox="0 0 226.773 113.386" enable-background="new 0 0 226.773 113.386"
	 xml:space="preserve">
<rect fill="#F39800" width="113.386" height="113.386"/>
<path fill="#FFFFFF" d="M57.145,28.521v12.936c0.088-0.01,0.174-0.026,0.266-0.026s0.178,0.017,0.266,0.026V28.521
	c-0.088,0.01-0.174,0.026-0.266,0.026S57.233,28.531,57.145,28.521"/>
<path fill="#FFFFFF" d="M55.334,44.583l-11.192,6.461c0.106,0.144,0.201,0.293,0.273,0.457l11.191-6.461
	C55.5,44.899,55.405,44.749,55.334,44.583"/>
<path fill="#FFFFFF" d="M70.408,35.88l-11.191,6.462c0.107,0.142,0.201,0.292,0.272,0.456l11.191-6.461
	C70.574,36.197,70.478,36.046,70.408,35.88"/>
<path fill="#FFFFFF" d="M44.416,34.095l11.191-6.46c-0.107-0.142-0.202-0.292-0.273-0.456l-11.191,6.46
	C44.249,33.783,44.343,33.931,44.416,34.095"/>
<path fill="#FFFFFF" d="M70.678,33.639l-11.189-6.46c-0.072,0.165-0.166,0.314-0.272,0.455l11.19,6.463
	C70.478,33.931,70.573,33.781,70.678,33.639"/>
<path fill="#FFFFFF" d="M72.75,50.16V37.223c-0.088,0.01-0.174,0.027-0.266,0.027c-0.091,0-0.178-0.018-0.266-0.027V50.16
	c0.088-0.011,0.175-0.027,0.266-0.027C72.577,50.132,72.663,50.149,72.75,50.16"/>
<path fill="#FFFFFF" d="M59.216,45.041l11.191,6.461c0.07-0.164,0.165-0.314,0.272-0.456l-11.191-6.462
	C59.417,44.749,59.323,44.899,59.216,45.041"/>
<path fill="#FFFFFF" d="M55.607,42.342l-11.191-6.46c-0.072,0.165-0.167,0.314-0.273,0.455l11.191,6.462
	C55.405,42.634,55.5,42.484,55.607,42.342"/>
<path fill="#FFFFFF" d="M42.603,50.16V37.223c-0.089,0.01-0.174,0.027-0.266,0.027s-0.178-0.018-0.266-0.027V50.16
	c0.088-0.011,0.174-0.027,0.266-0.027S42.514,50.149,42.603,50.16"/>
<path fill="#FFFFFF" d="M57.676,58.862V45.925c-0.088,0.012-0.174,0.026-0.266,0.026s-0.178-0.015-0.266-0.026v12.937
	c0.088-0.011,0.174-0.025,0.266-0.025S57.588,58.851,57.676,58.862"/>
<path fill="#FFFFFF" d="M55.606,24.937l-11.19-6.461c-0.072,0.165-0.167,0.315-0.273,0.457l11.191,6.462
	C55.405,25.23,55.5,25.079,55.606,24.937"/>
<path fill="#FFFFFF" d="M40.533,33.639l-11.192-6.46c-0.07,0.165-0.165,0.314-0.271,0.455l11.19,6.463
	C40.332,33.931,40.426,33.781,40.533,33.639"/>
<path fill="#FFFFFF" d="M44.142,53.744l11.191,6.461c0.071-0.164,0.166-0.315,0.273-0.457l-11.191-6.462
	C44.343,53.451,44.249,53.602,44.142,53.744"/>
<path fill="#FFFFFF" d="M40.26,53.286l-11.191,6.461c0.106,0.144,0.201,0.294,0.272,0.458l11.191-6.461
	C40.427,53.602,40.332,53.451,40.26,53.286"/>
<path fill="#FFFFFF" d="M74.29,53.744l11.191,6.461c0.07-0.164,0.165-0.315,0.271-0.457l-11.19-6.462
	C74.492,53.451,74.397,53.602,74.29,53.744"/>
<path fill="#FFFFFF" d="M59.216,62.446l11.191,6.461c0.07-0.164,0.166-0.314,0.272-0.456l-11.19-6.462
	C59.417,62.154,59.324,62.304,59.216,62.446"/>
<path fill="#FFFFFF" d="M55.334,61.989L44.142,68.45c0.106,0.144,0.201,0.293,0.272,0.457l11.192-6.46
	C55.5,62.304,55.405,62.154,55.334,61.989"/>
<path fill="#FFFFFF" d="M74.562,34.095l11.19-6.46c-0.106-0.142-0.201-0.292-0.271-0.456l-11.192,6.46
	C74.397,33.783,74.492,33.931,74.562,34.095"/>
<path fill="#FFFFFF" d="M70.408,53.286l-11.191,6.461c0.106,0.144,0.201,0.294,0.271,0.458l11.192-6.461
	C70.574,53.602,70.478,53.451,70.408,53.286"/>
<path fill="#FFFFFF" d="M72.219,19.817v12.938c0.088-0.011,0.175-0.027,0.266-0.027c0.092,0,0.178,0.017,0.266,0.027V19.817
	c-0.088,0.012-0.174,0.027-0.266,0.027C72.394,19.844,72.307,19.829,72.219,19.817"/>
<path fill="#FFFFFF" d="M59.489,25.395l11.191-6.462c-0.107-0.143-0.202-0.293-0.272-0.457l-11.191,6.461
	C59.323,25.08,59.417,25.23,59.489,25.395"/>
<path fill="#FFFFFF" d="M87.559,45.952c-0.093,0-0.179-0.015-0.268-0.026v12.937c0.089-0.011,0.175-0.026,0.268-0.026
	c0.091,0,0.177,0.016,0.266,0.026V45.925C87.736,45.937,87.65,45.952,87.559,45.952"/>
<path fill="#FFFFFF" d="M29.341,25.394l11.191-6.461c-0.106-0.143-0.201-0.293-0.273-0.458l-11.19,6.461
	C29.175,25.079,29.27,25.23,29.341,25.394"/>
<path fill="#FFFFFF" d="M44.416,16.691l11.19-6.46c-0.106-0.144-0.201-0.294-0.272-0.458l-11.191,6.461
	C44.249,16.376,44.343,16.527,44.416,16.691"/>
<path fill="#FFFFFF" d="M87.825,41.457V28.52c-0.089,0.01-0.175,0.027-0.266,0.027c-0.092,0-0.179-0.018-0.268-0.027v12.937
	c0.089-0.01,0.176-0.027,0.268-0.027C87.65,41.429,87.736,41.447,87.825,41.457"/>
<path fill="#FFFFFF" d="M74.29,18.933l11.191,6.462c0.07-0.164,0.165-0.316,0.271-0.458l-11.19-6.462
	C74.492,18.64,74.396,18.792,74.29,18.933"/>
<path fill="#FFFFFF" d="M27.264,41.429c0.092,0,0.178,0.018,0.266,0.027V28.52c-0.088,0.01-0.174,0.028-0.266,0.028
	s-0.177-0.019-0.266-0.028v12.937C27.087,41.447,27.172,41.429,27.264,41.429"/>
<path fill="#FFFFFF" d="M59.216,10.23l11.191,6.461c0.07-0.165,0.165-0.314,0.272-0.457L59.489,9.773
	C59.417,9.937,59.323,10.088,59.216,10.23"/>
<path fill="#FFFFFF" d="M70.408,70.693l-11.19,6.461c0.105,0.143,0.2,0.291,0.271,0.457L70.68,71.15
	C70.574,71.007,70.479,70.858,70.408,70.693"/>
<path fill="#FFFFFF" d="M85.481,61.99l-11.19,6.461c0.106,0.143,0.201,0.292,0.271,0.457l11.19-6.46
	C85.647,62.304,85.552,62.155,85.481,61.99"/>
<path fill="#FFFFFF" d="M40.533,68.451l-11.191-6.462c-0.071,0.164-0.166,0.315-0.272,0.457l11.191,6.462
	C40.332,68.743,40.426,68.592,40.533,68.451"/>
<path fill="#FFFFFF" d="M55.606,77.154l-11.19-6.462c-0.072,0.165-0.167,0.315-0.273,0.456l11.191,6.464
	C55.405,77.446,55.5,77.296,55.606,77.154"/>
<path fill="#FFFFFF" d="M26.999,45.925v12.937c0.089-0.011,0.174-0.026,0.266-0.026s0.178,0.016,0.266,0.026V45.925
	c-0.088,0.011-0.174,0.026-0.266,0.026S27.087,45.936,26.999,45.925"/>
<path fill="#FFFFFF" d="M40.533,51.044l-11.191-6.46c-0.071,0.165-0.166,0.314-0.272,0.456l11.19,6.462
	C40.332,51.337,40.426,51.187,40.533,51.044"/>
<path fill="#FFFFFF" d="M74.29,36.337l11.19,6.461c0.071-0.164,0.166-0.314,0.272-0.455l-11.19-6.463
	C74.492,36.046,74.396,36.197,74.29,36.337"/>
<path fill="#FFFFFF" d="M57.145,11.116v12.937c0.088-0.011,0.174-0.026,0.266-0.026s0.178,0.016,0.266,0.026V11.116
	c-0.088,0.01-0.174,0.026-0.266,0.026S57.233,11.125,57.145,11.116"/>
<path fill="#FFFFFF" d="M42.072,19.817v12.938c0.088-0.011,0.174-0.027,0.266-0.027s0.177,0.017,0.266,0.027V19.817
	c-0.089,0.012-0.174,0.027-0.266,0.027S42.16,19.829,42.072,19.817"/>
<path fill="#FFFFFF" d="M40.533,36.337c-0.105-0.141-0.201-0.292-0.272-0.457l-11.191,6.463c0.106,0.141,0.201,0.291,0.272,0.455
	L40.533,36.337z"/>
<path fill="#FFFFFF" d="M72.75,67.565V54.628c-0.088,0.011-0.174,0.026-0.266,0.026c-0.091,0-0.178-0.016-0.266-0.026v12.937
	c0.088-0.011,0.175-0.026,0.266-0.026C72.577,67.539,72.663,67.554,72.75,67.565"/>
<path fill="#FFFFFF" d="M74.29,51.044c0.107,0.143,0.202,0.293,0.272,0.458l11.19-6.462c-0.106-0.142-0.201-0.291-0.271-0.456
	L74.29,51.044z"/>
<path fill="#FFFFFF" d="M57.676,76.268V63.332c-0.088,0.011-0.174,0.026-0.266,0.026s-0.178-0.016-0.266-0.026v12.937
	c0.088-0.011,0.174-0.027,0.266-0.027S57.588,76.257,57.676,76.268"/>
<path fill="#FFFFFF" d="M42.603,67.565V54.628c-0.089,0.011-0.174,0.026-0.266,0.026s-0.178-0.016-0.266-0.026v12.937
	c0.088-0.011,0.174-0.026,0.266-0.026S42.514,67.554,42.603,67.565"/>
<polygon fill="#FFFFFF" points="26.378,100.233 28.731,100.233 28.731,100.532 26.73,100.532 26.73,102.175 28.42,102.175 
	28.42,102.474 26.73,102.474 26.73,104.498 26.378,104.498 "/>
<path fill="#FFFFFF" d="M29.409,103.375v-1.995h0.339v1.954c0,0.639,0.199,0.938,0.68,0.938c0.362,0,0.62-0.188,0.972-0.608v-2.283
	h0.338v3.118h-0.286l-0.028-0.514h-0.018c-0.305,0.351-0.621,0.591-1.053,0.591C29.701,104.575,29.409,104.177,29.409,103.375"/>
<path fill="#FFFFFF" d="M32.984,103.609v-1.942h-0.486v-0.258l0.497-0.029l0.041-0.902h0.287v0.902h0.896v0.287h-0.896v1.966
	c0,0.393,0.105,0.649,0.521,0.649c0.115,0,0.269-0.042,0.379-0.087l0.083,0.264c-0.181,0.062-0.38,0.116-0.521,0.116
	C33.17,104.575,32.984,104.188,32.984,103.609"/>
<path fill="#FFFFFF" d="M34.92,103.375v-1.995h0.338v1.954c0,0.639,0.199,0.938,0.681,0.938c0.361,0,0.62-0.188,0.972-0.608v-2.283
	h0.337v3.118h-0.285l-0.029-0.514h-0.018c-0.305,0.351-0.62,0.591-1.054,0.591C35.211,104.575,34.92,104.177,34.92,103.375"/>
<path fill="#FFFFFF" d="M38.418,101.379H38.7l0.041,0.579h0.011c0.211-0.393,0.522-0.66,0.885-0.66c0.121,0,0.217,0.017,0.315,0.069
	l-0.07,0.305c-0.105-0.041-0.164-0.052-0.287-0.052c-0.274,0-0.608,0.203-0.836,0.783v2.094h-0.34V101.379z"/>
<path fill="#FFFFFF" d="M40.262,102.943c0-1.013,0.661-1.645,1.369-1.645c0.755,0,1.206,0.538,1.206,1.449
	c0,0.088-0.008,0.172-0.02,0.247h-2.211c0.017,0.761,0.469,1.293,1.141,1.293c0.334,0,0.597-0.104,0.831-0.269l0.128,0.251
	c-0.251,0.158-0.543,0.305-0.994,0.305C40.911,104.575,40.262,103.966,40.262,102.943 M42.526,102.725
	c0-0.753-0.346-1.134-0.889-1.134c-0.51,0-0.967,0.42-1.03,1.134H42.526z"/>
<path fill="#FFFFFF" d="M44.731,102.362c0-1.362,0.754-2.205,1.838-2.205c0.502,0,0.896,0.246,1.122,0.515l-0.199,0.228
	c-0.228-0.257-0.532-0.427-0.923-0.427c-0.902,0-1.469,0.727-1.469,1.88c0,1.163,0.555,1.906,1.45,1.906
	c0.434,0,0.755-0.18,1.061-0.516l0.197,0.224c-0.328,0.38-0.727,0.608-1.275,0.608C45.48,104.575,44.731,103.727,44.731,102.362"/>
<path fill="#FFFFFF" d="M48.375,102.943c0-1.013,0.662-1.645,1.369-1.645c0.756,0,1.206,0.538,1.206,1.449
	c0,0.088-0.006,0.172-0.018,0.247h-2.211c0.016,0.761,0.467,1.293,1.139,1.293c0.335,0,0.598-0.104,0.831-0.269l0.129,0.251
	c-0.251,0.158-0.544,0.305-0.994,0.305C49.023,104.575,48.375,103.966,48.375,102.943 M50.64,102.725
	c0-0.753-0.346-1.134-0.89-1.134c-0.509,0-0.966,0.42-1.028,1.134H50.64z"/>
<path fill="#FFFFFF" d="M51.781,101.379h0.28l0.041,0.475h0.012c0.315-0.31,0.638-0.556,1.065-0.556
	c0.648,0,0.948,0.403,0.948,1.205v1.994h-0.34v-1.947c0-0.649-0.205-0.948-0.685-0.948c-0.362,0-0.62,0.187-0.983,0.562v2.334
	h-0.339V101.379z"/>
<path fill="#FFFFFF" d="M55.325,103.609v-1.942h-0.485v-0.258l0.498-0.029l0.04-0.902h0.287v0.902h0.896v0.287h-0.896v1.966
	c0,0.393,0.106,0.649,0.521,0.649c0.116,0,0.269-0.042,0.379-0.087l0.083,0.264c-0.182,0.062-0.38,0.116-0.521,0.116
	C55.513,104.575,55.325,104.188,55.325,103.609"/>
<path fill="#FFFFFF" d="M57.051,102.943c0-1.013,0.662-1.645,1.369-1.645c0.755,0,1.205,0.538,1.205,1.449
	c0,0.088-0.006,0.172-0.017,0.247h-2.212c0.017,0.761,0.468,1.293,1.14,1.293c0.335,0,0.598-0.104,0.832-0.269l0.128,0.251
	c-0.252,0.158-0.543,0.305-0.994,0.305C57.701,104.575,57.051,103.966,57.051,102.943 M59.316,102.725
	c0-0.753-0.346-1.134-0.889-1.134c-0.511,0-0.967,0.42-1.03,1.134H59.316z"/>
<path fill="#FFFFFF" d="M60.457,101.379h0.28l0.04,0.579h0.014c0.21-0.393,0.521-0.66,0.883-0.66c0.122,0,0.217,0.017,0.315,0.069
	l-0.07,0.305c-0.104-0.041-0.164-0.052-0.286-0.052c-0.275,0-0.608,0.203-0.836,0.783v2.094h-0.34V101.379z"/>
<polygon fill="#FFFFFF" points="63.891,100.233 64.24,100.233 64.24,102.082 66.458,102.082 66.458,100.233 66.803,100.233 
	66.803,104.498 66.458,104.498 66.458,102.386 64.24,102.386 64.24,104.498 63.891,104.498 "/>
<path fill="#FFFFFF" d="M67.792,103.714c0-0.69,0.614-1.019,1.989-1.176c0.011-0.463-0.124-0.942-0.715-0.942
	c-0.409,0-0.766,0.193-0.981,0.356l-0.153-0.245c0.24-0.163,0.675-0.409,1.182-0.409c0.744,0,1.007,0.532,1.007,1.222v1.979h-0.287
	l-0.035-0.397h-0.012c-0.316,0.256-0.689,0.474-1.088,0.474C68.196,104.575,67.792,104.294,67.792,103.714 M69.782,103.802v-1.013
	c-1.229,0.141-1.65,0.427-1.65,0.908c0,0.427,0.292,0.59,0.638,0.59C69.114,104.288,69.413,104.125,69.782,103.802"/>
<polygon fill="#FFFFFF" points="71.208,99.846 71.548,99.846 71.548,103.215 71.56,103.215 73.051,101.379 73.438,101.379 
	72.419,102.615 73.602,104.498 73.227,104.498 72.221,102.861 71.548,103.657 71.548,104.498 71.208,104.498 "/>
<path fill="#FFFFFF" d="M73.999,102.942c0-1.041,0.655-1.645,1.409-1.645c0.755,0,1.411,0.604,1.411,1.645
	c0,1.036-0.656,1.633-1.411,1.633C74.654,104.575,73.999,103.978,73.999,102.942 M76.467,102.942c0-0.796-0.449-1.345-1.06-1.345
	c-0.607,0-1.053,0.549-1.053,1.345c0,0.795,0.445,1.34,1.053,1.34C76.018,104.282,76.467,103.737,76.467,102.942"/>
<path fill="#FFFFFF" d="M77.473,102.942c0-1.006,0.645-1.644,1.382-1.644c0.375,0,0.626,0.139,0.93,0.38l-0.023-0.562v-1.27h0.341
	v4.651H79.82l-0.041-0.393h-0.013c-0.251,0.253-0.596,0.47-0.999,0.47C77.983,104.575,77.473,103.99,77.473,102.942 M79.761,103.785
	v-1.802c-0.315-0.281-0.579-0.386-0.873-0.386c-0.596,0-1.052,0.578-1.052,1.345c0,0.809,0.357,1.334,0.989,1.334
	C79.159,104.276,79.451,104.105,79.761,103.785"/>
<path fill="#FFFFFF" d="M81.055,103.714c0-0.69,0.613-1.019,1.988-1.176c0.012-0.463-0.123-0.942-0.714-0.942
	c-0.41,0-0.768,0.193-0.983,0.356l-0.151-0.245c0.239-0.163,0.673-0.409,1.182-0.409c0.742,0,1.006,0.532,1.006,1.222v1.979h-0.286
	l-0.034-0.397h-0.013c-0.316,0.256-0.69,0.474-1.089,0.474C81.458,104.575,81.055,104.294,81.055,103.714 M83.043,103.802v-1.013
	c-1.229,0.141-1.65,0.427-1.65,0.908c0,0.427,0.294,0.59,0.638,0.59C82.376,104.288,82.674,104.125,83.043,103.802"/>
<path fill="#FFFFFF" d="M84.546,103.609v-1.942h-0.485v-0.258l0.497-0.029l0.041-0.902h0.287v0.902h0.896v0.287h-0.896v1.966
	c0,0.393,0.105,0.649,0.521,0.649c0.116,0,0.269-0.042,0.38-0.087l0.08,0.264c-0.18,0.062-0.379,0.116-0.521,0.116
	C84.734,104.575,84.546,104.188,84.546,103.609"/>
<path fill="#FFFFFF" d="M86.272,102.943c0-1.013,0.662-1.645,1.369-1.645c0.756,0,1.206,0.538,1.206,1.449
	c0,0.088-0.006,0.172-0.018,0.247h-2.211c0.017,0.761,0.468,1.293,1.139,1.293c0.335,0,0.598-0.104,0.831-0.269l0.13,0.251
	c-0.252,0.158-0.544,0.305-0.994,0.305C86.921,104.575,86.272,103.966,86.272,102.943 M88.537,102.725
	c0-0.753-0.346-1.134-0.89-1.134c-0.509,0-0.965,0.42-1.028,1.134H88.537z"/>
<path fill="#FFFFFF" d="M17.439,86.869c-0.054,0.14-0.106,0.373-0.139,0.564c-0.245,1.138-0.542,3.085-0.542,4.34
	c0,0.693,0.042,1.202,0.127,1.894c0.182-0.542,0.479-1.329,0.67-1.797l0.33,0.255c-0.244,0.648-0.639,1.724-0.745,2.213
	c-0.032,0.139-0.053,0.318-0.042,0.457c0.01,0.096,0.021,0.234,0.032,0.32l-0.501,0.041c-0.202-0.766-0.373-1.893-0.373-3.317
	c0-1.522,0.362-3.545,0.502-4.448c0.03-0.223,0.053-0.426,0.053-0.584L17.439,86.869z M24.512,94.369
	c-0.562-0.531-1.147-0.979-1.787-1.286c0.012,0.148,0.012,0.297,0.012,0.425c0,0.724-0.319,1.596-1.693,1.596
	c-1.382,0-2.084-0.564-2.084-1.414c0-0.767,0.723-1.469,2.075-1.469c0.414,0,0.787,0.055,1.138,0.139
	c-0.042-0.904-0.106-2.116-0.116-3.021c-0.384,0.01-0.776,0.02-1.159,0.02c-0.597,0-1.119-0.03-1.725-0.073v-0.521
	c0.585,0.053,1.138,0.086,1.745,0.086c0.383,0,0.767-0.012,1.139-0.022c0-0.552,0-1.053,0.01-1.393c0-0.191-0.01-0.447-0.031-0.617
	h0.638c-0.031,0.213-0.054,0.404-0.063,0.606c-0.021,0.33-0.021,0.883-0.021,1.373c0.682-0.055,1.34-0.129,1.914-0.246v0.542
	c-0.617,0.097-1.255,0.17-1.914,0.214c0.011,1.042,0.085,2.235,0.128,3.224c0.84,0.329,1.511,0.872,2.095,1.383L24.512,94.369z
	 M22.194,92.879c-0.383-0.127-0.787-0.19-1.213-0.19c-0.894,0-1.512,0.415-1.512,0.957c0,0.585,0.554,0.947,1.438,0.947
	c1.021,0,1.298-0.502,1.298-1.255C22.205,93.209,22.205,93.061,22.194,92.879"/>
<path fill="#FFFFFF" d="M28.299,91.732c-0.149,0.446-0.235,0.86-0.235,1.266c0,0.871,0.904,1.467,2.681,1.467
	c1.479,0,2.841-0.158,3.555-0.403l0.01,0.575c-0.659,0.202-2.042,0.372-3.554,0.372c-1.978,0-3.243-0.648-3.243-1.895
	c0-0.521,0.106-0.999,0.223-1.446L28.299,91.732z M28.128,87.603c0.756,0.096,1.712,0.139,2.733,0.139
	c1.001,0,1.99-0.075,2.714-0.149v0.553c-0.691,0.053-1.755,0.129-2.714,0.129c-1.021,0-1.914-0.043-2.733-0.118V87.603z"/>
<path fill="#FFFFFF" d="M42.159,88.709c-0.724,0.16-1.511,0.286-2.267,0.361c-0.095,0.47-0.213,0.958-0.34,1.427
	c-0.383,1.51-1.096,3.703-1.638,4.797l-0.629-0.2c0.638-1.106,1.341-3.204,1.735-4.704c0.105-0.382,0.212-0.829,0.309-1.265
	c-0.405,0.031-0.788,0.053-1.128,0.053c-0.437,0-0.798-0.011-1.191-0.043l-0.013-0.553c0.458,0.062,0.862,0.073,1.226,0.073
	c0.361,0,0.775-0.021,1.223-0.052c0.096-0.47,0.17-0.873,0.202-1.107c0.031-0.234,0.054-0.542,0.031-0.744l0.681,0.052
	c-0.053,0.203-0.127,0.543-0.159,0.735c-0.063,0.297-0.127,0.639-0.202,1c0.724-0.086,1.49-0.213,2.16-0.395V88.709z M41.616,92.529
	c-0.105,0.372-0.159,0.701-0.159,0.989c0,0.522,0.224,1.075,1.937,1.075c0.681,0,1.404-0.074,1.989-0.203l-0.021,0.575
	c-0.554,0.086-1.256,0.149-1.979,0.149c-1.596,0-2.447-0.468-2.447-1.489c0-0.352,0.053-0.682,0.149-1.149L41.616,92.529z
	 M41.562,90.018c0.522-0.053,1.192-0.085,1.863-0.085c0.617,0,1.266,0.022,1.808,0.085l-0.021,0.542
	c-0.542-0.073-1.148-0.126-1.755-0.126c-0.616,0-1.256,0.042-1.895,0.116V90.018z M44.594,88.773
	c-0.212-0.437-0.595-1.086-0.882-1.479l0.404-0.18c0.266,0.371,0.658,1.009,0.883,1.455L44.594,88.773z M45.233,86.708
	c0.299,0.395,0.713,1.044,0.926,1.459l-0.415,0.19c-0.244-0.479-0.595-1.063-0.903-1.469L45.233,86.708z"/>
<path fill="#FFFFFF" d="M48.689,87.932c0.574-0.063,2.714-0.286,4.649-0.446c1.19-0.105,2.073-0.159,2.755-0.181v0.553
	c-0.617-0.01-1.552,0.011-2.073,0.182c-1.64,0.574-2.521,2.309-2.521,3.554c0,2.244,2.095,2.904,3.766,2.956l-0.191,0.554
	c-1.799-0.042-4.106-0.989-4.106-3.394c0-1.714,1.074-3.127,2.19-3.724c-0.936,0.106-4.191,0.403-5.287,0.628l-0.063-0.628
	C48.2,87.976,48.476,87.955,48.689,87.932"/>
<path fill="#FFFFFF" d="M67.134,93.008c-0.351-0.299-0.766-0.607-1.232-0.894c-0.405,1.479-1.224,2.511-2.821,3.298l-0.456-0.384
	c1.702-0.702,2.468-1.904,2.809-3.18c-0.958-0.521-2.097-0.928-3.31-0.99c-0.404,0.926-0.968,2.266-1.394,2.861
	c-0.351,0.48-0.702,0.628-1.147,0.628c-0.704,0-1.236-0.531-1.236-1.299c0-1.521,1.427-2.68,3.459-2.701
	c0.426-0.926,0.861-1.927,1.233-2.672c-0.426,0.022-1.904,0.096-2.393,0.118c-0.246,0.021-0.502,0.042-0.734,0.073l-0.033-0.605
	c0.256,0.022,0.521,0.022,0.734,0.022c0.532,0,2.064-0.086,2.489-0.117c0.149-0.013,0.288-0.043,0.394-0.086l0.362,0.299
	c-0.074,0.095-0.159,0.17-0.234,0.307c-0.309,0.469-0.809,1.661-1.277,2.683c1.183,0.085,2.289,0.479,3.214,0.947
	c0.064-0.352,0.107-0.703,0.129-1.043c0.01-0.213,0.021-0.531,0.01-0.862l0.564,0.064c-0.043,0.776-0.107,1.468-0.235,2.084
	c0.532,0.299,0.99,0.606,1.352,0.872L67.134,93.008z M61.56,90.848c-1.725,0.085-2.702,1.106-2.702,2.149
	c0,0.521,0.352,0.808,0.725,0.808c0.266,0,0.445-0.074,0.691-0.372C60.699,92.891,61.145,91.742,61.56,90.848"/>
<path fill="#FFFFFF" d="M70.792,91.732c1.053-0.99,2.256-1.427,3.597-1.427c1.479,0,2.564,0.884,2.564,2.096
	c0,1.863-1.767,3.022-5.405,2.724l-0.161-0.563c3.417,0.383,5.002-0.682,5.002-2.181c0-0.926-0.851-1.574-2.022-1.574
	c-1.521,0-2.659,0.552-3.446,1.489c-0.128,0.159-0.212,0.341-0.267,0.478l-0.562-0.127c0.213-0.914,0.488-3.212,0.542-4.192
	l0.606,0.075C71.101,89.317,70.92,91.007,70.792,91.732 M71.633,86.72c0.851,0.276,3.064,0.723,4,0.82l-0.138,0.531
	c-0.96-0.129-3.214-0.586-4.001-0.81L71.633,86.72z"/>
<path fill="#FFFFFF" d="M80.801,88.464c-0.022,0.639,0,1.713,0.085,2.64c0.191,1.914,0.8,3.138,1.607,3.138
	c0.564,0,1.096-0.988,1.414-2.181l0.447,0.458c-0.606,1.754-1.234,2.35-1.872,2.35c-0.904,0-1.83-0.978-2.129-3.647
	c-0.095-0.874-0.106-2.182-0.106-2.777c0-0.224-0.011-0.66-0.053-0.863l0.67,0.022C80.844,87.784,80.812,88.209,80.801,88.464
	 M88.302,92.955l-0.553,0.224c-0.191-2.011-0.885-3.873-1.798-5.064l0.531-0.191C87.386,89.156,88.111,91.082,88.302,92.955"/>
<path fill="#FFFFFF" d="M93.737,88.327c-0.33-0.511-0.979-1.298-1.597-1.84c-0.457,0.798-1.182,1.861-2.212,2.69
	c-0.075-0.096-0.234-0.245-0.352-0.308c1.073-0.83,1.819-1.968,2.223-2.83h0.544c0.659,0.573,1.415,1.383,1.755,1.926L93.737,88.327
	z M92.725,92.657c0.597,0.733,1.192,1.714,1.416,2.362l-0.437,0.223c-0.096-0.276-0.255-0.617-0.457-0.979
	c-1.16,0.33-2.362,0.681-3.267,0.926L89.79,94.69c0.234-0.054,0.5-0.107,0.787-0.183v-5.724h1.383v-1.074h0.457v1.074h1.256v3.32
	h-2.628v2.286c0.617-0.159,1.286-0.339,1.968-0.521c-0.213-0.35-0.457-0.701-0.702-1L92.725,92.657z M91.044,90.231h2.15v-1.021
	h-2.15V90.231z M93.194,90.635h-2.15v1.043h2.15V90.635z M99.375,87.209v1.681h-0.491v-1.224h-4.179v1.224h-0.469v-1.681h2.245
	v-1.18h0.499v1.18H99.375z M95.385,92.411h3.725v3.172h-0.491v-0.489h-3.233v0.575h-0.489V88.87h3.767v2.511h-3.277V92.411z
	 M95.385,90.923h2.798v-1.596h-2.798V90.923z M95.385,94.625h3.234v-1.756h-3.234V94.625z"/>
<rect x="113.386" fill="#8ABA29" width="113.387" height="113.386"/>
<g>
	<path fill="#FFFFFF" d="M143.483,27.417c0,1.174-0.951,2.126-2.126,2.126c-1.174,0-2.126-0.952-2.126-2.126
		c0-1.175,0.952-2.126,2.126-2.126C142.532,25.291,143.483,26.242,143.483,27.417"/>
	<path fill="#FFFFFF" d="M157.655,19.236c0,1.174-0.952,2.126-2.126,2.126c-1.175,0-2.126-0.952-2.126-2.126
		c0-1.175,0.951-2.126,2.126-2.126C156.703,17.11,157.655,18.061,157.655,19.236"/>
	<path fill="#FFFFFF" d="M171.826,11.053c0,1.174-0.952,2.126-2.126,2.126s-2.126-0.952-2.126-2.126s0.952-2.126,2.126-2.126
		S171.826,9.879,171.826,11.053"/>
	<path fill="#FFFFFF" d="M171.826,27.417c0,1.175-0.952,2.126-2.126,2.126s-2.126-0.951-2.126-2.126
		c0-1.174,0.952-2.126,2.126-2.126S171.826,26.243,171.826,27.417"/>
	<path fill="#FFFFFF" d="M171.826,43.782c0,1.174-0.952,2.125-2.126,2.125s-2.126-0.951-2.126-2.125
		c0-1.175,0.952-2.127,2.126-2.127S171.826,42.607,171.826,43.782"/>
	<path fill="#FFFFFF" d="M171.826,60.144c0,1.175-0.952,2.125-2.126,2.125s-2.126-0.95-2.126-2.125c0-1.174,0.952-2.127,2.126-2.127
		S171.826,58.97,171.826,60.144"/>
	<path fill="#FFFFFF" d="M171.826,76.507c0,1.174-0.952,2.126-2.126,2.126s-2.126-0.952-2.126-2.126s0.952-2.127,2.126-2.127
		S171.826,75.333,171.826,76.507"/>
	<path fill="#FFFFFF" d="M157.655,35.598c0,1.176-0.952,2.126-2.126,2.126c-1.175,0-2.126-0.95-2.126-2.126
		c0-1.174,0.951-2.126,2.126-2.126C156.703,33.472,157.655,34.424,157.655,35.598"/>
	<path fill="#FFFFFF" d="M157.655,51.961c0,1.175-0.952,2.126-2.126,2.126c-1.175,0-2.126-0.951-2.126-2.126
		c0-1.174,0.951-2.126,2.126-2.126C156.703,49.835,157.655,50.788,157.655,51.961"/>
	<path fill="#FFFFFF" d="M157.655,68.326c0,1.174-0.952,2.125-2.126,2.125c-1.175,0-2.126-0.951-2.126-2.125
		s0.951-2.127,2.126-2.127C156.703,66.2,157.655,67.153,157.655,68.326"/>
	<path fill="#FFFFFF" d="M185.997,19.236c0,1.174-0.952,2.126-2.126,2.126s-2.126-0.952-2.126-2.126
		c0-1.175,0.952-2.126,2.126-2.126S185.997,18.061,185.997,19.236"/>
	<path fill="#FFFFFF" d="M185.997,35.598c0,1.176-0.952,2.126-2.126,2.126s-2.126-0.95-2.126-2.126c0-1.174,0.952-2.126,2.126-2.126
		S185.997,34.424,185.997,35.598"/>
	<path fill="#FFFFFF" d="M185.997,51.961c0,1.175-0.952,2.126-2.126,2.126s-2.126-0.951-2.126-2.126
		c0-1.174,0.952-2.126,2.126-2.126S185.997,50.788,185.997,51.961"/>
	<path fill="#FFFFFF" d="M185.997,68.326c0,1.174-0.952,2.125-2.126,2.125s-2.126-0.951-2.126-2.125s0.952-2.127,2.126-2.127
		S185.997,67.153,185.997,68.326"/>
	<path fill="#FFFFFF" d="M143.483,43.781c0,1.174-0.951,2.126-2.126,2.126c-1.174,0-2.126-0.952-2.126-2.126
		s0.952-2.126,2.126-2.126C142.532,41.655,143.483,42.607,143.483,43.781"/>
	<path fill="#FFFFFF" d="M143.483,60.143c0,1.175-0.951,2.126-2.126,2.126c-1.174,0-2.126-0.951-2.126-2.126
		c0-1.174,0.952-2.126,2.126-2.126C142.532,58.017,143.483,58.969,143.483,60.143"/>
	<path fill="#FFFFFF" d="M200.167,27.417c0,1.174-0.952,2.126-2.126,2.126s-2.126-0.952-2.126-2.126
		c0-1.175,0.952-2.126,2.126-2.126S200.167,26.242,200.167,27.417"/>
	<path fill="#FFFFFF" d="M200.167,43.781c0,1.174-0.952,2.126-2.126,2.126s-2.126-0.952-2.126-2.126s0.952-2.126,2.126-2.126
		S200.167,42.607,200.167,43.781"/>
	<path fill="#FFFFFF" d="M200.167,60.143c0,1.175-0.952,2.126-2.126,2.126s-2.126-0.951-2.126-2.126
		c0-1.174,0.952-2.126,2.126-2.126S200.167,58.969,200.167,60.143"/>
	<polygon fill="#FFFFFF" points="144.924,100.376 145.254,100.376 145.254,102.554 145.267,102.554 147.148,100.376 
		147.539,100.376 146.262,101.868 147.719,104.386 147.339,104.386 146.042,102.126 145.254,103.034 145.254,104.386 
		144.924,104.386 	"/>
	<path fill="#FFFFFF" d="M148.214,100.515c0-0.166,0.12-0.265,0.27-0.265c0.144,0,0.271,0.099,0.271,0.265
		c0,0.147-0.127,0.252-0.271,0.252C148.335,100.767,148.214,100.663,148.214,100.515 M148.319,101.456h0.318v2.932h-0.318V101.456z"
		/>
	<path fill="#FFFFFF" d="M149.491,102.923c0-0.945,0.604-1.546,1.298-1.546c0.354,0,0.589,0.132,0.875,0.358l-0.021-0.528v-1.194
		h0.318v4.373h-0.264l-0.038-0.369h-0.012c-0.236,0.237-0.562,0.441-0.94,0.441C149.968,104.458,149.491,103.909,149.491,102.923
		 M151.641,103.716v-1.695c-0.298-0.264-0.546-0.361-0.819-0.361c-0.562,0-0.99,0.544-0.99,1.265c0,0.76,0.336,1.254,0.93,1.254
		C151.075,104.177,151.349,104.017,151.641,103.716"/>
	<path fill="#FFFFFF" d="M152.703,104.056l0.171-0.229c0.253,0.215,0.522,0.368,0.924,0.368c0.446,0,0.671-0.252,0.671-0.557
		c0-0.346-0.367-0.506-0.71-0.627c-0.434-0.152-0.918-0.336-0.918-0.842c0-0.429,0.348-0.791,0.962-0.791
		c0.319,0,0.635,0.137,0.854,0.313l-0.165,0.22c-0.198-0.148-0.413-0.264-0.699-0.264c-0.434,0-0.632,0.241-0.632,0.506
		c0,0.323,0.341,0.444,0.682,0.571c0.451,0.17,0.946,0.33,0.946,0.896c0,0.452-0.355,0.837-1.007,0.837
		C153.352,104.458,152.965,104.278,152.703,104.056"/>
	<path fill="#FFFFFF" d="M156.798,100.376h1.04c0.908,0,1.463,0.297,1.463,1.129c0,0.803-0.55,1.188-1.439,1.188h-0.732v1.692h-0.33
		L156.798,100.376L156.798,100.376z M157.794,102.417c0.792,0,1.172-0.27,1.172-0.912c0-0.648-0.396-0.854-1.193-0.854h-0.645v1.766
		H157.794z"/>
	<path fill="#FFFFFF" d="M160.132,103.953v-3.938h0.319v3.973c0,0.138,0.055,0.196,0.132,0.196c0.022,0,0.044,0,0.104-0.011
		l0.05,0.253c-0.056,0.019-0.11,0.033-0.215,0.033C160.258,104.458,160.132,104.293,160.132,103.953"/>
	<path fill="#FFFFFF" d="M161.398,103.651c0-0.649,0.578-0.957,1.87-1.105c0.012-0.436-0.116-0.887-0.672-0.887
		c-0.385,0-0.721,0.183-0.924,0.337l-0.143-0.231c0.225-0.153,0.633-0.385,1.11-0.385c0.697,0,0.945,0.5,0.945,1.148v1.859h-0.271
		l-0.031-0.374h-0.011c-0.297,0.241-0.648,0.445-1.022,0.445C161.777,104.458,161.398,104.196,161.398,103.651 M163.268,103.733
		v-0.951c-1.154,0.132-1.552,0.4-1.552,0.853c0,0.401,0.275,0.557,0.6,0.557C162.641,104.19,162.92,104.035,163.268,103.733"/>
	<polygon fill="#FFFFFF" points="164.236,104.216 165.923,101.724 164.417,101.724 164.417,101.456 166.336,101.456 
		166.336,101.625 164.648,104.112 166.392,104.112 166.392,104.386 164.236,104.386 	"/>
	<path fill="#FFFFFF" d="M166.898,103.651c0-0.649,0.578-0.957,1.87-1.105c0.011-0.436-0.116-0.887-0.672-0.887
		c-0.386,0-0.722,0.183-0.925,0.337l-0.143-0.231c0.225-0.153,0.633-0.385,1.111-0.385c0.697,0,0.944,0.5,0.944,1.148v1.859h-0.27
		l-0.032-0.374h-0.01c-0.297,0.241-0.649,0.445-1.023,0.445C167.277,104.458,166.898,104.196,166.898,103.651 M168.768,103.733
		v-0.951c-1.155,0.132-1.552,0.4-1.552,0.853c0,0.401,0.274,0.557,0.6,0.557C168.141,104.19,168.42,104.035,168.768,103.733"/>
	<polygon fill="#FFFFFF" points="171.363,100.376 171.693,100.376 171.693,102.116 173.778,102.116 173.778,100.376 
		174.102,100.376 174.102,104.386 173.778,104.386 173.778,102.402 171.693,102.402 171.693,104.386 171.363,104.386 	"/>
	<path fill="#FFFFFF" d="M175.032,103.651c0-0.649,0.578-0.957,1.87-1.105c0.011-0.436-0.116-0.887-0.671-0.887
		c-0.387,0-0.723,0.183-0.925,0.337l-0.144-0.231c0.225-0.153,0.633-0.385,1.111-0.385c0.697,0,0.944,0.5,0.944,1.148v1.859h-0.27
		l-0.032-0.374h-0.012c-0.297,0.241-0.649,0.445-1.023,0.445C175.411,104.458,175.032,104.196,175.032,103.651 M176.902,103.733
		v-0.951c-1.155,0.132-1.552,0.4-1.552,0.853c0,0.401,0.274,0.557,0.6,0.557C176.275,104.19,176.553,104.035,176.902,103.733"/>
	<polygon fill="#FFFFFF" points="178.244,100.013 178.562,100.013 178.562,103.181 178.574,103.181 179.975,101.455 
		180.338,101.455 179.381,102.617 180.494,104.386 180.14,104.386 179.196,102.847 178.562,103.595 178.562,104.386 
		178.244,104.386 	"/>
	<path fill="#FFFFFF" d="M180.867,102.923c0-0.979,0.616-1.545,1.325-1.545c0.71,0,1.326,0.566,1.326,1.545
		c0,0.976-0.616,1.535-1.326,1.535C181.483,104.458,180.867,103.899,180.867,102.923 M183.188,102.923
		c0-0.748-0.423-1.265-0.996-1.265c-0.572,0-0.99,0.517-0.99,1.265s0.418,1.26,0.99,1.26
		C182.765,104.183,183.188,103.671,183.188,102.923"/>
	<path fill="#FFFFFF" d="M184.132,102.923c0-0.945,0.605-1.546,1.298-1.546c0.354,0,0.59,0.132,0.875,0.358l-0.021-0.528v-1.194
		h0.318v4.373h-0.265l-0.038-0.369h-0.012c-0.236,0.237-0.562,0.441-0.939,0.441C184.613,104.458,184.132,103.909,184.132,102.923
		 M186.285,103.716v-1.695c-0.297-0.264-0.545-0.361-0.82-0.361c-0.561,0-0.989,0.544-0.989,1.265c0,0.76,0.336,1.254,0.931,1.254
		C185.716,104.177,185.993,104.017,186.285,103.716"/>
	<path fill="#FFFFFF" d="M187.5,103.651c0-0.649,0.578-0.957,1.87-1.105c0.012-0.436-0.116-0.887-0.671-0.887
		c-0.385,0-0.721,0.183-0.924,0.337l-0.144-0.231c0.226-0.153,0.634-0.385,1.11-0.385c0.698,0,0.946,0.5,0.946,1.148v1.859h-0.271
		l-0.031-0.374h-0.013c-0.297,0.241-0.647,0.445-1.021,0.445C187.878,104.458,187.5,104.196,187.5,103.651 M189.37,103.733v-0.951
		c-1.154,0.132-1.551,0.4-1.551,0.853c0,0.401,0.274,0.557,0.599,0.557C188.743,104.19,189.023,104.035,189.37,103.733"/>
	<path fill="#FFFFFF" d="M190.783,103.55v-1.826h-0.457v-0.24l0.469-0.028l0.037-0.847h0.271v0.847h0.842v0.27h-0.842v1.85
		c0,0.369,0.099,0.609,0.489,0.609c0.108,0,0.253-0.039,0.356-0.082l0.077,0.248c-0.17,0.061-0.356,0.109-0.49,0.109
		C190.959,104.458,190.783,104.095,190.783,103.55"/>
	<path fill="#FFFFFF" d="M192.406,102.924c0-0.952,0.622-1.546,1.286-1.546c0.711,0,1.135,0.506,1.135,1.363
		c0,0.082-0.006,0.16-0.018,0.23h-2.079c0.017,0.715,0.439,1.217,1.071,1.217c0.314,0,0.562-0.1,0.781-0.254l0.121,0.235
		c-0.236,0.149-0.511,0.287-0.936,0.287C193.015,104.458,192.406,103.886,192.406,102.924 M194.535,102.72
		c0-0.709-0.325-1.066-0.836-1.066c-0.479,0-0.908,0.396-0.969,1.066H194.535z"/>
	<path fill="#FFFFFF" d="M122.121,86.908c-0.051,0.13-0.101,0.35-0.13,0.528c-0.23,1.07-0.511,2.9-0.511,4.082
		c0,0.649,0.04,1.13,0.12,1.779c0.17-0.51,0.449-1.25,0.63-1.688l0.311,0.239c-0.229,0.609-0.601,1.619-0.7,2.08
		c-0.029,0.129-0.05,0.299-0.04,0.431c0.011,0.091,0.021,0.221,0.03,0.301l-0.471,0.04c-0.189-0.723-0.352-1.781-0.352-3.121
		c0-1.431,0.342-3.331,0.472-4.181c0.029-0.212,0.051-0.4,0.051-0.552L122.121,86.908z M128.771,93.958
		c-0.529-0.5-1.08-0.92-1.681-1.21c0.011,0.14,0.011,0.28,0.011,0.399c0,0.681-0.301,1.5-1.592,1.5c-1.3,0-1.96-0.528-1.96-1.33
		c0-0.72,0.681-1.379,1.951-1.379c0.391,0,0.74,0.05,1.069,0.129c-0.039-0.851-0.101-1.989-0.109-2.841
		c-0.359,0.011-0.729,0.021-1.09,0.021c-0.561,0-1.052-0.03-1.621-0.07v-0.49c0.55,0.052,1.069,0.08,1.642,0.08
		c0.359,0,0.72-0.01,1.069-0.02c0-0.521,0-0.99,0.01-1.312c0-0.18-0.01-0.42-0.029-0.579h0.601c-0.03,0.2-0.05,0.381-0.061,0.569
		c-0.021,0.312-0.021,0.83-0.021,1.29c0.641-0.05,1.26-0.12,1.8-0.229v0.51c-0.58,0.09-1.18,0.16-1.8,0.2
		c0.01,0.98,0.08,2.101,0.12,3.029c0.79,0.312,1.42,0.82,1.97,1.302L128.771,93.958z M126.59,92.558
		c-0.359-0.118-0.739-0.18-1.14-0.18c-0.841,0-1.421,0.391-1.421,0.9c0,0.55,0.52,0.89,1.351,0.89c0.96,0,1.221-0.47,1.221-1.18
		C126.601,92.869,126.601,92.728,126.59,92.558"/>
	<path fill="#FFFFFF" d="M132.331,91.478c-0.141,0.421-0.221,0.812-0.221,1.19c0,0.82,0.851,1.38,2.521,1.38
		c1.392,0,2.671-0.149,3.341-0.38l0.011,0.54c-0.619,0.189-1.92,0.35-3.341,0.35c-1.859,0-3.051-0.608-3.051-1.778
		c0-0.49,0.101-0.94,0.21-1.36L132.331,91.478z M132.17,87.597c0.71,0.09,1.61,0.131,2.57,0.131c0.94,0,1.871-0.069,2.551-0.141
		v0.521c-0.649,0.051-1.649,0.12-2.551,0.12c-0.96,0-1.801-0.041-2.57-0.109V87.597z"/>
	<path fill="#FFFFFF" d="M145.361,88.637c-0.682,0.149-1.42,0.271-2.131,0.341c-0.09,0.44-0.199,0.9-0.319,1.341
		c-0.36,1.42-1.03,3.48-1.54,4.512l-0.591-0.19c0.6-1.041,1.261-3.011,1.631-4.421c0.1-0.358,0.2-0.778,0.29-1.188
		c-0.38,0.027-0.741,0.049-1.061,0.049c-0.41,0-0.75-0.01-1.12-0.041l-0.012-0.521c0.432,0.062,0.812,0.071,1.151,0.071
		s0.729-0.021,1.149-0.052c0.091-0.439,0.159-0.819,0.189-1.039c0.03-0.221,0.05-0.51,0.03-0.7l0.64,0.05
		c-0.05,0.189-0.12,0.511-0.149,0.689c-0.061,0.281-0.119,0.601-0.189,0.939c0.68-0.078,1.399-0.197,2.03-0.369L145.361,88.637
		L145.361,88.637z M144.85,92.228c-0.1,0.351-0.149,0.66-0.149,0.931c0,0.492,0.21,1.012,1.82,1.012c0.641,0,1.319-0.07,1.87-0.188
		l-0.021,0.538c-0.521,0.08-1.18,0.142-1.86,0.142c-1.501,0-2.301-0.441-2.301-1.401c0-0.33,0.05-0.64,0.141-1.08L144.85,92.228z
		 M144.799,89.869c0.491-0.051,1.12-0.08,1.751-0.08c0.58,0,1.19,0.02,1.7,0.08l-0.02,0.51c-0.512-0.07-1.08-0.12-1.65-0.12
		c-0.58,0-1.181,0.04-1.781,0.11V89.869z M147.652,88.698c-0.2-0.41-0.562-1.021-0.83-1.391l0.38-0.17
		c0.25,0.352,0.62,0.95,0.83,1.37L147.652,88.698z M148.251,86.757c0.28,0.37,0.67,0.98,0.87,1.37l-0.39,0.18
		c-0.23-0.449-0.562-1-0.852-1.38L148.251,86.757z"/>
	<path fill="#FFFFFF" d="M151.5,87.908c0.54-0.062,2.552-0.271,4.371-0.42c1.12-0.101,1.95-0.15,2.591-0.17v0.52
		c-0.58-0.01-1.461,0.01-1.95,0.17c-1.54,0.54-2.369,2.172-2.369,3.34c0,2.111,1.97,2.731,3.541,2.781l-0.183,0.521
		c-1.688-0.039-3.858-0.931-3.858-3.189c0-1.611,1.01-2.941,2.06-3.501c-0.88,0.101-3.94,0.38-4.971,0.59l-0.061-0.59
		C151.04,87.949,151.299,87.927,151.5,87.908"/>
	<path fill="#FFFFFF" d="M168.602,91.149c-0.17,0.021-0.44,0.069-0.812,0.131c-0.59,0.09-1.601,0.25-2.641,0.42
		c0.221,1.069,0.399,1.959,0.438,2.119c0.071,0.291,0.151,0.621,0.25,0.871l-0.608,0.129c-0.051-0.33-0.09-0.608-0.15-0.898
		c-0.029-0.17-0.2-1.071-0.42-2.141c-1.2,0.188-2.359,0.39-2.871,0.479c-0.37,0.061-0.6,0.11-0.818,0.17l-0.119-0.6
		c0.219-0.011,0.56-0.04,0.79-0.08c0.52-0.061,1.71-0.25,2.93-0.45l-0.45-2.251c-0.99,0.161-1.92,0.311-2.351,0.38
		c-0.312,0.062-0.569,0.111-0.75,0.151l-0.109-0.611c0.21-0.009,0.449-0.027,0.771-0.06c0.42-0.051,1.35-0.181,2.34-0.34
		c-0.13-0.61-0.221-1.052-0.24-1.142c-0.05-0.24-0.11-0.449-0.17-0.64l0.58-0.11c0.02,0.181,0.06,0.44,0.1,0.642
		c0.011,0.08,0.102,0.539,0.221,1.17c1.04-0.17,2.051-0.33,2.512-0.42c0.279-0.062,0.46-0.11,0.59-0.142l0.11,0.562
		c-0.102,0.01-0.352,0.05-0.592,0.09l-2.521,0.399c0.13,0.681,0.29,1.48,0.45,2.24c1.068-0.18,2.101-0.35,2.641-0.449
		c0.38-0.069,0.61-0.12,0.79-0.181L168.602,91.149z"/>
	<path fill="#FFFFFF" d="M172.981,91.539l-0.479,0.18c-0.161-0.52-0.722-1.93-0.892-2.229l0.471-0.19
		C172.251,89.667,172.792,91.03,172.981,91.539 M177.992,89.269c-0.05,0.13-0.091,0.259-0.119,0.351
		c-0.262,1.16-0.701,2.25-1.44,3.17c-0.921,1.15-2.131,1.9-3.211,2.311l-0.43-0.438c1.189-0.361,2.391-1.121,3.22-2.142
		c0.722-0.891,1.25-2.131,1.432-3.422L177.992,89.269z M175.17,90.94l-0.471,0.18c-0.1-0.44-0.579-1.752-0.771-2.151l0.479-0.16
		C174.571,89.198,175.061,90.519,175.17,90.94"/>
	<path fill="#FFFFFF" d="M187.301,87.957c-0.05,0.061-0.149,0.242-0.182,0.33c-0.35,0.9-1.028,2.162-1.75,3.041
		c1.091,0.939,2.302,2.229,2.991,3.062l-0.431,0.38c-0.68-0.869-1.84-2.141-2.892-3.061c-1.1,1.17-2.449,2.291-4.001,2.99
		l-0.399-0.431c1.61-0.641,3.052-1.819,4.132-3.03c0.689-0.779,1.49-2.08,1.761-2.979h-4.19c-0.32,0-0.86,0.028-0.911,0.04v-0.6
		c0.062,0.008,0.602,0.059,0.911,0.059h4.051c0.261,0,0.45-0.021,0.579-0.059L187.301,87.957z M187.642,87.977
		c-0.191-0.398-0.551-1-0.82-1.38l0.379-0.17c0.25,0.351,0.621,0.949,0.831,1.369L187.642,87.977z M188.261,86.078
		c0.271,0.358,0.66,0.979,0.859,1.358l-0.39,0.183c-0.221-0.441-0.551-1.002-0.84-1.371L188.261,86.078z"/>
	<path fill="#FFFFFF" d="M197.282,87.757h0.189c-0.05-0.119-0.069-0.25-0.069-0.39c0-0.602,0.47-1.081,1.069-1.081
		c0.591,0,1.08,0.479,1.08,1.081c0,0.59-0.489,1.068-1.08,1.068c-0.189,0-0.359-0.049-0.511-0.129l-0.01,0.039
		c-0.21,1.102-0.72,2.741-1.479,3.723c-0.921,1.158-2.03,2.04-3.893,2.62l-0.438-0.48c1.91-0.5,3.029-1.34,3.892-2.449
		c0.729-0.951,1.25-2.492,1.391-3.512h-5.392c-0.361,0-0.62,0.01-0.881,0.03v-0.58c0.261,0.029,0.56,0.06,0.89,0.06H197.282z
		 M199.182,87.368c0-0.391-0.32-0.72-0.711-0.72s-0.71,0.329-0.71,0.72c0,0.39,0.319,0.7,0.71,0.7
		C198.862,88.069,199.182,87.757,199.182,87.368"/>
	<path fill="#FFFFFF" d="M208.332,89.619c-0.04,0.07-0.089,0.17-0.108,0.229c-0.229,0.99-0.69,2.061-1.44,2.88
		c-1.07,1.16-2.312,1.69-3.58,2.041l-0.401-0.459c1.361-0.271,2.651-0.922,3.552-1.882c0.649-0.689,1.101-1.67,1.279-2.5h-5.591
		c-0.229,0-0.54,0.012-0.859,0.03v-0.571c0.319,0.04,0.619,0.061,0.859,0.061h5.461c0.17,0,0.352-0.021,0.451-0.061L208.332,89.619z
		 M202.06,87.149c0.25,0.028,0.5,0.038,0.812,0.038h3.989c0.311,0,0.58-0.01,0.802-0.038v0.549
		c-0.222-0.021-0.491-0.021-0.812-0.021h-3.979c-0.291,0-0.552,0.01-0.812,0.021V87.149z"/>
	<path fill="#FFFFFF" d="M217.852,89.097c0.398,0,0.75-0.04,0.81-0.049v0.57c-0.04-0.011-0.41-0.031-0.81-0.031h-1.312v0.361
		c0,2.771-0.561,4.061-2.761,5.061l-0.44-0.41c1.75-0.711,2.701-1.569,2.701-4.57v-0.44h-3.131v1.771c0,0.319,0.03,0.779,0.03,0.82
		h-0.58c0.01-0.041,0.05-0.479,0.05-0.82v-1.771h-1.221c-0.399,0-0.91,0.031-0.95,0.031v-0.57c0.031,0.009,0.571,0.049,0.95,0.049
		h1.221v-1.449c0-0.29-0.04-0.58-0.04-0.62h0.58c-0.01,0.04-0.04,0.301-0.04,0.61v1.459h3.131v-1.37c0-0.38-0.041-0.71-0.05-0.75
		h0.6c-0.01,0.04-0.05,0.37-0.05,0.75v1.37L217.852,89.097L217.852,89.097z M217.792,88.45c-0.148-0.421-0.42-1.052-0.608-1.412
		l0.358-0.119c0.19,0.34,0.48,0.99,0.63,1.4L217.792,88.45z M218.522,86.617c0.188,0.351,0.47,0.979,0.63,1.399l-0.38,0.13
		c-0.17-0.447-0.41-1.05-0.62-1.408L218.522,86.617z"/>
</g>
</svg>
