<?xml version="1.0" encoding="utf-8"?>
<!-- Generator: Adobe Illustrator 16.0.4, SVG Export Plug-In . SVG Version: 6.00 Build 0)  -->
<!DOCTYPE svg PUBLIC "-//W3C//DTD SVG 1.1//EN" "http://www.w3.org/Graphics/SVG/1.1/DTD/svg11.dtd">
<svg version="1.1" id="レイヤー_1" xmlns="http://www.w3.org/2000/svg" xmlns:xlink="http://www.w3.org/1999/xlink" x="0px"
	 y="0px" width="225.088px" height="63.777px" viewBox="0 0 225.088 63.777" enable-background="new 0 0 225.088 63.777"
	 xml:space="preserve">
<polygon fill="#FFFFFF" points="72.784,39.713 77.084,39.713 77.084,40.259 73.426,40.259 73.426,43.265 76.517,43.265 
	76.517,43.811 73.426,43.811 73.426,47.512 72.784,47.512 "/>
<path fill="#FFFFFF" d="M78.327,45.457v-3.646h0.621v3.571c0,1.166,0.363,1.711,1.24,1.711c0.663,0,1.134-0.342,1.776-1.111v-4.171
	h0.62v5.7H82.06l-0.053-0.94h-0.033c-0.556,0.641-1.133,1.08-1.925,1.08C78.862,47.65,78.327,46.922,78.327,45.457"/>
<path fill="#FFFFFF" d="M84.864,45.885v-3.551h-0.888v-0.471l0.909-0.053l0.076-1.648h0.524v1.648h1.636v0.523h-1.636v3.594
	c0,0.717,0.192,1.188,0.952,1.188c0.214,0,0.491-0.075,0.695-0.16l0.149,0.481c-0.331,0.116-0.695,0.214-0.951,0.214
	C85.206,47.65,84.864,46.944,84.864,45.885"/>
<path fill="#FFFFFF" d="M88.406,45.457v-3.646h0.621v3.571c0,1.166,0.363,1.711,1.24,1.711c0.663,0,1.134-0.342,1.776-1.111v-4.171
	h0.62v5.7h-0.524l-0.053-0.94h-0.033c-0.556,0.641-1.133,1.08-1.925,1.08C88.941,47.65,88.406,46.922,88.406,45.457"/>
<path fill="#FFFFFF" d="M94.805,41.81h0.513l0.075,1.06h0.021c0.386-0.718,0.953-1.209,1.616-1.209c0.224,0,0.396,0.031,0.577,0.129
	l-0.128,0.556c-0.193-0.075-0.299-0.097-0.524-0.097c-0.503,0-1.112,0.375-1.53,1.434v3.829h-0.62V41.81z"/>
<path fill="#FFFFFF" d="M98.175,44.666c0-1.852,1.208-3.006,2.503-3.006c1.38,0,2.203,0.983,2.203,2.652
	c0,0.16-0.01,0.311-0.032,0.449h-4.043c0.032,1.392,0.856,2.364,2.086,2.364c0.61,0,1.09-0.193,1.519-0.492l0.235,0.46
	c-0.46,0.289-0.995,0.556-1.819,0.556C99.362,47.649,98.175,46.538,98.175,44.666 M102.314,44.27c0-1.38-0.631-2.074-1.625-2.074
	c-0.931,0-1.766,0.77-1.883,2.074H102.314z"/>
<path fill="#FFFFFF" d="M106.349,43.606c0-2.492,1.38-4.032,3.359-4.032c0.92,0,1.637,0.449,2.054,0.941l-0.364,0.417
	c-0.417-0.471-0.973-0.781-1.69-0.781c-1.648,0-2.685,1.327-2.685,3.435c0,2.128,1.016,3.486,2.653,3.486
	c0.791,0,1.38-0.332,1.936-0.941l0.363,0.407c-0.599,0.694-1.326,1.111-2.331,1.111C107.718,47.649,106.349,46.099,106.349,43.606"
	/>
<path fill="#FFFFFF" d="M113.016,44.666c0-1.852,1.208-3.006,2.503-3.006c1.38,0,2.203,0.983,2.203,2.652
	c0,0.16-0.01,0.311-0.032,0.449h-4.043c0.032,1.392,0.856,2.364,2.086,2.364c0.61,0,1.09-0.193,1.519-0.492l0.235,0.46
	c-0.46,0.289-0.995,0.556-1.818,0.556C114.203,47.649,113.016,46.538,113.016,44.666 M117.155,44.27c0-1.38-0.631-2.074-1.625-2.074
	c-0.931,0-1.766,0.77-1.883,2.074H117.155z"/>
<path fill="#FFFFFF" d="M119.243,41.81h0.513l0.075,0.866h0.021c0.578-0.566,1.166-1.016,1.947-1.016
	c1.188,0,1.733,0.737,1.733,2.203v3.647h-0.621v-3.562c0-1.187-0.374-1.732-1.251-1.732c-0.663,0-1.134,0.343-1.797,1.027v4.268
	h-0.62V41.81z"/>
<path fill="#FFFFFF" d="M125.726,45.885v-3.551h-0.888v-0.471l0.909-0.053l0.076-1.648h0.524v1.648h1.636v0.523h-1.636v3.594
	c0,0.717,0.192,1.188,0.952,1.188c0.214,0,0.491-0.075,0.695-0.16l0.149,0.481c-0.331,0.116-0.695,0.214-0.951,0.214
	C126.068,47.65,125.726,46.944,125.726,45.885"/>
<path fill="#FFFFFF" d="M128.883,44.666c0-1.852,1.208-3.006,2.503-3.006c1.38,0,2.203,0.983,2.203,2.652
	c0,0.16-0.01,0.311-0.032,0.449h-4.043c0.032,1.392,0.856,2.364,2.086,2.364c0.61,0,1.09-0.193,1.519-0.492l0.235,0.46
	c-0.46,0.289-0.995,0.556-1.818,0.556C130.07,47.649,128.883,46.538,128.883,44.666 M133.022,44.27c0-1.38-0.631-2.074-1.625-2.074
	c-0.931,0-1.766,0.77-1.883,2.074H133.022z"/>
<path fill="#FFFFFF" d="M135.11,41.81h0.513l0.075,1.06h0.021c0.386-0.718,0.953-1.209,1.616-1.209c0.224,0,0.396,0.031,0.577,0.129
	l-0.128,0.556c-0.193-0.075-0.299-0.097-0.524-0.097c-0.503,0-1.112,0.375-1.53,1.434v3.829h-0.62V41.81z"/>
<polygon fill="#FFFFFF" points="141.39,39.713 142.032,39.713 142.032,43.094 146.086,43.094 146.086,39.713 146.717,39.713 
	146.717,47.512 146.086,47.512 146.086,43.649 142.032,43.649 142.032,47.512 141.39,47.512 "/>
<path fill="#FFFFFF" d="M148.526,46.078c0-1.264,1.123-1.861,3.637-2.15c0.021-0.845-0.225-1.722-1.305-1.722
	c-0.749,0-1.401,0.353-1.797,0.651l-0.278-0.448c0.439-0.301,1.23-0.749,2.161-0.749c1.358,0,1.84,0.973,1.84,2.234v3.616h-0.525
	l-0.064-0.727h-0.021c-0.578,0.47-1.262,0.865-1.99,0.865C149.266,47.649,148.526,47.137,148.526,46.078 M152.164,46.238v-1.851
	c-2.246,0.256-3.016,0.78-3.016,1.658c0,0.78,0.535,1.08,1.165,1.08C150.944,47.126,151.49,46.826,152.164,46.238"/>
<polygon fill="#FFFFFF" points="154.776,39.007 155.396,39.007 155.396,45.168 155.418,45.168 158.145,41.81 158.851,41.81 
	156.99,44.066 159.151,47.511 158.466,47.511 156.626,44.517 155.396,45.97 155.396,47.511 154.776,47.511 "/>
<path fill="#FFFFFF" d="M159.879,44.666c0-1.904,1.198-3.006,2.578-3.006s2.578,1.102,2.578,3.006c0,1.893-1.198,2.983-2.578,2.983
	S159.879,46.559,159.879,44.666 M164.394,44.666c0-1.455-0.824-2.46-1.936-2.46s-1.925,1.005-1.925,2.46s0.813,2.448,1.925,2.448
	S164.394,46.121,164.394,44.666"/>
<path fill="#FFFFFF" d="M166.236,44.666c0-1.84,1.176-3.006,2.524-3.006c0.685,0,1.145,0.257,1.701,0.694l-0.043-1.026v-2.321h0.621
	v8.504h-0.514l-0.075-0.717h-0.021c-0.46,0.46-1.091,0.856-1.829,0.856C167.167,47.65,166.236,46.58,166.236,44.666 M170.418,46.206
	v-3.294c-0.578-0.514-1.059-0.706-1.594-0.706c-1.091,0-1.925,1.058-1.925,2.46c0,1.476,0.652,2.438,1.808,2.438
	C169.316,47.104,169.851,46.794,170.418,46.206"/>
<path fill="#FFFFFF" d="M172.784,46.078c0-1.264,1.123-1.861,3.637-2.15c0.021-0.845-0.225-1.722-1.305-1.722
	c-0.749,0-1.401,0.353-1.797,0.651l-0.278-0.448c0.439-0.301,1.23-0.749,2.161-0.749c1.358,0,1.84,0.973,1.84,2.234v3.616h-0.525
	l-0.064-0.727h-0.021c-0.578,0.47-1.262,0.865-1.99,0.865C173.523,47.649,172.784,47.137,172.784,46.078 M176.421,46.238v-1.851
	c-2.246,0.256-3.016,0.78-3.016,1.658c0,0.78,0.535,1.08,1.165,1.08C175.202,47.126,175.747,46.826,176.421,46.238"/>
<path fill="#FFFFFF" d="M179.172,45.885v-3.551h-0.888v-0.471l0.909-0.053l0.076-1.648h0.524v1.648h1.636v0.523h-1.636v3.594
	c0,0.717,0.192,1.188,0.952,1.188c0.214,0,0.491-0.075,0.695-0.16l0.149,0.481c-0.331,0.116-0.695,0.214-0.951,0.214
	C179.514,47.65,179.172,46.944,179.172,45.885"/>
<path fill="#FFFFFF" d="M182.329,44.666c0-1.852,1.208-3.006,2.503-3.006c1.38,0,2.203,0.983,2.203,2.652
	c0,0.16-0.01,0.311-0.032,0.449h-4.043c0.032,1.392,0.856,2.364,2.086,2.364c0.61,0,1.09-0.193,1.519-0.492l0.235,0.46
	c-0.46,0.289-0.995,0.556-1.819,0.556C183.516,47.649,182.329,46.538,182.329,44.666 M186.468,44.27c0-1.38-0.631-2.074-1.625-2.074
	c-0.931,0-1.766,0.77-1.883,2.074H186.468z"/>
<path fill="#FFFFFF" d="M74.879,17.11c-0.097,0.253-0.195,0.683-0.253,1.034c-0.449,2.086-0.995,5.654-0.995,7.956
	c0,1.267,0.078,2.202,0.234,3.471c0.332-0.995,0.877-2.438,1.229-3.296l0.604,0.468c-0.448,1.189-1.17,3.159-1.365,4.056
	c-0.058,0.254-0.097,0.585-0.078,0.839c0.02,0.177,0.039,0.43,0.059,0.585l-0.917,0.078c-0.37-1.403-0.682-3.471-0.682-6.084
	c0-2.789,0.663-6.494,0.916-8.151c0.059-0.409,0.098-0.779,0.098-1.072L74.879,17.11z M87.847,30.858
	c-1.033-0.976-2.106-1.794-3.276-2.359c0.02,0.273,0.02,0.546,0.02,0.779c0,1.327-0.585,2.926-3.101,2.926
	c-2.535,0-3.822-1.034-3.822-2.594c0-1.404,1.326-2.691,3.803-2.691c0.76,0,1.442,0.097,2.086,0.253
	c-0.078-1.657-0.195-3.88-0.214-5.538c-0.703,0.021-1.424,0.039-2.126,0.039c-1.092,0-2.048-0.058-3.159-0.136v-0.956
	c1.072,0.098,2.086,0.156,3.198,0.156c0.702,0,1.404-0.02,2.087-0.039c0-1.014,0-1.93,0.019-2.554c0-0.352-0.019-0.82-0.058-1.132
	h1.169c-0.058,0.39-0.097,0.74-0.116,1.111c-0.039,0.605-0.039,1.619-0.039,2.516c1.248-0.098,2.457-0.233,3.509-0.448v0.995
	c-1.13,0.175-2.3,0.312-3.509,0.39c0.019,1.911,0.155,4.095,0.234,5.908c1.54,0.604,2.769,1.6,3.841,2.536L87.847,30.858z
	 M83.596,28.128c-0.702-0.233-1.443-0.351-2.223-0.351c-1.638,0-2.769,0.761-2.769,1.755c0,1.073,1.014,1.736,2.633,1.736
	c1.872,0,2.379-0.917,2.379-2.303C83.616,28.732,83.616,28.46,83.596,28.128"/>
<path fill="#FFFFFF" d="M94.789,26.021c-0.273,0.819-0.429,1.58-0.429,2.321c0,1.599,1.658,2.691,4.914,2.691
	c2.711,0,5.207-0.293,6.513-0.741l0.02,1.053c-1.209,0.37-3.745,0.682-6.514,0.682c-3.627,0-5.947-1.188-5.947-3.471
	c0-0.955,0.195-1.833,0.409-2.652L94.789,26.021z M94.477,18.456c1.384,0.175,3.14,0.253,5.012,0.253
	c1.833,0,3.646-0.137,4.972-0.273v1.016c-1.267,0.097-3.217,0.233-4.972,0.233c-1.872,0-3.511-0.079-5.012-0.215V18.456z"/>
<path fill="#FFFFFF" d="M120.197,20.483c-1.326,0.292-2.769,0.527-4.154,0.663c-0.175,0.858-0.39,1.755-0.624,2.613
	c-0.702,2.769-2.008,6.787-3.003,8.795l-1.15-0.37c1.17-2.029,2.457-5.87,3.178-8.62c0.195-0.702,0.39-1.521,0.566-2.32
	c-0.741,0.059-1.443,0.098-2.067,0.098c-0.8,0-1.463-0.02-2.184-0.078l-0.02-1.014c0.839,0.116,1.58,0.137,2.243,0.137
	c0.663,0,1.423-0.039,2.243-0.098c0.175-0.858,0.312-1.6,0.37-2.028s0.097-0.994,0.058-1.365l1.248,0.098
	c-0.097,0.37-0.234,0.994-0.292,1.346c-0.117,0.546-0.234,1.17-0.371,1.833c1.326-0.156,2.731-0.391,3.959-0.722V20.483z
	 M119.203,27.484c-0.196,0.684-0.293,1.287-0.293,1.813c0,0.956,0.409,1.97,3.549,1.97c1.248,0,2.574-0.137,3.647-0.37l-0.039,1.053
	c-1.014,0.156-2.301,0.273-3.628,0.273c-2.924,0-4.484-0.858-4.484-2.73c0-0.644,0.097-1.248,0.273-2.106L119.203,27.484z
	 M119.105,22.883c0.956-0.099,2.184-0.156,3.413-0.156c1.131,0,2.32,0.039,3.315,0.156l-0.039,0.995
	c-0.995-0.138-2.107-0.235-3.218-0.235c-1.131,0-2.301,0.078-3.471,0.215V22.883z M124.663,20.601
	c-0.39-0.799-1.092-1.989-1.619-2.71l0.741-0.332c0.488,0.683,1.209,1.853,1.619,2.672L124.663,20.601z M125.833,16.817
	c0.546,0.723,1.306,1.911,1.696,2.672l-0.76,0.351c-0.449-0.877-1.092-1.949-1.658-2.69L125.833,16.817z"/>
<path fill="#FFFFFF" d="M132.17,19.061c1.053-0.117,4.973-0.526,8.521-0.819c2.185-0.195,3.803-0.293,5.051-0.331v1.013
	c-1.131-0.019-2.847,0.021-3.802,0.332c-3.003,1.054-4.622,4.232-4.622,6.514c0,4.114,3.842,5.323,6.903,5.421l-0.351,1.015
	c-3.295-0.079-7.527-1.813-7.527-6.221c0-3.141,1.97-5.734,4.017-6.825c-1.716,0.194-7.683,0.74-9.691,1.15l-0.118-1.15
	C131.273,19.138,131.78,19.1,132.17,19.061"/>
<path fill="#FFFFFF" d="M165.983,28.361c-0.643-0.545-1.404-1.11-2.262-1.638c-0.741,2.711-2.243,4.603-5.167,6.046l-0.839-0.702
	c3.12-1.288,4.524-3.491,5.148-5.831c-1.755-0.956-3.842-1.697-6.065-1.812c-0.741,1.695-1.774,4.152-2.554,5.245
	c-0.644,0.878-1.287,1.15-2.106,1.15c-1.288,0-2.262-0.976-2.262-2.379c0-2.789,2.613-4.914,6.337-4.954
	c0.781-1.696,1.58-3.529,2.262-4.895c-0.78,0.04-3.49,0.176-4.387,0.215c-0.449,0.039-0.917,0.078-1.346,0.137l-0.059-1.112
	c0.469,0.039,0.956,0.039,1.346,0.039c0.975,0,3.783-0.155,4.564-0.215c0.273-0.019,0.526-0.077,0.721-0.154l0.663,0.546
	c-0.136,0.175-0.293,0.312-0.429,0.564c-0.566,0.858-1.482,3.042-2.34,4.915c2.164,0.155,4.193,0.877,5.889,1.735
	c0.117-0.645,0.195-1.287,0.234-1.911c0.019-0.39,0.039-0.975,0.019-1.58l1.034,0.117c-0.078,1.424-0.195,2.69-0.429,3.823
	c0.975,0.546,1.814,1.11,2.477,1.598L165.983,28.361z M155.765,24.403c-3.159,0.156-4.954,2.028-4.954,3.939
	c0,0.956,0.644,1.481,1.327,1.481c0.487,0,0.819-0.136,1.267-0.682C154.185,28.147,155.004,26.041,155.765,24.403"/>
<path fill="#FFFFFF" d="M172.69,26.022c1.931-1.814,4.135-2.613,6.592-2.613c2.71,0,4.699,1.618,4.699,3.842
	c0,3.412-3.237,5.538-9.906,4.992l-0.293-1.034c6.26,0.702,9.166-1.248,9.166-3.997c0-1.697-1.56-2.887-3.705-2.887
	c-2.789,0-4.875,1.014-6.319,2.729c-0.234,0.293-0.39,0.624-0.487,0.878l-1.034-0.233c0.39-1.677,0.897-5.889,0.995-7.683
	l1.111,0.136C173.256,21.595,172.925,24.696,172.69,26.022 M174.231,16.837c1.56,0.507,5.616,1.326,7.332,1.501l-0.253,0.977
	c-1.755-0.234-5.89-1.073-7.332-1.482L174.231,16.837z"/>
<path fill="#FFFFFF" d="M191.04,20.035c-0.039,1.17,0,3.14,0.156,4.836c0.351,3.51,1.463,5.753,2.945,5.753
	c1.033,0,2.008-1.813,2.593-3.998l0.82,0.839c-1.112,3.218-2.263,4.31-3.433,4.31c-1.657,0-3.354-1.794-3.9-6.688
	c-0.175-1.599-0.195-3.998-0.195-5.09c0-0.41-0.019-1.209-0.097-1.58l1.228,0.039C191.118,18.787,191.059,19.567,191.04,20.035
	 M204.788,28.265l-1.014,0.409c-0.351-3.686-1.618-7.098-3.296-9.282l0.976-0.352C203.111,21.304,204.437,24.832,204.788,28.265"/>
<path fill="#FFFFFF" d="M214.752,19.782c-0.604-0.937-1.794-2.379-2.925-3.374c-0.838,1.463-2.164,3.413-4.056,4.934
	c-0.136-0.176-0.429-0.449-0.643-0.565c1.969-1.521,3.334-3.607,4.075-5.188h0.995c1.209,1.053,2.593,2.535,3.217,3.53
	L214.752,19.782z M212.9,27.719c1.092,1.345,2.184,3.139,2.594,4.329l-0.8,0.409c-0.175-0.507-0.468-1.131-0.839-1.794
	c-2.125,0.604-4.329,1.248-5.986,1.697l-0.351-0.918c0.429-0.097,0.916-0.194,1.443-0.33V20.62h2.535v-1.969h0.838v1.969h2.301
	v6.084h-4.816v4.192c1.131-0.292,2.359-0.624,3.607-0.954c-0.389-0.645-0.838-1.287-1.287-1.834L212.9,27.719z M209.819,23.271
	h3.939v-1.872h-3.939V23.271z M213.758,24.013h-3.939v1.911h3.939V24.013z M225.088,17.733v3.081h-0.897v-2.241h-7.664v2.241h-0.858
	v-3.081h4.115V15.57h0.916v2.163H225.088z M217.775,27.27h6.826v5.812h-0.898v-0.897h-5.928v1.055h-0.897V20.776h6.903v4.603h-6.006
	V27.27z M217.775,24.54h5.129v-2.925h-5.129V24.54z M217.775,31.326h5.928v-3.218h-5.928V31.326z"/>
<path fill="#FFFFFF" d="M28.342,17.626v12.162c0.083-0.011,0.164-0.025,0.25-0.025s0.167,0.015,0.25,0.025V17.626
	c-0.083,0.01-0.164,0.024-0.25,0.024S28.425,17.636,28.342,17.626"/>
<path fill="#FFFFFF" d="M26.639,32.728l-10.521,6.074c0.1,0.134,0.189,0.274,0.256,0.43l10.521-6.074
	C26.795,33.023,26.707,32.882,26.639,32.728"/>
<path fill="#FFFFFF" d="M40.811,24.546L30.29,30.619c0.1,0.135,0.189,0.275,0.255,0.431l10.522-6.074
	C40.966,24.842,40.877,24.7,40.811,24.546"/>
<path fill="#FFFFFF" d="M16.374,22.868l10.521-6.074c-0.1-0.134-0.189-0.275-0.256-0.43l-10.521,6.074
	C16.218,22.572,16.307,22.713,16.374,22.868"/>
<path fill="#FFFFFF" d="M41.066,22.438l-10.521-6.074c-0.067,0.155-0.156,0.296-0.256,0.429l10.521,6.075
	C40.877,22.714,40.966,22.571,41.066,22.438"/>
<path fill="#FFFFFF" d="M43.013,37.97V25.808c-0.083,0.01-0.164,0.024-0.25,0.024s-0.167-0.015-0.25-0.024V37.97
	c0.083-0.011,0.164-0.025,0.25-0.025S42.93,37.959,43.013,37.97"/>
<path fill="#FFFFFF" d="M30.289,33.157l10.521,6.074c0.067-0.155,0.156-0.297,0.256-0.43l-10.521-6.075
	C30.478,32.882,30.389,33.024,30.289,33.157"/>
<path fill="#FFFFFF" d="M26.895,30.62l-10.521-6.074c-0.067,0.155-0.156,0.296-0.256,0.429l10.521,6.075
	C26.706,30.896,26.795,30.753,26.895,30.62"/>
<path fill="#FFFFFF" d="M14.671,37.969V25.808c-0.083,0.01-0.164,0.024-0.25,0.024s-0.167-0.015-0.25-0.024v12.161
	c0.083-0.01,0.164-0.024,0.25-0.024S14.588,37.959,14.671,37.969"/>
<path fill="#FFFFFF" d="M28.842,46.151V33.989c-0.083,0.01-0.164,0.025-0.25,0.025s-0.167-0.016-0.25-0.025v12.162
	c0.083-0.01,0.164-0.025,0.25-0.025S28.759,46.142,28.842,46.151"/>
<path fill="#FFFFFF" d="M26.895,14.257L16.374,8.183c-0.067,0.155-0.156,0.296-0.256,0.429l10.521,6.075
	C26.706,14.532,26.795,14.39,26.895,14.257"/>
<path fill="#FFFFFF" d="M12.724,22.438L2.203,16.364c-0.067,0.155-0.156,0.296-0.256,0.429l10.521,6.075
	C12.535,22.713,12.624,22.571,12.724,22.438"/>
<path fill="#FFFFFF" d="M16.118,41.339l10.521,6.073c0.067-0.154,0.156-0.296,0.256-0.429l-10.521-6.075
	C16.307,41.063,16.218,41.206,16.118,41.339"/>
<path fill="#FFFFFF" d="M12.468,40.909L1.947,46.982c0.1,0.135,0.189,0.275,0.256,0.431l10.521-6.074
	C12.625,41.205,12.535,41.063,12.468,40.909"/>
<path fill="#FFFFFF" d="M44.46,41.339l10.521,6.073c0.067-0.154,0.156-0.296,0.256-0.429l-10.521-6.075
	C44.649,41.063,44.56,41.206,44.46,41.339"/>
<path fill="#FFFFFF" d="M30.29,49.521l10.521,6.073c0.067-0.154,0.156-0.296,0.256-0.429L30.545,49.09
	C30.479,49.245,30.389,49.387,30.29,49.521"/>
<path fill="#FFFFFF" d="M26.639,49.091l-10.521,6.073c0.1,0.135,0.189,0.275,0.255,0.431l10.522-6.074
	C26.795,49.387,26.706,49.245,26.639,49.091"/>
<path fill="#FFFFFF" d="M44.716,22.868l10.521-6.074c-0.1-0.134-0.189-0.274-0.255-0.43L44.46,22.438
	C44.56,22.572,44.649,22.713,44.716,22.868"/>
<path fill="#FFFFFF" d="M40.81,40.909l-10.521,6.073c0.099,0.135,0.189,0.275,0.255,0.431l10.522-6.074
	C40.966,41.205,40.877,41.063,40.81,40.909"/>
<path fill="#FFFFFF" d="M42.513,9.444v12.161c0.083-0.01,0.164-0.024,0.25-0.024s0.167,0.015,0.25,0.024V9.444
	c-0.083,0.01-0.164,0.024-0.25,0.024S42.596,9.454,42.513,9.444"/>
<path fill="#FFFFFF" d="M30.545,14.687l10.521-6.075c-0.1-0.133-0.189-0.273-0.256-0.429l-10.521,6.074
	C30.389,14.391,30.478,14.531,30.545,14.687"/>
<path fill="#FFFFFF" d="M56.934,34.014c-0.086,0-0.167-0.015-0.25-0.024v12.162c0.083-0.011,0.164-0.026,0.25-0.026
	s0.167,0.016,0.25,0.026V33.989C57.101,33.999,57.02,34.014,56.934,34.014"/>
<path fill="#FFFFFF" d="M2.203,14.686l10.521-6.073c-0.1-0.135-0.189-0.275-0.256-0.431L1.947,14.256
	C2.047,14.39,2.136,14.531,2.203,14.686"/>
<path fill="#FFFFFF" d="M16.374,6.504l10.521-6.073c-0.1-0.135-0.189-0.275-0.256-0.431L16.118,6.074
	C16.218,6.208,16.307,6.35,16.374,6.504"/>
<path fill="#FFFFFF" d="M57.184,29.787V17.625c-0.083,0.011-0.164,0.025-0.25,0.025s-0.167-0.015-0.25-0.025v12.162
	c0.083-0.01,0.164-0.024,0.25-0.024S57.101,29.777,57.184,29.787"/>
<path fill="#FFFFFF" d="M44.46,8.611l10.521,6.075c0.067-0.154,0.156-0.297,0.256-0.43L44.716,8.182
	C44.649,8.337,44.56,8.479,44.46,8.611"/>
<path fill="#FFFFFF" d="M0.25,29.762c0.086,0,0.167,0.016,0.25,0.025V17.625c-0.083,0.01-0.164,0.026-0.25,0.026
	S0.083,17.635,0,17.625v12.162C0.083,29.777,0.164,29.762,0.25,29.762"/>
<path fill="#FFFFFF" d="M30.289,0.43L40.81,6.504c0.067-0.153,0.156-0.296,0.256-0.429L30.545,0
	C30.478,0.155,30.389,0.297,30.289,0.43"/>
<path fill="#FFFFFF" d="M40.811,57.272L30.29,63.347c0.099,0.134,0.189,0.275,0.255,0.43l10.522-6.073
	C40.967,57.568,40.877,57.428,40.811,57.272"/>
<path fill="#FFFFFF" d="M54.982,49.091L44.46,55.165c0.1,0.134,0.189,0.275,0.255,0.43l10.522-6.073
	C55.138,49.387,55.049,49.246,54.982,49.091"/>
<path fill="#FFFFFF" d="M12.724,55.165L2.203,49.09c-0.067,0.155-0.156,0.297-0.256,0.431l10.521,6.074
	C12.535,55.44,12.624,55.298,12.724,55.165"/>
<path fill="#FFFFFF" d="M26.895,63.347l-10.521-6.074c-0.067,0.154-0.156,0.297-0.256,0.43l10.521,6.075
	C26.706,63.622,26.795,63.48,26.895,63.347"/>
<path fill="#FFFFFF" d="M0,33.989v12.162c0.083-0.011,0.164-0.025,0.25-0.025s0.167,0.015,0.25,0.025V33.989
	c-0.083,0.01-0.164,0.024-0.25,0.024S0.083,33.999,0,33.989"/>
<path fill="#FFFFFF" d="M12.724,38.802L2.203,32.728c-0.067,0.155-0.156,0.296-0.256,0.429l10.521,6.075
	C12.535,39.077,12.624,38.935,12.724,38.802"/>
<path fill="#FFFFFF" d="M44.46,24.976l10.521,6.074c0.067-0.155,0.156-0.297,0.256-0.43l-10.521-6.075
	C44.649,24.7,44.56,24.843,44.46,24.976"/>
<path fill="#FFFFFF" d="M28.342,1.263v12.162c0.083-0.011,0.164-0.025,0.25-0.025s0.167,0.015,0.25,0.025V1.263
	c-0.083,0.01-0.164,0.024-0.25,0.024S28.425,1.272,28.342,1.263"/>
<path fill="#FFFFFF" d="M14.171,9.444v12.161c0.083-0.01,0.164-0.024,0.25-0.024s0.167,0.015,0.25,0.024V9.444
	c-0.083,0.01-0.164,0.024-0.25,0.024S14.254,9.454,14.171,9.444"/>
<path fill="#FFFFFF" d="M12.724,24.976c-0.1-0.134-0.189-0.275-0.256-0.431L1.947,30.62c0.1,0.133,0.189,0.274,0.256,0.429
	L12.724,24.976z"/>
<path fill="#FFFFFF" d="M43.013,54.333V42.171c-0.083,0.01-0.164,0.024-0.25,0.024s-0.167-0.015-0.25-0.024v12.162
	c0.083-0.011,0.164-0.025,0.25-0.025S42.93,54.322,43.013,54.333"/>
<path fill="#FFFFFF" d="M44.46,38.802c0.1,0.133,0.189,0.274,0.256,0.43l10.521-6.075c-0.1-0.133-0.189-0.273-0.256-0.429
	L44.46,38.802z"/>
<path fill="#FFFFFF" d="M28.842,62.515V50.353c-0.083,0.01-0.164,0.025-0.25,0.025s-0.167-0.016-0.25-0.025v12.162
	c0.083-0.01,0.164-0.025,0.25-0.025S28.759,62.505,28.842,62.515"/>
<path fill="#FFFFFF" d="M14.671,54.333V42.171c-0.083,0.01-0.164,0.024-0.25,0.024s-0.167-0.015-0.25-0.024v12.162
	c0.083-0.011,0.164-0.025,0.25-0.025S14.588,54.322,14.671,54.333"/>
</svg>
