<?xml version="1.0" encoding="utf-8"?>
<!-- Generator: Adobe Illustrator 15.1.0, SVG Export Plug-In . SVG Version: 6.00 Build 0)  -->
<!DOCTYPE svg PUBLIC "-//W3C//DTD SVG 1.1//EN" "http://www.w3.org/Graphics/SVG/1.1/DTD/svg11.dtd">
<svg version="1.1" id="レイヤー_1" xmlns="http://www.w3.org/2000/svg" xmlns:xlink="http://www.w3.org/1999/xlink" x="0px"
	 y="0px" width="113.386px" height="113.386px" viewBox="0 0 113.386 113.386" enable-background="new 0 0 113.386 113.386"
	 xml:space="preserve">
<rect x="0.061" fill="#F39800" width="113.386" height="113.386"/>
<path fill="#FFFFFF" d="M57.206,28.521v12.936c0.088-0.01,0.174-0.026,0.266-0.026s0.178,0.017,0.266,0.026V28.521
	c-0.088,0.01-0.174,0.026-0.266,0.026S57.293,28.531,57.206,28.521"/>
<path fill="#FFFFFF" d="M55.395,44.583l-11.192,6.461c0.106,0.144,0.201,0.293,0.273,0.457l11.191-6.461
	C55.56,44.899,55.465,44.749,55.395,44.583"/>
<path fill="#FFFFFF" d="M70.468,35.88l-11.191,6.462c0.107,0.142,0.201,0.292,0.272,0.456l11.191-6.461
	C70.634,36.197,70.539,36.046,70.468,35.88"/>
<path fill="#FFFFFF" d="M44.476,34.095l11.191-6.46c-0.107-0.142-0.202-0.292-0.273-0.456l-11.191,6.46
	C44.309,33.783,44.404,33.931,44.476,34.095"/>
<path fill="#FFFFFF" d="M70.739,33.639l-11.189-6.46c-0.072,0.165-0.166,0.314-0.272,0.455l11.19,6.463
	C70.539,33.931,70.633,33.781,70.739,33.639"/>
<path fill="#FFFFFF" d="M72.811,50.16V37.223c-0.088,0.01-0.174,0.027-0.266,0.027c-0.091,0-0.178-0.018-0.266-0.027V50.16
	c0.088-0.011,0.175-0.027,0.266-0.027C72.637,50.132,72.723,50.149,72.811,50.16"/>
<path fill="#FFFFFF" d="M59.277,45.041l11.191,6.461c0.07-0.164,0.165-0.314,0.272-0.456l-11.191-6.462
	C59.478,44.749,59.383,44.899,59.277,45.041"/>
<path fill="#FFFFFF" d="M55.667,42.342l-11.191-6.46c-0.072,0.165-0.167,0.314-0.273,0.455l11.191,6.462
	C55.465,42.634,55.56,42.484,55.667,42.342"/>
<path fill="#FFFFFF" d="M42.664,50.16V37.223c-0.089,0.01-0.174,0.027-0.266,0.027s-0.178-0.018-0.266-0.027V50.16
	c0.088-0.011,0.174-0.027,0.266-0.027S42.575,50.149,42.664,50.16"/>
<path fill="#FFFFFF" d="M57.737,58.862V45.925c-0.088,0.012-0.174,0.026-0.266,0.026s-0.178-0.015-0.266-0.026v12.937
	c0.088-0.011,0.174-0.025,0.266-0.025S57.649,58.851,57.737,58.862"/>
<path fill="#FFFFFF" d="M55.667,24.937l-11.19-6.461c-0.072,0.165-0.167,0.315-0.273,0.457l11.191,6.462
	C55.465,25.23,55.56,25.079,55.667,24.937"/>
<path fill="#FFFFFF" d="M40.593,33.639l-11.192-6.46c-0.07,0.165-0.165,0.314-0.271,0.455l11.19,6.463
	C40.392,33.931,40.487,33.781,40.593,33.639"/>
<path fill="#FFFFFF" d="M44.203,53.744l11.191,6.461c0.071-0.164,0.166-0.315,0.273-0.457l-11.191-6.462
	C44.404,53.451,44.309,53.602,44.203,53.744"/>
<path fill="#FFFFFF" d="M40.321,53.286l-11.191,6.461c0.106,0.144,0.201,0.294,0.272,0.458l11.191-6.461
	C40.488,53.602,40.392,53.451,40.321,53.286"/>
<path fill="#FFFFFF" d="M74.35,53.744l11.191,6.461c0.07-0.164,0.165-0.315,0.271-0.457l-11.19-6.462
	C74.552,53.451,74.458,53.602,74.35,53.744"/>
<path fill="#FFFFFF" d="M59.277,62.446l11.191,6.461c0.07-0.164,0.166-0.314,0.272-0.456l-11.19-6.462
	C59.478,62.154,59.384,62.304,59.277,62.446"/>
<path fill="#FFFFFF" d="M55.395,61.989L44.203,68.45c0.106,0.144,0.201,0.293,0.272,0.457l11.192-6.46
	C55.56,62.304,55.465,62.154,55.395,61.989"/>
<path fill="#FFFFFF" d="M74.623,34.095l11.19-6.46c-0.106-0.142-0.201-0.292-0.271-0.456l-11.192,6.46
	C74.458,33.783,74.552,33.931,74.623,34.095"/>
<path fill="#FFFFFF" d="M70.468,53.286l-11.191,6.461c0.106,0.144,0.201,0.294,0.271,0.458l11.192-6.461
	C70.634,53.602,70.539,53.451,70.468,53.286"/>
<path fill="#FFFFFF" d="M72.28,19.817v12.938c0.088-0.011,0.175-0.027,0.266-0.027c0.092,0,0.178,0.017,0.266,0.027V19.817
	c-0.088,0.012-0.174,0.027-0.266,0.027C72.455,19.844,72.368,19.829,72.28,19.817"/>
<path fill="#FFFFFF" d="M59.549,25.395l11.191-6.462c-0.107-0.143-0.202-0.293-0.272-0.457l-11.191,6.461
	C59.383,25.08,59.478,25.23,59.549,25.395"/>
<path fill="#FFFFFF" d="M87.62,45.952c-0.093,0-0.179-0.015-0.268-0.026v12.937c0.089-0.011,0.175-0.026,0.268-0.026
	c0.091,0,0.177,0.016,0.266,0.026V45.925C87.796,45.937,87.71,45.952,87.62,45.952"/>
<path fill="#FFFFFF" d="M29.402,25.394l11.191-6.461c-0.106-0.143-0.201-0.293-0.273-0.458l-11.19,6.461
	C29.236,25.079,29.331,25.23,29.402,25.394"/>
<path fill="#FFFFFF" d="M44.476,16.691l11.19-6.46c-0.106-0.144-0.201-0.294-0.272-0.458l-11.191,6.461
	C44.309,16.376,44.404,16.527,44.476,16.691"/>
<path fill="#FFFFFF" d="M87.885,41.457V28.52c-0.089,0.01-0.175,0.027-0.266,0.027c-0.092,0-0.179-0.018-0.268-0.027v12.937
	c0.089-0.01,0.176-0.027,0.268-0.027C87.71,41.429,87.796,41.447,87.885,41.457"/>
<path fill="#FFFFFF" d="M74.35,18.933l11.191,6.462c0.07-0.164,0.165-0.316,0.271-0.458l-11.19-6.462
	C74.552,18.64,74.457,18.792,74.35,18.933"/>
<path fill="#FFFFFF" d="M27.325,41.429c0.092,0,0.178,0.018,0.266,0.027V28.52c-0.088,0.01-0.174,0.028-0.266,0.028
	s-0.177-0.019-0.266-0.028v12.937C27.148,41.447,27.233,41.429,27.325,41.429"/>
<path fill="#FFFFFF" d="M59.277,10.23l11.191,6.461c0.07-0.165,0.165-0.314,0.272-0.457L59.549,9.773
	C59.478,9.937,59.383,10.088,59.277,10.23"/>
<path fill="#FFFFFF" d="M70.468,70.693l-11.19,6.461c0.105,0.143,0.2,0.291,0.271,0.457l11.191-6.461
	C70.634,71.007,70.54,70.858,70.468,70.693"/>
<path fill="#FFFFFF" d="M85.542,61.99l-11.19,6.461c0.106,0.143,0.201,0.292,0.271,0.457l11.19-6.46
	C85.708,62.304,85.613,62.155,85.542,61.99"/>
<path fill="#FFFFFF" d="M40.593,68.451l-11.191-6.462c-0.071,0.164-0.166,0.315-0.272,0.457l11.191,6.462
	C40.392,68.743,40.487,68.592,40.593,68.451"/>
<path fill="#FFFFFF" d="M55.667,77.154l-11.19-6.462c-0.072,0.165-0.167,0.315-0.273,0.456l11.191,6.464
	C55.465,77.446,55.56,77.296,55.667,77.154"/>
<path fill="#FFFFFF" d="M27.059,45.925v12.937c0.089-0.011,0.174-0.026,0.266-0.026s0.178,0.016,0.266,0.026V45.925
	c-0.088,0.011-0.174,0.026-0.266,0.026S27.148,45.936,27.059,45.925"/>
<path fill="#FFFFFF" d="M40.593,51.044l-11.191-6.46c-0.071,0.165-0.166,0.314-0.272,0.456l11.19,6.462
	C40.392,51.337,40.487,51.187,40.593,51.044"/>
<path fill="#FFFFFF" d="M74.35,36.337l11.19,6.461c0.071-0.164,0.166-0.314,0.272-0.455l-11.19-6.463
	C74.552,36.046,74.457,36.197,74.35,36.337"/>
<path fill="#FFFFFF" d="M57.206,11.116v12.937c0.088-0.011,0.174-0.026,0.266-0.026s0.178,0.016,0.266,0.026V11.116
	c-0.088,0.01-0.174,0.026-0.266,0.026S57.293,11.125,57.206,11.116"/>
<path fill="#FFFFFF" d="M42.132,19.817v12.938c0.088-0.011,0.174-0.027,0.266-0.027s0.177,0.017,0.266,0.027V19.817
	c-0.089,0.012-0.174,0.027-0.266,0.027S42.22,19.829,42.132,19.817"/>
<path fill="#FFFFFF" d="M40.593,36.337c-0.105-0.141-0.201-0.292-0.272-0.457l-11.191,6.463c0.106,0.141,0.201,0.291,0.272,0.455
	L40.593,36.337z"/>
<path fill="#FFFFFF" d="M72.811,67.565V54.628c-0.088,0.011-0.174,0.026-0.266,0.026c-0.091,0-0.178-0.016-0.266-0.026v12.937
	c0.088-0.011,0.175-0.026,0.266-0.026C72.637,67.539,72.723,67.554,72.811,67.565"/>
<path fill="#FFFFFF" d="M74.35,51.044c0.107,0.143,0.202,0.293,0.272,0.458l11.19-6.462c-0.106-0.142-0.201-0.291-0.271-0.456
	L74.35,51.044z"/>
<path fill="#FFFFFF" d="M57.737,76.268V63.332c-0.088,0.011-0.174,0.026-0.266,0.026s-0.178-0.016-0.266-0.026v12.937
	c0.088-0.011,0.174-0.027,0.266-0.027S57.649,76.257,57.737,76.268"/>
<path fill="#FFFFFF" d="M42.664,67.565V54.628c-0.089,0.011-0.174,0.026-0.266,0.026s-0.178-0.016-0.266-0.026v12.937
	c0.088-0.011,0.174-0.026,0.266-0.026S42.575,67.554,42.664,67.565"/>
<polygon fill="#FFFFFF" points="26.439,100.233 28.792,100.233 28.792,100.532 26.791,100.532 26.791,102.175 28.481,102.175 
	28.481,102.474 26.791,102.474 26.791,104.498 26.439,104.498 "/>
<path fill="#FFFFFF" d="M29.469,103.375v-1.995h0.339v1.954c0,0.639,0.199,0.938,0.68,0.938c0.362,0,0.62-0.188,0.972-0.608v-2.283
	h0.338v3.118h-0.286l-0.028-0.514h-0.018c-0.305,0.351-0.621,0.591-1.053,0.591C29.761,104.575,29.469,104.177,29.469,103.375"/>
<path fill="#FFFFFF" d="M33.044,103.609v-1.942h-0.486v-0.258l0.497-0.029l0.041-0.902h0.287v0.902h0.896v0.287h-0.896v1.966
	c0,0.393,0.105,0.649,0.521,0.649c0.115,0,0.269-0.042,0.379-0.087l0.083,0.264c-0.181,0.062-0.38,0.116-0.521,0.116
	C33.231,104.575,33.044,104.188,33.044,103.609"/>
<path fill="#FFFFFF" d="M34.981,103.375v-1.995h0.338v1.954c0,0.639,0.199,0.938,0.681,0.938c0.361,0,0.62-0.188,0.972-0.608v-2.283
	h0.337v3.118h-0.285l-0.029-0.514h-0.018c-0.305,0.351-0.62,0.591-1.054,0.591C35.272,104.575,34.981,104.177,34.981,103.375"/>
<path fill="#FFFFFF" d="M38.479,101.379h0.281l0.041,0.579h0.011c0.211-0.393,0.522-0.66,0.885-0.66
	c0.121,0,0.217,0.017,0.315,0.069l-0.07,0.305c-0.105-0.041-0.164-0.052-0.287-0.052c-0.274,0-0.608,0.203-0.836,0.783v2.094h-0.34
	V101.379z"/>
<path fill="#FFFFFF" d="M40.323,102.943c0-1.013,0.661-1.645,1.369-1.645c0.755,0,1.206,0.538,1.206,1.449
	c0,0.088-0.008,0.172-0.02,0.247h-2.211c0.017,0.761,0.469,1.293,1.141,1.293c0.334,0,0.597-0.104,0.831-0.269l0.128,0.251
	c-0.251,0.158-0.543,0.305-0.994,0.305C40.971,104.575,40.323,103.966,40.323,102.943 M42.586,102.725
	c0-0.753-0.346-1.134-0.889-1.134c-0.51,0-0.967,0.42-1.03,1.134H42.586z"/>
<path fill="#FFFFFF" d="M44.792,102.362c0-1.362,0.754-2.205,1.838-2.205c0.502,0,0.896,0.246,1.122,0.515l-0.199,0.228
	c-0.228-0.257-0.532-0.427-0.923-0.427c-0.902,0-1.469,0.727-1.469,1.88c0,1.163,0.555,1.906,1.45,1.906
	c0.434,0,0.755-0.18,1.061-0.516l0.197,0.224c-0.328,0.38-0.727,0.608-1.275,0.608C45.541,104.575,44.792,103.727,44.792,102.362"/>
<path fill="#FFFFFF" d="M48.436,102.943c0-1.013,0.662-1.645,1.369-1.645c0.756,0,1.206,0.538,1.206,1.449
	c0,0.088-0.006,0.172-0.018,0.247h-2.211c0.016,0.761,0.467,1.293,1.139,1.293c0.335,0,0.598-0.104,0.831-0.269l0.129,0.251
	c-0.251,0.158-0.544,0.305-0.994,0.305C49.083,104.575,48.436,103.966,48.436,102.943 M50.701,102.725
	c0-0.753-0.346-1.134-0.89-1.134c-0.509,0-0.966,0.42-1.028,1.134H50.701z"/>
<path fill="#FFFFFF" d="M51.841,101.379h0.28l0.041,0.475h0.012c0.315-0.31,0.638-0.556,1.065-0.556
	c0.648,0,0.948,0.403,0.948,1.205v1.994h-0.34v-1.947c0-0.649-0.205-0.948-0.685-0.948c-0.362,0-0.62,0.187-0.983,0.562v2.334
	h-0.339V101.379z"/>
<path fill="#FFFFFF" d="M55.385,103.609v-1.942H54.9v-0.258l0.498-0.029l0.04-0.902h0.287v0.902h0.896v0.287h-0.896v1.966
	c0,0.393,0.106,0.649,0.521,0.649c0.116,0,0.269-0.042,0.379-0.087l0.083,0.264c-0.182,0.062-0.38,0.116-0.521,0.116
	C55.574,104.575,55.385,104.188,55.385,103.609"/>
<path fill="#FFFFFF" d="M57.112,102.943c0-1.013,0.662-1.645,1.369-1.645c0.755,0,1.205,0.538,1.205,1.449
	c0,0.088-0.006,0.172-0.017,0.247h-2.212c0.017,0.761,0.468,1.293,1.14,1.293c0.335,0,0.598-0.104,0.832-0.269l0.128,0.251
	c-0.252,0.158-0.543,0.305-0.994,0.305C57.761,104.575,57.112,103.966,57.112,102.943 M59.376,102.725
	c0-0.753-0.346-1.134-0.889-1.134c-0.511,0-0.967,0.42-1.03,1.134H59.376z"/>
<path fill="#FFFFFF" d="M60.517,101.379h0.28l0.04,0.579h0.014c0.21-0.393,0.521-0.66,0.883-0.66c0.122,0,0.217,0.017,0.315,0.069
	l-0.07,0.305c-0.104-0.041-0.164-0.052-0.286-0.052c-0.275,0-0.608,0.203-0.836,0.783v2.094h-0.34V101.379z"/>
<polygon fill="#FFFFFF" points="63.952,100.233 64.3,100.233 64.3,102.082 66.519,102.082 66.519,100.233 66.864,100.233 
	66.864,104.498 66.519,104.498 66.519,102.386 64.3,102.386 64.3,104.498 63.952,104.498 "/>
<path fill="#FFFFFF" d="M67.853,103.714c0-0.69,0.614-1.019,1.989-1.176c0.011-0.463-0.124-0.942-0.715-0.942
	c-0.409,0-0.766,0.193-0.981,0.356l-0.153-0.245c0.24-0.163,0.675-0.409,1.182-0.409c0.744,0,1.007,0.532,1.007,1.222v1.979h-0.287
	l-0.035-0.397h-0.012c-0.316,0.256-0.689,0.474-1.088,0.474C68.256,104.575,67.853,104.294,67.853,103.714 M69.842,103.802v-1.013
	c-1.229,0.141-1.65,0.427-1.65,0.908c0,0.427,0.292,0.59,0.638,0.59C69.174,104.288,69.473,104.125,69.842,103.802"/>
<polygon fill="#FFFFFF" points="71.269,99.846 71.609,99.846 71.609,103.215 71.621,103.215 73.112,101.379 73.499,101.379 
	72.48,102.615 73.663,104.498 73.288,104.498 72.282,102.861 71.609,103.657 71.609,104.498 71.269,104.498 "/>
<path fill="#FFFFFF" d="M74.059,102.942c0-1.041,0.655-1.645,1.409-1.645c0.755,0,1.411,0.604,1.411,1.645
	c0,1.036-0.656,1.633-1.411,1.633C74.714,104.575,74.059,103.978,74.059,102.942 M76.528,102.942c0-0.796-0.449-1.345-1.06-1.345
	c-0.607,0-1.053,0.549-1.053,1.345c0,0.795,0.445,1.34,1.053,1.34C76.079,104.282,76.528,103.737,76.528,102.942"/>
<path fill="#FFFFFF" d="M77.534,102.942c0-1.006,0.645-1.644,1.382-1.644c0.375,0,0.626,0.139,0.93,0.38l-0.023-0.562v-1.27h0.341
	v4.651H79.88l-0.041-0.393h-0.013c-0.251,0.253-0.596,0.47-0.999,0.47C78.043,104.575,77.534,103.99,77.534,102.942 M79.822,103.785
	v-1.802c-0.315-0.281-0.579-0.386-0.873-0.386c-0.596,0-1.052,0.578-1.052,1.345c0,0.809,0.357,1.334,0.989,1.334
	C79.219,104.276,79.511,104.105,79.822,103.785"/>
<path fill="#FFFFFF" d="M81.116,103.714c0-0.69,0.613-1.019,1.988-1.176c0.012-0.463-0.123-0.942-0.714-0.942
	c-0.41,0-0.768,0.193-0.983,0.356l-0.151-0.245c0.239-0.163,0.673-0.409,1.182-0.409c0.742,0,1.006,0.532,1.006,1.222v1.979h-0.286
	l-0.034-0.397H83.11c-0.316,0.256-0.69,0.474-1.089,0.474C81.518,104.575,81.116,104.294,81.116,103.714 M83.104,103.802v-1.013
	c-1.229,0.141-1.65,0.427-1.65,0.908c0,0.427,0.294,0.59,0.638,0.59C82.437,104.288,82.735,104.125,83.104,103.802"/>
<path fill="#FFFFFF" d="M84.607,103.609v-1.942h-0.485v-0.258l0.497-0.029l0.041-0.902h0.287v0.902h0.896v0.287h-0.896v1.966
	c0,0.393,0.105,0.649,0.521,0.649c0.116,0,0.269-0.042,0.38-0.087l0.08,0.264c-0.18,0.062-0.379,0.116-0.521,0.116
	C84.794,104.575,84.607,104.188,84.607,103.609"/>
<path fill="#FFFFFF" d="M86.333,102.943c0-1.013,0.662-1.645,1.369-1.645c0.756,0,1.206,0.538,1.206,1.449
	c0,0.088-0.006,0.172-0.018,0.247h-2.211c0.017,0.761,0.468,1.293,1.139,1.293c0.335,0,0.598-0.104,0.831-0.269l0.13,0.251
	c-0.252,0.158-0.544,0.305-0.994,0.305C86.982,104.575,86.333,103.966,86.333,102.943 M88.597,102.725
	c0-0.753-0.346-1.134-0.89-1.134c-0.509,0-0.965,0.42-1.028,1.134H88.597z"/>
<path fill="#FFFFFF" d="M17.5,86.869c-0.054,0.14-0.106,0.373-0.139,0.564c-0.245,1.138-0.542,3.085-0.542,4.34
	c0,0.693,0.042,1.202,0.127,1.894c0.182-0.542,0.479-1.329,0.67-1.797l0.33,0.255c-0.244,0.648-0.639,1.724-0.745,2.213
	c-0.032,0.139-0.053,0.318-0.042,0.457c0.01,0.096,0.021,0.234,0.032,0.32l-0.501,0.041c-0.202-0.766-0.373-1.893-0.373-3.317
	c0-1.522,0.362-3.545,0.502-4.448c0.03-0.223,0.053-0.426,0.053-0.584L17.5,86.869z M24.573,94.369
	c-0.562-0.531-1.147-0.979-1.787-1.286c0.012,0.148,0.012,0.297,0.012,0.425c0,0.724-0.319,1.596-1.693,1.596
	c-1.382,0-2.084-0.564-2.084-1.414c0-0.767,0.723-1.469,2.075-1.469c0.414,0,0.787,0.055,1.138,0.139
	c-0.042-0.904-0.106-2.116-0.116-3.021c-0.384,0.01-0.776,0.02-1.159,0.02c-0.597,0-1.119-0.03-1.725-0.073v-0.521
	c0.585,0.053,1.138,0.086,1.745,0.086c0.383,0,0.767-0.012,1.139-0.022c0-0.552,0-1.053,0.01-1.393c0-0.191-0.01-0.447-0.031-0.617
	h0.638c-0.031,0.213-0.054,0.404-0.063,0.606c-0.021,0.33-0.021,0.883-0.021,1.373c0.682-0.055,1.34-0.129,1.914-0.246v0.542
	c-0.617,0.097-1.255,0.17-1.914,0.214c0.011,1.042,0.085,2.235,0.128,3.224c0.84,0.329,1.511,0.872,2.095,1.383L24.573,94.369z
	 M22.254,92.879c-0.383-0.127-0.787-0.19-1.213-0.19c-0.894,0-1.512,0.415-1.512,0.957c0,0.585,0.554,0.947,1.438,0.947
	c1.021,0,1.298-0.502,1.298-1.255C22.265,93.209,22.265,93.061,22.254,92.879"/>
<path fill="#FFFFFF" d="M28.36,91.732c-0.149,0.446-0.235,0.86-0.235,1.266c0,0.871,0.904,1.467,2.681,1.467
	c1.479,0,2.841-0.158,3.555-0.403l0.01,0.575c-0.659,0.202-2.042,0.372-3.554,0.372c-1.978,0-3.243-0.648-3.243-1.895
	c0-0.521,0.106-0.999,0.223-1.446L28.36,91.732z M28.189,87.603c0.756,0.096,1.712,0.139,2.733,0.139
	c1.001,0,1.99-0.075,2.714-0.149v0.553c-0.691,0.053-1.755,0.129-2.714,0.129c-1.021,0-1.914-0.043-2.733-0.118V87.603z"/>
<path fill="#FFFFFF" d="M42.219,88.709c-0.724,0.16-1.511,0.286-2.267,0.361c-0.095,0.47-0.213,0.958-0.34,1.427
	c-0.383,1.51-1.096,3.703-1.638,4.797l-0.629-0.2c0.638-1.106,1.341-3.204,1.735-4.704c0.105-0.382,0.212-0.829,0.309-1.265
	c-0.405,0.031-0.788,0.053-1.128,0.053c-0.437,0-0.798-0.011-1.191-0.043l-0.013-0.553c0.458,0.062,0.862,0.073,1.226,0.073
	c0.361,0,0.775-0.021,1.223-0.052c0.096-0.47,0.17-0.873,0.202-1.107c0.031-0.234,0.054-0.542,0.031-0.744l0.681,0.052
	c-0.053,0.203-0.127,0.543-0.159,0.735c-0.063,0.297-0.127,0.639-0.202,1c0.724-0.086,1.49-0.213,2.16-0.395V88.709z M41.676,92.529
	c-0.105,0.372-0.159,0.701-0.159,0.989c0,0.522,0.224,1.075,1.937,1.075c0.681,0,1.404-0.074,1.989-0.203l-0.021,0.575
	c-0.554,0.086-1.256,0.149-1.979,0.149c-1.596,0-2.447-0.468-2.447-1.489c0-0.352,0.053-0.682,0.149-1.149L41.676,92.529z
	 M41.623,90.018c0.522-0.053,1.192-0.085,1.863-0.085c0.617,0,1.266,0.022,1.808,0.085l-0.021,0.542
	c-0.542-0.073-1.148-0.126-1.755-0.126c-0.616,0-1.256,0.042-1.895,0.116V90.018z M44.655,88.773
	c-0.212-0.437-0.595-1.086-0.882-1.479l0.404-0.18c0.266,0.371,0.658,1.009,0.883,1.455L44.655,88.773z M45.293,86.708
	c0.299,0.395,0.713,1.044,0.926,1.459l-0.415,0.19c-0.244-0.479-0.595-1.063-0.903-1.469L45.293,86.708z"/>
<path fill="#FFFFFF" d="M48.75,87.932c0.574-0.063,2.714-0.286,4.649-0.446c1.19-0.105,2.073-0.159,2.755-0.181v0.553
	c-0.617-0.01-1.552,0.011-2.073,0.182c-1.64,0.574-2.521,2.309-2.521,3.554c0,2.244,2.095,2.904,3.766,2.956l-0.191,0.554
	c-1.799-0.042-4.106-0.989-4.106-3.394c0-1.714,1.074-3.127,2.19-3.724c-0.936,0.106-4.191,0.403-5.287,0.628l-0.063-0.628
	C48.26,87.976,48.537,87.955,48.75,87.932"/>
<path fill="#FFFFFF" d="M67.195,93.008c-0.351-0.299-0.766-0.607-1.232-0.894c-0.405,1.479-1.224,2.511-2.821,3.298l-0.456-0.384
	c1.702-0.702,2.468-1.904,2.809-3.18c-0.958-0.521-2.097-0.928-3.31-0.99c-0.404,0.926-0.968,2.266-1.394,2.861
	c-0.351,0.48-0.702,0.628-1.147,0.628c-0.704,0-1.236-0.531-1.236-1.299c0-1.521,1.427-2.68,3.459-2.701
	c0.426-0.926,0.861-1.927,1.233-2.672c-0.426,0.022-1.904,0.096-2.393,0.118c-0.246,0.021-0.502,0.042-0.734,0.073l-0.033-0.605
	c0.256,0.022,0.521,0.022,0.734,0.022c0.532,0,2.064-0.086,2.489-0.117c0.149-0.013,0.288-0.043,0.394-0.086l0.362,0.299
	c-0.074,0.095-0.159,0.17-0.234,0.307c-0.309,0.469-0.809,1.661-1.277,2.683c1.183,0.085,2.289,0.479,3.214,0.947
	c0.064-0.352,0.107-0.703,0.129-1.043c0.01-0.213,0.021-0.531,0.01-0.862l0.564,0.064c-0.043,0.776-0.107,1.468-0.235,2.084
	c0.532,0.299,0.99,0.606,1.352,0.872L67.195,93.008z M61.621,90.848c-1.725,0.085-2.702,1.106-2.702,2.149
	c0,0.521,0.352,0.808,0.725,0.808c0.266,0,0.445-0.074,0.691-0.372C60.759,92.891,61.206,91.742,61.621,90.848"/>
<path fill="#FFFFFF" d="M70.853,91.732c1.053-0.99,2.256-1.427,3.597-1.427c1.479,0,2.564,0.884,2.564,2.096
	c0,1.863-1.767,3.022-5.405,2.724l-0.161-0.563c3.417,0.383,5.002-0.682,5.002-2.181c0-0.926-0.851-1.574-2.022-1.574
	c-1.521,0-2.659,0.552-3.446,1.489c-0.128,0.159-0.212,0.341-0.267,0.478l-0.562-0.127c0.213-0.914,0.488-3.212,0.542-4.192
	l0.606,0.075C71.162,89.317,70.981,91.007,70.853,91.732 M71.694,86.72c0.851,0.276,3.064,0.723,4,0.82l-0.138,0.531
	c-0.96-0.129-3.214-0.586-4.001-0.81L71.694,86.72z"/>
<path fill="#FFFFFF" d="M80.862,88.464c-0.022,0.639,0,1.713,0.085,2.64c0.191,1.914,0.8,3.138,1.607,3.138
	c0.564,0,1.096-0.988,1.414-2.181l0.447,0.458c-0.606,1.754-1.234,2.35-1.872,2.35c-0.904,0-1.83-0.978-2.129-3.647
	c-0.095-0.874-0.106-2.182-0.106-2.777c0-0.224-0.011-0.66-0.053-0.863l0.67,0.022C80.905,87.784,80.873,88.209,80.862,88.464
	 M88.363,92.955l-0.553,0.224c-0.191-2.011-0.885-3.873-1.798-5.064l0.531-0.191C87.447,89.156,88.171,91.082,88.363,92.955"/>
<path fill="#FFFFFF" d="M93.797,88.327c-0.33-0.511-0.979-1.298-1.597-1.84c-0.457,0.798-1.182,1.861-2.212,2.69
	c-0.075-0.096-0.234-0.245-0.352-0.308c1.073-0.83,1.819-1.968,2.223-2.83h0.544c0.659,0.573,1.415,1.383,1.755,1.926L93.797,88.327
	z M92.786,92.657c0.597,0.733,1.192,1.714,1.416,2.362l-0.437,0.223c-0.096-0.276-0.255-0.617-0.457-0.979
	c-1.16,0.33-2.362,0.681-3.267,0.926L89.85,94.69c0.234-0.054,0.5-0.107,0.787-0.183v-5.724h1.383v-1.074h0.457v1.074h1.256v3.32
	h-2.628v2.286c0.617-0.159,1.286-0.339,1.968-0.521c-0.213-0.35-0.457-0.701-0.702-1L92.786,92.657z M91.105,90.231h2.15v-1.021
	h-2.15V90.231z M93.254,90.635h-2.15v1.043h2.15V90.635z M99.436,87.209v1.681h-0.491v-1.224h-4.179v1.224h-0.469v-1.681h2.245
	v-1.18h0.499v1.18H99.436z M95.446,92.411h3.725v3.172h-0.491v-0.489h-3.233v0.575h-0.489V88.87h3.767v2.511h-3.277V92.411z
	 M95.446,90.923h2.798v-1.596h-2.798V90.923z M95.446,94.625h3.234v-1.756h-3.234V94.625z"/>
</svg>
