<?xml version="1.0" encoding="utf-8"?>
<!-- Generator: Adobe Illustrator 16.0.4, SVG Export Plug-In . SVG Version: 6.00 Build 0)  -->
<!DOCTYPE svg PUBLIC "-//W3C//DTD SVG 1.1//EN" "http://www.w3.org/Graphics/SVG/1.1/DTD/svg11.dtd">
<svg version="1.1" xmlns="http://www.w3.org/2000/svg" xmlns:xlink="http://www.w3.org/1999/xlink" x="0px" y="0px" width="405px"
	 height="27.476px" viewBox="0 0 405 27.476" enable-background="new 0 0 405 27.476" xml:space="preserve">
<g id="backcolor">
</g>
<g id="graphic">
	<g id="はこだてみらいプロジェクト">
	</g>
	<g id="トップ比較">
		<g>
			<g>
				<path fill="#FFFFFF" d="M3.538,1.968C3.379,2.382,3.22,3.083,3.125,3.653c-0.734,3.398-1.628,9.211-1.628,12.958
					c0,2.064,0.129,3.589,0.383,5.654c0.542-1.619,1.433-3.971,2.01-5.368l0.986,0.762c-0.733,1.939-1.912,5.144-2.23,6.607
					c-0.095,0.413-0.159,0.953-0.129,1.365c0.034,0.288,0.064,0.699,0.098,0.953l-1.5,0.128C0.51,24.425,0,21.059,0,16.803
					C0,12.26,1.085,6.226,1.497,3.524c0.098-0.665,0.162-1.268,0.162-1.745L3.538,1.968z M24.738,24.361
					c-1.688-1.586-3.441-2.921-5.355-3.842c0.031,0.444,0.031,0.89,0.031,1.27c0,2.16-0.952,4.765-5.069,4.765
					c-4.143,0-6.247-1.684-6.247-4.227c0-2.285,2.166-4.382,6.216-4.382c1.242,0,2.359,0.158,3.411,0.412
					c-0.128-2.698-0.319-6.319-0.351-9.02c-1.149,0.032-2.328,0.063-3.475,0.063c-1.786,0-3.349-0.094-5.164-0.22V7.624
					c1.751,0.16,3.412,0.254,5.227,0.254c1.147,0,2.294-0.029,3.412-0.064c0-1.649,0-3.144,0.032-4.16
					c0-0.57-0.032-1.334-0.095-1.841h1.911c-0.093,0.634-0.158,1.206-0.188,1.809C18.97,4.606,18.97,6.258,18.97,7.72
					c2.039-0.161,4.017-0.382,5.736-0.732V8.61c-1.848,0.283-3.759,0.507-5.736,0.634c0.033,3.113,0.253,6.669,0.382,9.623
					c2.518,0.985,4.526,2.605,6.28,4.13L24.738,24.361z M17.791,19.915c-1.15-0.382-2.361-0.572-3.636-0.572
					c-2.677,0-4.526,1.239-4.526,2.859c0,1.746,1.657,2.826,4.303,2.826c3.063,0,3.891-1.493,3.891-3.749
					C17.823,20.896,17.823,20.456,17.791,19.915"/>
				<path fill="#FFFFFF" d="M36.089,16.484c-0.445,1.335-0.703,2.574-0.703,3.78c0,2.604,2.712,4.383,8.035,4.383
					c4.433,0,8.512-0.475,10.648-1.207l0.032,1.716c-1.978,0.601-6.125,1.111-10.651,1.111c-5.93,0-9.721-1.937-9.721-5.653
					c0-1.556,0.318-2.986,0.669-4.32L36.089,16.484z M35.579,4.162c2.263,0.285,5.133,0.412,8.194,0.412
					c2.997,0,5.961-0.221,8.127-0.444v1.653c-2.07,0.157-5.259,0.381-8.127,0.381c-3.061,0-5.74-0.128-8.194-0.35V4.162z"/>
				<path fill="#FFFFFF" d="M77.628,7.464c-2.169,0.476-4.528,0.857-6.793,1.081c-0.284,1.396-0.636,2.857-1.018,4.255
					c-1.149,4.509-3.284,11.053-4.911,14.324l-1.879-0.602c1.912-3.305,4.017-9.561,5.197-14.04
					c0.316-1.143,0.638-2.478,0.924-3.779c-1.211,0.093-2.358,0.159-3.38,0.159c-1.306,0-2.392-0.033-3.569-0.128l-0.032-1.651
					c1.372,0.192,2.583,0.223,3.666,0.223c1.083,0,2.327-0.063,3.666-0.159c0.288-1.397,0.512-2.605,0.608-3.304
					C70.2,3.146,70.263,2.225,70.2,1.621l2.04,0.16c-0.159,0.602-0.382,1.618-0.478,2.189c-0.192,0.889-0.383,1.907-0.605,2.985
					c2.167-0.253,4.464-0.635,6.472-1.173V7.464z M76.003,18.867c-0.32,1.114-0.479,2.097-0.479,2.951
					c0,1.558,0.669,3.21,5.801,3.21c2.041,0,4.21-0.223,5.961-0.603l-0.061,1.717c-1.658,0.251-3.763,0.443-5.933,0.443
					c-4.779,0-7.33-1.397-7.33-4.445c0-1.049,0.157-2.032,0.446-3.435L76.003,18.867z M75.842,11.371
					c1.563-0.158,3.57-0.253,5.579-0.253c1.849,0,3.795,0.063,5.42,0.253l-0.063,1.621c-1.626-0.222-3.443-0.383-5.261-0.383
					c-1.847,0-3.761,0.128-5.674,0.351V11.371z M84.928,7.655c-0.637-1.302-1.785-3.238-2.645-4.415l1.21-0.541
					c0.798,1.113,1.978,3.019,2.648,4.352L84.928,7.655z M86.841,1.494c0.894,1.177,2.136,3.113,2.774,4.353l-1.243,0.567
					c-0.735-1.427-1.786-3.173-2.712-4.379L86.841,1.494z"/>
				<path fill="#FFFFFF" d="M97.201,5.145c1.722-0.189,8.132-0.855,13.931-1.334c3.573-0.315,6.218-0.476,8.258-0.537v1.65
					c-1.849-0.032-4.655,0.032-6.217,0.54c-4.91,1.715-7.555,6.893-7.555,10.607c0,6.704,6.281,8.672,11.284,8.831l-0.573,1.653
					c-5.388-0.129-12.306-2.955-12.306-10.132c0-5.115,3.223-9.34,6.569-11.117C107.786,5.623,98.031,6.51,94.75,7.179l-0.193-1.874
					C95.736,5.273,96.563,5.208,97.201,5.145"/>
				<path fill="#FFFFFF" d="M152.481,20.294c-1.053-0.886-2.296-1.809-3.697-2.667c-1.211,4.415-3.668,7.498-8.45,9.849
					l-1.371-1.145c5.104-2.098,7.398-5.686,8.418-9.498c-2.869-1.557-6.281-2.762-9.915-2.952c-1.212,2.762-2.9,6.764-4.177,8.542
					c-1.052,1.429-2.101,1.874-3.444,1.874c-2.105,0-3.695-1.588-3.695-3.875c0-4.542,4.271-8.002,10.359-8.068
					c1.276-2.761,2.583-5.749,3.697-7.972c-1.275,0.063-5.703,0.285-7.172,0.352c-0.733,0.062-1.498,0.125-2.2,0.221l-0.096-1.811
					c0.766,0.064,1.562,0.064,2.202,0.064c1.592,0,6.182-0.256,7.459-0.35c0.447-0.032,0.861-0.125,1.181-0.254l1.081,0.891
					c-0.221,0.285-0.478,0.508-0.701,0.922c-0.923,1.395-2.422,4.952-3.825,8.004c3.537,0.252,6.854,1.428,9.629,2.824
					c0.191-1.047,0.319-2.095,0.382-3.112c0.031-0.635,0.062-1.588,0.031-2.574l1.691,0.191c-0.129,2.32-0.318,4.383-0.702,6.227
					c1.591,0.888,2.963,1.808,4.047,2.604L152.481,20.294z M135.776,13.849c-5.166,0.254-8.098,3.303-8.098,6.415
					c0,1.556,1.052,2.415,2.167,2.415c0.799,0,1.343-0.223,2.073-1.112C133.193,19.947,134.533,16.518,135.776,13.849"/>
				<path fill="#FFFFFF" d="M163.446,16.485c3.158-2.954,6.762-4.256,10.776-4.256c4.432,0,7.682,2.635,7.682,6.257
					c0,5.556-5.291,9.019-16.192,8.13l-0.48-1.684c10.233,1.142,14.986-2.033,14.986-6.51c0-2.764-2.55-4.702-6.057-4.702
					c-4.561,0-7.97,1.651-10.333,4.446c-0.382,0.479-0.636,1.017-0.794,1.431l-1.69-0.382c0.634-2.731,1.464-9.591,1.625-12.514
					l1.817,0.221C164.372,9.276,163.829,14.325,163.446,16.485 M165.965,1.525c2.551,0.827,9.18,2.16,11.986,2.445l-0.414,1.59
					c-2.867-0.383-9.627-1.75-11.986-2.413L165.965,1.525z"/>
				<path fill="#FFFFFF" d="M193.444,6.734c-0.062,1.905,0,5.115,0.256,7.876c0.575,5.717,2.392,9.372,4.816,9.372
					c1.689,0,3.281-2.956,4.239-6.514l1.339,1.368c-1.817,5.238-3.7,7.018-5.609,7.018c-2.712,0-5.487-2.921-6.377-10.893
					c-0.287-2.605-0.319-6.512-0.319-8.29c0-0.669-0.033-1.97-0.16-2.573l2.009,0.062C193.572,4.702,193.476,5.972,193.444,6.734
					 M215.921,20.137l-1.657,0.667c-0.573-6.003-2.644-11.561-5.389-15.119l1.596-0.57C213.181,8.799,215.35,14.547,215.921,20.137"
					/>
				<path fill="#FFFFFF" d="M243.149,4.669h0.604c-0.157-0.379-0.219-0.794-0.219-1.239c0-1.905,1.495-3.43,3.41-3.43
					c1.879,0,3.438,1.525,3.438,3.43c0,1.876-1.559,3.4-3.438,3.4c-0.607,0-1.151-0.159-1.628-0.415l-0.032,0.127
					c-0.668,3.493-2.294,8.703-4.718,11.817c-2.932,3.684-6.472,6.478-12.401,8.319l-1.406-1.523
					c6.095-1.587,9.663-4.255,12.405-7.783c2.328-3.017,3.987-7.908,4.434-11.147h-17.183c-1.151,0-1.977,0.032-2.808,0.096V4.48
					c0.831,0.094,1.786,0.189,2.839,0.189H243.149z M249.206,3.43c0-1.236-1.021-2.285-2.263-2.285
					c-1.245,0-2.264,1.049-2.264,2.285c0,1.239,1.02,2.224,2.264,2.224C248.186,5.654,249.206,4.669,249.206,3.43"/>
				<path fill="#FFFFFF" d="M277.833,22.457c0,0.889,0.03,3.017,0.061,3.494h-1.783c0.032-0.318,0.032-1.08,0.065-1.875h-18.62
					c0.034,0.731,0.034,1.524,0.066,1.875h-1.754c0.03-0.542,0.064-2.605,0.064-3.462V6.734c0-0.602,0-1.397-0.034-2.095
					c1.215,0.063,1.853,0.063,2.555,0.063h16.833c0.635,0,1.751,0,2.609-0.063c-0.061,0.697-0.061,1.428-0.061,2.095V22.457z
					 M257.556,22.521h18.62V6.29h-18.62V22.521z"/>
				<path fill="#FFFFFF" d="M293.899,13.532l-0.925,1.428c-1.433-1.047-4.976-3.302-6.791-4.223l0.895-1.366
					C288.832,10.292,292.688,12.643,293.899,13.532 M298.304,21.313c5.226-3.017,9.269-7.052,11.887-11.499l0.992,1.621
					c-2.649,4.192-6.988,8.352-12.022,11.307c-3.19,1.904-7.49,3.302-10.518,3.97l-0.959-1.651
					C291.157,24.456,295.208,23.091,298.304,21.313 M298.559,6.734L297.564,8.1c-1.366-1.112-4.939-3.494-6.662-4.478l0.926-1.366
					C293.58,3.272,297.34,5.813,298.559,6.734 M308.338,7.624l-1.275,0.603c-0.7-1.492-2.004-3.716-2.962-5.017l1.213-0.572
					C306.078,3.717,307.573,6.067,308.338,7.624 M312.455,6.067l-1.271,0.604c-0.738-1.494-2.042-3.653-3.065-4.955l1.214-0.571
					C310.125,2.162,311.657,4.542,312.455,6.067"/>
				<path fill="#FFFFFF" d="M339.454,24.139c0.702,0,1.373-0.034,1.977-0.097v1.748c-0.638-0.033-1.499-0.062-1.977-0.062h-17.628
					c-0.638,0-1.371,0.029-2.103,0.062v-1.748c0.699,0.062,1.433,0.097,2.103,0.097h7.871V11.623h-6.437
					c-0.378,0-1.336,0-2.006,0.065v-1.682c0.67,0.063,1.595,0.093,2.006,0.093h14.729c0.798,0,1.531-0.064,2.109-0.093v1.682
					c-0.607-0.065-1.402-0.065-2.109-0.065h-6.692v12.516H339.454z"/>
				<path fill="#FFFFFF" d="M373.761,6.002c-0.194,0.352-0.446,1.018-0.544,1.368c-0.859,3.396-2.902,7.716-5.706,11.147
					c-2.807,3.432-6.63,6.319-12.596,8.449l-1.435-1.366c5.456-1.555,9.691-4.478,12.656-8.004c2.652-3.175,4.69-7.465,5.423-10.673
					h-11.83c-1.816,2.637-4.431,5.528-8.097,7.909l-1.432-1.047c5.45-3.176,8.801-8.131,10.07-11.021
					c0.228-0.445,0.61-1.397,0.736-2.063l1.911,0.666c-0.38,0.634-0.797,1.493-1.083,2.032c-0.318,0.635-0.707,1.336-1.149,2.033
					h9.982c0.765,0,1.276-0.062,1.656-0.254L373.761,6.002z"/>
				<path fill="#FFFFFF" d="M404.297,17.247c-3.54-1.937-9.564-4.225-13.103-5.304l0.033,11.339c0,1.079,0.032,2.476,0.162,3.366
					h-1.978c0.128-0.857,0.161-2.223,0.161-3.366V4.702c0-0.762-0.065-2.097-0.193-3.017h2.01c-0.096,0.89-0.194,2.254-0.194,3.017
					v5.493c4.178,1.271,10.143,3.559,13.806,5.368L404.297,17.247z"/>
			</g>
		</g>
	</g>
</g>
<g id="header">
</g>
<g id="footer">
</g>
<g id="hover" display="none">
</g>
<g id="補足">
</g>
<g id="レイヤー_9">
</g>
</svg>
