<?xml version="1.0" encoding="utf-8"?>
<!-- Generator: Adobe Illustrator 16.0.4, SVG Export Plug-In . SVG Version: 6.00 Build 0)  -->
<!DOCTYPE svg PUBLIC "-//W3C//DTD SVG 1.1//EN" "http://www.w3.org/Graphics/SVG/1.1/DTD/svg11.dtd">
<svg version="1.1" id="レイヤー_1" xmlns="http://www.w3.org/2000/svg" xmlns:xlink="http://www.w3.org/1999/xlink" x="0px"
	 y="0px" width="268.276px" height="69.707px" viewBox="0 0 268.276 69.707" enable-background="new 0 0 268.276 69.707"
	 xml:space="preserve">
<path fill="#8FC31F" d="M4.251,18.489c0,1.174-0.951,2.127-2.125,2.127s-2.127-0.953-2.127-2.127s0.953-2.125,2.127-2.125
	S4.251,17.315,4.251,18.489"/>
<path fill="#8FC31F" d="M18.423,10.308c0,1.174-0.952,2.127-2.126,2.127c-1.175,0-2.126-0.953-2.126-2.127s0.951-2.125,2.126-2.125
	C17.471,8.183,18.423,9.134,18.423,10.308"/>
<path fill="#8FC31F" d="M32.594,2.126c0,1.175-0.952,2.127-2.126,2.127s-2.126-0.952-2.126-2.127c0-1.174,0.952-2.125,2.126-2.125
	S32.594,0.952,32.594,2.126"/>
<path fill="#8FC31F" d="M32.594,18.49c0,1.174-0.952,2.126-2.126,2.126s-2.126-0.952-2.126-2.126c0-1.175,0.952-2.126,2.126-2.126
	S32.594,17.315,32.594,18.49"/>
<path fill="#8FC31F" d="M32.594,34.854c0,1.174-0.952,2.126-2.126,2.126s-2.126-0.952-2.126-2.126s0.952-2.126,2.126-2.126
	S32.594,33.68,32.594,34.854"/>
<path fill="#8FC31F" d="M32.594,51.217c0,1.175-0.952,2.126-2.126,2.126s-2.126-0.951-2.126-2.126c0-1.174,0.952-2.126,2.126-2.126
	S32.594,50.043,32.594,51.217"/>
<path fill="#8FC31F" d="M32.594,67.581c0,1.174-0.952,2.125-2.126,2.125s-2.126-0.951-2.126-2.125s0.952-2.127,2.126-2.127
	S32.594,66.407,32.594,67.581"/>
<path fill="#8FC31F" d="M18.423,26.671c0,1.175-0.952,2.127-2.126,2.127c-1.175,0-2.126-0.952-2.126-2.127
	c0-1.174,0.951-2.125,2.126-2.125C17.471,24.546,18.423,25.497,18.423,26.671"/>
<path fill="#8FC31F" d="M18.423,43.035c0,1.174-0.952,2.126-2.126,2.126c-1.175,0-2.126-0.952-2.126-2.126s0.951-2.126,2.126-2.126
	C17.471,40.909,18.423,41.861,18.423,43.035"/>
<path fill="#8FC31F" d="M18.423,59.398c0,1.174-0.952,2.126-2.126,2.126c-1.175,0-2.126-0.952-2.126-2.126s0.951-2.126,2.126-2.126
	C17.471,57.272,18.423,58.225,18.423,59.398"/>
<path fill="#8FC31F" d="M46.765,10.308c0,1.174-0.952,2.127-2.126,2.127s-2.126-0.953-2.126-2.127s0.952-2.125,2.126-2.125
	S46.765,9.134,46.765,10.308"/>
<path fill="#8FC31F" d="M46.765,26.671c0,1.175-0.952,2.127-2.126,2.127s-2.126-0.952-2.126-2.127c0-1.174,0.952-2.125,2.126-2.125
	S46.765,25.497,46.765,26.671"/>
<path fill="#8FC31F" d="M46.765,43.035c0,1.174-0.952,2.126-2.126,2.126s-2.126-0.952-2.126-2.126s0.952-2.126,2.126-2.126
	S46.765,41.861,46.765,43.035"/>
<path fill="#8FC31F" d="M46.765,59.398c0,1.174-0.952,2.126-2.126,2.126s-2.126-0.952-2.126-2.126s0.952-2.126,2.126-2.126
	S46.765,58.225,46.765,59.398"/>
<path fill="#8FC31F" d="M4.251,34.853c0,1.175-0.951,2.127-2.125,2.127s-2.127-0.952-2.127-2.127c0-1.174,0.953-2.125,2.127-2.125
	S4.251,33.679,4.251,34.853"/>
<path fill="#8FC31F" d="M4.251,51.217c0,1.174-0.951,2.126-2.125,2.126s-2.127-0.952-2.127-2.126c0-1.175,0.953-2.126,2.127-2.126
	S4.251,50.042,4.251,51.217"/>
<path fill="#8FC31F" d="M60.936,18.489c0,1.174-0.952,2.127-2.126,2.127s-2.126-0.953-2.126-2.127s0.952-2.125,2.126-2.125
	S60.936,17.315,60.936,18.489"/>
<path fill="#8FC31F" d="M60.936,34.853c0,1.175-0.952,2.127-2.126,2.127s-2.126-0.952-2.126-2.127c0-1.174,0.952-2.125,2.126-2.125
	S60.936,33.679,60.936,34.853"/>
<path fill="#8FC31F" d="M60.936,51.217c0,1.174-0.952,2.126-2.126,2.126s-2.126-0.952-2.126-2.126c0-1.175,0.952-2.126,2.126-2.126
	S60.936,50.042,60.936,51.217"/>
<polygon fill="#8FC31F" points="76.972,42.679 77.614,42.679 77.614,46.915 77.636,46.915 81.293,42.679 82.054,42.679 
	79.571,45.577 82.406,50.477 81.668,50.477 79.144,46.079 77.614,47.846 77.614,50.477 76.972,50.477 "/>
<path fill="#8FC31F" d="M83.37,42.946c0-0.322,0.235-0.514,0.524-0.514c0.278,0,0.524,0.191,0.524,0.514
	c0,0.289-0.246,0.491-0.524,0.491C83.605,43.438,83.37,43.235,83.37,42.946 M83.573,44.774h0.621v5.701h-0.621V44.774z"/>
<path fill="#8FC31F" d="M85.854,47.631c0-1.84,1.177-3.006,2.524-3.006c0.685,0,1.145,0.257,1.701,0.694l-0.043-1.025v-2.322h0.621
	v8.504h-0.515l-0.075-0.717h-0.021c-0.459,0.46-1.09,0.856-1.828,0.856C86.784,50.615,85.854,49.546,85.854,47.631 M90.036,49.171
	v-3.294c-0.578-0.515-1.06-0.706-1.595-0.706c-1.091,0-1.925,1.059-1.925,2.46c0,1.476,0.652,2.438,1.809,2.438
	C88.934,50.069,89.469,49.759,90.036,49.171"/>
<path fill="#8FC31F" d="M92.103,49.834l0.332-0.448c0.49,0.416,1.016,0.717,1.796,0.717c0.867,0,1.306-0.493,1.306-1.082
	c0-0.674-0.717-0.983-1.38-1.219c-0.846-0.3-1.786-0.652-1.786-1.636c0-0.835,0.674-1.541,1.871-1.541
	c0.621,0,1.23,0.269,1.658,0.61l-0.32,0.428c-0.386-0.289-0.803-0.514-1.358-0.514c-0.845,0-1.23,0.471-1.23,0.984
	c0,0.631,0.663,0.866,1.326,1.112c0.877,0.331,1.84,0.642,1.84,1.743c0,0.877-0.696,1.626-1.958,1.626
	C93.364,50.615,92.615,50.263,92.103,49.834"/>
<path fill="#8FC31F" d="M100.073,42.679h2.021c1.766,0,2.846,0.577,2.846,2.193c0,1.561-1.07,2.31-2.803,2.31h-1.422v3.295h-0.643
	V42.679z M102.009,46.646c1.541,0,2.278-0.524,2.278-1.774c0-1.264-0.771-1.659-2.321-1.659h-1.25v3.434H102.009z"/>
<path fill="#8FC31F" d="M106.558,49.631v-7.659h0.62v7.723c0,0.269,0.106,0.386,0.257,0.386c0.043,0,0.085,0,0.203-0.021
	l0.096,0.491c-0.107,0.032-0.214,0.064-0.417,0.064C106.804,50.615,106.558,50.294,106.558,49.631"/>
<path fill="#8FC31F" d="M109.019,49.042c0-1.262,1.123-1.859,3.637-2.149c0.021-0.845-0.225-1.722-1.305-1.722
	c-0.75,0-1.401,0.353-1.797,0.652l-0.278-0.449c0.438-0.3,1.229-0.748,2.161-0.748c1.357,0,1.84,0.973,1.84,2.234v3.616h-0.525
	l-0.064-0.728h-0.021c-0.577,0.471-1.262,0.866-1.989,0.866C109.757,50.615,109.019,50.102,109.019,49.042 M112.655,49.203v-1.851
	c-2.246,0.257-3.016,0.781-3.016,1.658c0,0.781,0.535,1.08,1.164,1.08C111.437,50.091,111.981,49.792,112.655,49.203"/>
<polygon fill="#8FC31F" points="114.54,50.145 117.824,45.299 114.894,45.299 114.894,44.774 118.626,44.774 118.626,45.106 
	115.342,49.94 118.733,49.94 118.733,50.477 114.54,50.477 "/>
<path fill="#8FC31F" d="M119.718,49.042c0-1.262,1.123-1.859,3.638-2.149c0.021-0.845-0.226-1.722-1.306-1.722
	c-0.748,0-1.4,0.353-1.797,0.652l-0.277-0.449c0.439-0.3,1.23-0.748,2.16-0.748c1.358,0,1.841,0.973,1.841,2.234v3.616h-0.525
	l-0.063-0.728h-0.021c-0.578,0.471-1.262,0.866-1.99,0.866C120.458,50.615,119.718,50.102,119.718,49.042 M123.355,49.203v-1.851
	c-2.246,0.257-3.017,0.781-3.017,1.658c0,0.781,0.535,1.08,1.166,1.08S122.681,49.792,123.355,49.203"/>
<polygon fill="#8FC31F" points="128.407,42.679 129.049,42.679 129.049,46.059 133.103,46.059 133.103,42.679 133.733,42.679 
	133.733,50.477 133.103,50.477 133.103,46.615 129.049,46.615 129.049,50.477 128.407,50.477 "/>
<path fill="#8FC31F" d="M135.543,49.042c0-1.262,1.123-1.859,3.638-2.149c0.021-0.845-0.226-1.722-1.306-1.722
	c-0.749,0-1.401,0.353-1.797,0.652l-0.278-0.449c0.439-0.3,1.23-0.748,2.161-0.748c1.358,0,1.841,0.973,1.841,2.234v3.616h-0.525
	l-0.064-0.728h-0.021c-0.577,0.471-1.262,0.866-1.989,0.866C136.282,50.615,135.543,50.102,135.543,49.042 M139.181,49.203v-1.851
	c-2.246,0.257-3.017,0.781-3.017,1.658c0,0.781,0.535,1.08,1.165,1.08C137.961,50.091,138.506,49.792,139.181,49.203"/>
<polygon fill="#8FC31F" points="141.792,41.972 142.413,41.972 142.413,48.134 142.435,48.134 145.161,44.775 145.867,44.775 
	144.007,47.032 146.167,50.477 145.482,50.477 143.643,47.481 142.413,48.936 142.413,50.477 141.792,50.477 "/>
<path fill="#8FC31F" d="M146.896,47.631c0-1.903,1.199-3.006,2.578-3.006c1.381,0,2.578,1.103,2.578,3.006
	c0,1.894-1.197,2.984-2.578,2.984C148.095,50.615,146.896,49.524,146.896,47.631 M151.41,47.631c0-1.455-0.824-2.46-1.937-2.46
	c-1.111,0-1.924,1.005-1.924,2.46s0.812,2.449,1.924,2.449C150.586,50.08,151.41,49.086,151.41,47.631"/>
<path fill="#8FC31F" d="M153.253,47.631c0-1.84,1.176-3.006,2.523-3.006c0.686,0,1.145,0.257,1.701,0.694l-0.043-1.025v-2.322h0.621
	v8.504h-0.514l-0.076-0.717h-0.021c-0.46,0.46-1.091,0.856-1.829,0.856C154.184,50.615,153.253,49.546,153.253,47.631
	 M157.435,49.171v-3.294c-0.578-0.515-1.059-0.706-1.594-0.706c-1.092,0-1.926,1.059-1.926,2.46c0,1.476,0.652,2.438,1.809,2.438
	C156.333,50.069,156.868,49.759,157.435,49.171"/>
<path fill="#8FC31F" d="M159.8,49.042c0-1.262,1.123-1.859,3.638-2.149c0.021-0.845-0.226-1.722-1.306-1.722
	c-0.748,0-1.4,0.353-1.797,0.652l-0.277-0.449c0.439-0.3,1.23-0.748,2.16-0.748c1.358,0,1.841,0.973,1.841,2.234v3.616h-0.525
	l-0.063-0.728h-0.021c-0.578,0.471-1.262,0.866-1.99,0.866C160.54,50.615,159.8,50.102,159.8,49.042 M163.438,49.203v-1.851
	c-2.246,0.257-3.017,0.781-3.017,1.658c0,0.781,0.535,1.08,1.166,1.08S162.763,49.792,163.438,49.203"/>
<path fill="#8FC31F" d="M166.188,48.851V45.3H165.3v-0.472l0.91-0.053l0.075-1.648h0.524v1.648h1.636V45.3h-1.636v3.594
	c0,0.716,0.191,1.187,0.951,1.187c0.215,0,0.492-0.075,0.695-0.16l0.149,0.481c-0.331,0.117-0.695,0.214-0.951,0.214
	C166.53,50.615,166.188,49.909,166.188,48.851"/>
<path fill="#8FC31F" d="M169.345,47.631c0-1.851,1.209-3.006,2.504-3.006c1.38,0,2.203,0.983,2.203,2.653
	c0,0.16-0.011,0.31-0.033,0.449h-4.043c0.033,1.391,0.856,2.363,2.087,2.363c0.61,0,1.09-0.191,1.519-0.492l0.235,0.461
	c-0.46,0.289-0.995,0.556-1.818,0.556C170.532,50.615,169.345,49.503,169.345,47.631 M173.484,47.235
	c0-1.381-0.631-2.075-1.625-2.075c-0.931,0-1.767,0.771-1.884,2.075H173.484z"/>
<path fill="#8FC31F" d="M79.067,20.075c-0.098,0.253-0.195,0.683-0.254,1.033c-0.449,2.086-0.994,5.655-0.994,7.957
	c0,1.267,0.078,2.203,0.233,3.471c0.332-0.995,0.877-2.438,1.229-3.297l0.604,0.469c-0.447,1.189-1.17,3.159-1.365,4.056
	c-0.058,0.255-0.097,0.585-0.078,0.839c0.021,0.176,0.039,0.43,0.06,0.586l-0.917,0.078c-0.37-1.404-0.682-3.472-0.682-6.084
	c0-2.789,0.662-6.494,0.916-8.152c0.059-0.409,0.098-0.779,0.098-1.072L79.067,20.075z M92.034,33.823
	c-1.032-0.976-2.105-1.795-3.275-2.359c0.02,0.273,0.02,0.546,0.02,0.779c0,1.326-0.584,2.926-3.101,2.926
	c-2.534,0-3.821-1.034-3.821-2.594c0-1.404,1.325-2.691,3.803-2.691c0.76,0,1.441,0.098,2.086,0.253
	c-0.078-1.657-0.195-3.88-0.215-5.538c-0.702,0.021-1.424,0.039-2.125,0.039c-1.092,0-2.049-0.058-3.159-0.136v-0.956
	c1.071,0.098,2.086,0.156,3.198,0.156c0.701,0,1.403-0.02,2.086-0.039c0-1.014,0-1.93,0.02-2.555c0-0.351-0.02-0.819-0.059-1.131
	h1.17c-0.059,0.39-0.098,0.74-0.116,1.111c-0.039,0.605-0.039,1.619-0.039,2.516c1.248-0.098,2.457-0.233,3.509-0.449v0.996
	c-1.13,0.175-2.3,0.312-3.509,0.39c0.019,1.911,0.155,4.095,0.233,5.907c1.541,0.605,2.77,1.601,3.842,2.537L92.034,33.823z
	 M87.784,31.093c-0.702-0.234-1.443-0.351-2.223-0.351c-1.639,0-2.77,0.761-2.77,1.755c0,1.072,1.014,1.736,2.633,1.736
	c1.872,0,2.379-0.918,2.379-2.303C87.804,31.696,87.804,31.425,87.784,31.093"/>
<path fill="#8FC31F" d="M98.977,28.987c-0.272,0.818-0.429,1.579-0.429,2.32c0,1.6,1.658,2.691,4.914,2.691
	c2.711,0,5.207-0.293,6.513-0.741l0.021,1.053c-1.209,0.37-3.746,0.683-6.515,0.683c-3.627,0-5.946-1.189-5.946-3.472
	c0-0.955,0.194-1.833,0.408-2.651L98.977,28.987z M98.665,21.421c1.384,0.175,3.14,0.253,5.012,0.253
	c1.833,0,3.646-0.136,4.972-0.273v1.015c-1.267,0.098-3.217,0.234-4.972,0.234c-1.872,0-3.512-0.078-5.012-0.215V21.421z"/>
<path fill="#8FC31F" d="M124.386,23.448c-1.326,0.292-2.77,0.527-4.154,0.663c-0.176,0.858-0.391,1.755-0.624,2.613
	c-0.702,2.769-2.009,6.786-3.003,8.795l-1.15-0.37c1.17-2.029,2.457-5.87,3.178-8.62c0.195-0.702,0.391-1.521,0.566-2.319
	c-0.741,0.058-1.443,0.097-2.066,0.097c-0.801,0-1.464-0.019-2.185-0.078l-0.021-1.015c0.84,0.117,1.58,0.138,2.244,0.138
	c0.662,0,1.422-0.039,2.242-0.099c0.176-0.857,0.312-1.599,0.37-2.027c0.058-0.43,0.097-0.994,0.058-1.365l1.248,0.098
	c-0.097,0.371-0.234,0.994-0.291,1.346c-0.117,0.546-0.234,1.17-0.371,1.832c1.325-0.155,2.73-0.389,3.959-0.721V23.448z
	 M123.392,30.449c-0.196,0.683-0.293,1.287-0.293,1.813c0,0.955,0.408,1.97,3.549,1.97c1.248,0,2.574-0.137,3.646-0.37l-0.039,1.053
	c-1.014,0.156-2.301,0.273-3.628,0.273c-2.924,0-4.483-0.857-4.483-2.73c0-0.644,0.097-1.248,0.272-2.106L123.392,30.449z
	 M123.293,25.848c0.956-0.099,2.185-0.156,3.413-0.156c1.131,0,2.32,0.039,3.314,0.156l-0.038,0.995
	c-0.995-0.137-2.107-0.235-3.218-0.235c-1.131,0-2.301,0.078-3.472,0.215V25.848z M128.851,23.565
	c-0.39-0.799-1.092-1.989-1.618-2.71l0.741-0.332c0.487,0.683,1.209,1.853,1.619,2.672L128.851,23.565z M130.021,19.782
	c0.547,0.723,1.307,1.911,1.697,2.672l-0.761,0.351c-0.448-0.878-1.092-1.949-1.657-2.69L130.021,19.782z"/>
<path fill="#8FC31F" d="M136.358,22.024c1.053-0.116,4.973-0.525,8.521-0.818c2.185-0.195,3.804-0.293,5.052-0.331v1.013
	c-1.131-0.019-2.848,0.021-3.803,0.332c-3.003,1.053-4.622,4.232-4.622,6.514c0,4.115,3.843,5.324,6.903,5.42l-0.352,1.016
	c-3.295-0.079-7.526-1.814-7.526-6.221c0-3.141,1.97-5.734,4.017-6.825c-1.716,0.194-7.683,0.739-9.691,1.149l-0.117-1.149
	C135.461,22.103,135.968,22.063,136.358,22.024"/>
<path fill="#8FC31F" d="M169.703,28.343c-0.332,0.039-0.858,0.137-1.579,0.254c-1.15,0.176-3.121,0.488-5.148,0.818
	c0.43,2.088,0.779,3.823,0.857,4.135c0.137,0.565,0.293,1.209,0.488,1.697l-1.189,0.254c-0.098-0.645-0.176-1.19-0.293-1.757
	c-0.058-0.331-0.39-2.086-0.818-4.172c-2.34,0.37-4.602,0.761-5.598,0.937c-0.721,0.115-1.17,0.214-1.599,0.33l-0.233-1.17
	c0.429-0.02,1.092-0.078,1.541-0.155c1.014-0.117,3.334-0.488,5.713-0.878l-0.877-4.387c-1.931,0.312-3.744,0.604-4.584,0.74
	c-0.604,0.117-1.11,0.215-1.461,0.292l-0.215-1.188c0.409-0.021,0.877-0.06,1.502-0.117c0.818-0.098,2.631-0.352,4.562-0.663
	c-0.254-1.19-0.43-2.048-0.469-2.224c-0.098-0.469-0.215-0.877-0.33-1.248l1.13-0.215c0.038,0.352,0.118,0.858,0.194,1.248
	c0.021,0.156,0.196,1.053,0.43,2.282c2.027-0.332,3.998-0.644,4.895-0.819c0.547-0.117,0.897-0.215,1.151-0.272l0.214,1.092
	c-0.195,0.019-0.682,0.097-1.15,0.175l-4.914,0.78c0.254,1.326,0.565,2.886,0.877,4.368c2.088-0.352,4.096-0.682,5.148-0.877
	c0.741-0.137,1.189-0.234,1.541-0.352L169.703,28.343z"/>
<path fill="#8FC31F" d="M178.243,29.104l-0.936,0.351c-0.312-1.014-1.404-3.764-1.734-4.349l0.916-0.37
	C176.821,25.456,177.874,28.108,178.243,29.104 M188.014,24.677c-0.097,0.254-0.175,0.507-0.233,0.684
	c-0.508,2.262-1.365,4.387-2.809,6.18c-1.794,2.244-4.154,3.707-6.26,4.506l-0.838-0.858c2.32-0.702,4.66-2.184,6.279-4.173
	c1.403-1.734,2.438-4.154,2.789-6.669L188.014,24.677z M182.515,27.934l-0.917,0.351c-0.194-0.857-1.131-3.412-1.501-4.192
	l0.936-0.312C181.345,24.54,182.301,27.114,182.515,27.934"/>
<path fill="#8FC31F" d="M206.169,22.123c-0.098,0.116-0.293,0.468-0.352,0.644c-0.683,1.754-2.009,4.211-3.412,5.928
	c2.125,1.833,4.484,4.349,5.83,5.967l-0.839,0.741c-1.325-1.696-3.588-4.173-5.635-5.968c-2.146,2.283-4.778,4.467-7.801,5.832
	l-0.78-0.84c3.141-1.248,5.948-3.549,8.055-5.908c1.346-1.521,2.905-4.057,3.432-5.812h-8.172c-0.623,0-1.676,0.06-1.773,0.078
	v-1.17c0.117,0.021,1.17,0.117,1.773,0.117h7.898c0.508,0,0.877-0.039,1.131-0.117L206.169,22.123z M206.831,22.161
	c-0.37-0.779-1.072-1.95-1.6-2.691l0.742-0.33c0.487,0.682,1.209,1.852,1.618,2.67L206.831,22.161z M208.04,18.456
	c0.527,0.702,1.287,1.911,1.678,2.652l-0.76,0.351c-0.43-0.856-1.073-1.95-1.639-2.671L208.04,18.456z"/>
<path fill="#8FC31F" d="M225.63,21.733h0.369c-0.097-0.234-0.135-0.488-0.135-0.762c0-1.17,0.916-2.105,2.086-2.105
	c1.15,0,2.105,0.936,2.105,2.105c0,1.151-0.955,2.087-2.105,2.087c-0.371,0-0.703-0.098-0.994-0.254l-0.021,0.078
	c-0.409,2.146-1.403,5.343-2.886,7.255c-1.795,2.262-3.959,3.979-7.586,5.109l-0.858-0.936c3.726-0.976,5.909-2.613,7.586-4.779
	c1.425-1.853,2.438-4.855,2.711-6.844h-10.511c-0.702,0-1.209,0.02-1.716,0.059v-1.131c0.507,0.058,1.092,0.117,1.735,0.117H225.63z
	 M229.335,20.972c0-0.76-0.625-1.404-1.385-1.404c-0.761,0-1.385,0.645-1.385,1.404c0,0.762,0.624,1.365,1.385,1.365
	C228.71,22.337,229.335,21.733,229.335,20.972"/>
<path fill="#8FC31F" d="M247.177,25.359c-0.078,0.137-0.175,0.331-0.214,0.448c-0.449,1.932-1.347,4.018-2.808,5.617
	c-2.088,2.262-4.506,3.295-6.982,3.978l-0.779-0.897c2.651-0.525,5.168-1.794,6.922-3.666c1.268-1.345,2.146-3.256,2.496-4.875
	h-10.9c-0.448,0-1.053,0.02-1.678,0.059v-1.111c0.625,0.078,1.209,0.117,1.678,0.117h10.646c0.332,0,0.684-0.039,0.879-0.117
	L247.177,25.359z M234.95,20.543c0.488,0.06,0.975,0.078,1.58,0.078h7.779c0.605,0,1.133-0.019,1.561-0.078v1.072
	c-0.428-0.039-0.955-0.039-1.579-0.039h-7.761c-0.566,0-1.073,0.021-1.58,0.039V20.543z"/>
<path fill="#8FC31F" d="M265.74,24.346c0.781,0,1.464-0.078,1.58-0.097v1.11c-0.077-0.019-0.799-0.058-1.58-0.058h-2.554v0.701
	c0,5.402-1.092,7.918-5.382,9.867l-0.859-0.799c3.413-1.385,5.267-3.062,5.267-8.912v-0.857h-6.104v3.451
	c0,0.623,0.06,1.521,0.06,1.599h-1.133c0.021-0.078,0.098-0.937,0.098-1.599v-3.451h-2.379c-0.779,0-1.774,0.058-1.852,0.058v-1.11
	c0.059,0.019,1.111,0.097,1.852,0.097h2.379v-2.827c0-0.566-0.077-1.133-0.077-1.21h1.131c-0.019,0.077-0.078,0.586-0.078,1.19
	v2.847h6.104v-2.671c0-0.742-0.078-1.385-0.099-1.463h1.171c-0.02,0.078-0.098,0.721-0.098,1.463v2.671H265.74z M265.624,23.079
	c-0.293-0.82-0.819-2.049-1.189-2.75l0.702-0.234c0.37,0.662,0.936,1.931,1.228,2.729L265.624,23.079z M267.048,19.509
	c0.371,0.684,0.916,1.912,1.229,2.73l-0.742,0.253c-0.33-0.877-0.799-2.047-1.209-2.749L267.048,19.509z"/>
</svg>
