<?xml version="1.0" encoding="utf-8"?>
<!-- Generator: Adobe Illustrator 16.0.4, SVG Export Plug-In . SVG Version: 6.00 Build 0)  -->
<!DOCTYPE svg PUBLIC "-//W3C//DTD SVG 1.1//EN" "http://www.w3.org/Graphics/SVG/1.1/DTD/svg11.dtd">
<svg version="1.1" id="レイヤー_1" xmlns="http://www.w3.org/2000/svg" xmlns:xlink="http://www.w3.org/1999/xlink" x="0px"
	 y="0px" width="268.277px" height="69.706px" viewBox="0 0 268.277 69.706" enable-background="new 0 0 268.277 69.706"
	 xml:space="preserve">
<path fill="#FFFFFF" d="M4.252,18.489c0,1.174-0.952,2.126-2.126,2.126C0.952,20.615,0,19.663,0,18.489
	c0-1.175,0.952-2.126,2.126-2.126C3.3,16.363,4.252,17.314,4.252,18.489"/>
<path fill="#FFFFFF" d="M18.423,10.308c0,1.174-0.952,2.126-2.126,2.126c-1.174,0-2.126-0.952-2.126-2.126s0.952-2.126,2.126-2.126
	C17.471,8.182,18.423,9.134,18.423,10.308"/>
<path fill="#FFFFFF" d="M32.594,2.126c0,1.174-0.952,2.126-2.126,2.126c-1.174,0-2.126-0.952-2.126-2.126S29.294,0,30.468,0
	C31.642,0,32.594,0.952,32.594,2.126"/>
<path fill="#FFFFFF" d="M32.594,18.489c0,1.174-0.952,2.126-2.126,2.126c-1.174,0-2.126-0.952-2.126-2.126s0.952-2.126,2.126-2.126
	C31.642,16.363,32.594,17.315,32.594,18.489"/>
<path fill="#FFFFFF" d="M32.594,34.853c0,1.174-0.952,2.126-2.126,2.126c-1.174,0-2.126-0.952-2.126-2.126s0.952-2.126,2.126-2.126
	C31.642,32.727,32.594,33.679,32.594,34.853"/>
<path fill="#FFFFFF" d="M32.594,51.216c0,1.175-0.952,2.126-2.126,2.126c-1.174,0-2.126-0.951-2.126-2.126
	c0-1.174,0.952-2.126,2.126-2.126C31.642,49.09,32.594,50.042,32.594,51.216"/>
<path fill="#FFFFFF" d="M32.594,67.58c0,1.174-0.952,2.126-2.126,2.126c-1.174,0-2.126-0.952-2.126-2.126
	c0-1.175,0.952-2.126,2.126-2.126C31.642,65.454,32.594,66.405,32.594,67.58"/>
<path fill="#FFFFFF" d="M18.423,26.671c0,1.174-0.952,2.126-2.126,2.126c-1.174,0-2.126-0.952-2.126-2.126s0.952-2.126,2.126-2.126
	C17.471,24.545,18.423,25.497,18.423,26.671"/>
<path fill="#FFFFFF" d="M18.423,43.034c0,1.174-0.952,2.126-2.126,2.126c-1.174,0-2.126-0.952-2.126-2.126s0.952-2.126,2.126-2.126
	C17.471,40.908,18.423,41.86,18.423,43.034"/>
<path fill="#FFFFFF" d="M18.423,59.397c0,1.174-0.952,2.126-2.126,2.126c-1.174,0-2.126-0.952-2.126-2.126s0.952-2.126,2.126-2.126
	C17.471,57.271,18.423,58.224,18.423,59.397"/>
<path fill="#FFFFFF" d="M46.765,10.308c0,1.174-0.952,2.126-2.126,2.126s-2.126-0.952-2.126-2.126s0.952-2.126,2.126-2.126
	S46.765,9.134,46.765,10.308"/>
<path fill="#FFFFFF" d="M46.765,26.671c0,1.174-0.952,2.126-2.126,2.126s-2.126-0.952-2.126-2.126s0.952-2.126,2.126-2.126
	S46.765,25.497,46.765,26.671"/>
<path fill="#FFFFFF" d="M46.765,43.034c0,1.174-0.952,2.126-2.126,2.126s-2.126-0.952-2.126-2.126s0.952-2.126,2.126-2.126
	S46.765,41.86,46.765,43.034"/>
<path fill="#FFFFFF" d="M46.765,59.397c0,1.174-0.952,2.126-2.126,2.126s-2.126-0.952-2.126-2.126s0.952-2.126,2.126-2.126
	S46.765,58.224,46.765,59.397"/>
<path fill="#FFFFFF" d="M4.252,34.853c0,1.174-0.952,2.126-2.126,2.126C0.952,36.979,0,36.026,0,34.853s0.952-2.126,2.126-2.126
	C3.3,32.727,4.252,33.679,4.252,34.853"/>
<path fill="#FFFFFF" d="M4.252,51.216c0,1.174-0.952,2.126-2.126,2.126C0.952,53.342,0,52.39,0,51.216s0.952-2.126,2.126-2.126
	C3.3,49.09,4.252,50.042,4.252,51.216"/>
<path fill="#FFFFFF" d="M60.936,18.489c0,1.174-0.952,2.126-2.126,2.126c-1.174,0-2.126-0.952-2.126-2.126
	c0-1.175,0.952-2.126,2.126-2.126C59.984,16.363,60.936,17.314,60.936,18.489"/>
<path fill="#FFFFFF" d="M60.936,34.853c0,1.174-0.952,2.126-2.126,2.126c-1.174,0-2.126-0.952-2.126-2.126s0.952-2.126,2.126-2.126
	C59.984,32.727,60.936,33.679,60.936,34.853"/>
<path fill="#FFFFFF" d="M60.936,51.216c0,1.174-0.952,2.126-2.126,2.126c-1.174,0-2.126-0.952-2.126-2.126s0.952-2.126,2.126-2.126
	C59.984,49.09,60.936,50.042,60.936,51.216"/>
<polygon fill="#FFFFFF" points="76.973,42.678 77.615,42.678 77.615,46.913 77.636,46.913 81.293,42.678 82.054,42.678 
	79.572,45.576 82.407,50.476 81.668,50.476 79.144,46.078 77.615,47.845 77.615,50.476 76.973,50.476 "/>
<path fill="#FFFFFF" d="M83.371,42.945c0-0.32,0.235-0.514,0.524-0.514c0.278,0,0.524,0.193,0.524,0.514
	c0,0.288-0.246,0.491-0.524,0.491C83.606,43.437,83.371,43.233,83.371,42.945 M83.574,44.774h0.62v5.701h-0.62V44.774z"/>
<path fill="#FFFFFF" d="M85.854,47.63c0-1.84,1.176-3.006,2.524-3.006c0.685,0,1.145,0.257,1.701,0.695l-0.043-1.026v-2.321h0.621
	v8.504h-0.514l-0.075-0.718h-0.021c-0.46,0.461-1.091,0.856-1.829,0.856C86.785,50.614,85.854,49.545,85.854,47.63 M90.036,49.17
	v-3.294c-0.578-0.514-1.059-0.706-1.594-0.706c-1.091,0-1.925,1.06-1.925,2.46c0,1.477,0.652,2.438,1.808,2.438
	C88.934,50.068,89.469,49.758,90.036,49.17"/>
<path fill="#FFFFFF" d="M92.103,49.833l0.332-0.448c0.491,0.417,1.016,0.717,1.796,0.717c0.867,0,1.306-0.493,1.306-1.081
	c0-0.674-0.717-0.984-1.38-1.219c-0.846-0.301-1.787-0.653-1.787-1.637c0-0.835,0.674-1.541,1.872-1.541
	c0.621,0,1.23,0.269,1.658,0.61l-0.321,0.428c-0.385-0.289-0.802-0.514-1.358-0.514c-0.845,0-1.23,0.471-1.23,0.984
	c0,0.631,0.663,0.866,1.326,1.112c0.877,0.331,1.84,0.642,1.84,1.743c0,0.877-0.696,1.626-1.958,1.626
	C93.365,50.614,92.616,50.262,92.103,49.833"/>
<path fill="#FFFFFF" d="M100.074,42.678h2.021c1.766,0,2.846,0.577,2.846,2.193c0,1.561-1.07,2.31-2.803,2.31h-1.422v3.295h-0.642
	V42.678z M102.01,46.646c1.541,0,2.278-0.523,2.278-1.774c0-1.264-0.77-1.659-2.321-1.659h-1.251v3.434H102.01z"/>
<path fill="#FFFFFF" d="M106.558,49.63v-7.659h0.62v7.724c0,0.268,0.107,0.385,0.257,0.385c0.043,0,0.085,0,0.203-0.021l0.096,0.491
	c-0.107,0.032-0.214,0.064-0.417,0.064C106.804,50.614,106.558,50.293,106.558,49.63"/>
<path fill="#FFFFFF" d="M109.019,49.041c0-1.262,1.123-1.859,3.637-2.149c0.021-0.844-0.225-1.722-1.305-1.722
	c-0.749,0-1.401,0.353-1.797,0.652l-0.278-0.45c0.439-0.299,1.23-0.748,2.161-0.748c1.358,0,1.84,0.974,1.84,2.235v3.616h-0.525
	l-0.064-0.729h-0.021c-0.578,0.472-1.262,0.867-1.99,0.867C109.758,50.614,109.019,50.101,109.019,49.041 M112.656,49.202v-1.851
	c-2.246,0.257-3.016,0.781-3.016,1.659c0,0.779,0.535,1.08,1.165,1.08C111.437,50.091,111.981,49.79,112.656,49.202"/>
<polygon fill="#FFFFFF" points="114.541,50.144 117.825,45.298 114.894,45.298 114.894,44.773 118.626,44.773 118.626,45.105 
	115.342,49.939 118.733,49.939 118.733,50.476 114.541,50.476 "/>
<path fill="#FFFFFF" d="M119.719,49.041c0-1.262,1.123-1.859,3.637-2.149c0.021-0.844-0.225-1.722-1.305-1.722
	c-0.749,0-1.401,0.353-1.797,0.652l-0.278-0.45c0.439-0.299,1.23-0.748,2.161-0.748c1.358,0,1.84,0.974,1.84,2.235v3.616h-0.525
	l-0.064-0.729h-0.021c-0.578,0.472-1.262,0.867-1.99,0.867C120.458,50.614,119.719,50.101,119.719,49.041 M123.356,49.202v-1.851
	c-2.246,0.257-3.016,0.781-3.016,1.659c0,0.779,0.535,1.08,1.165,1.08C122.137,50.091,122.682,49.79,123.356,49.202"/>
<polygon fill="#FFFFFF" points="128.407,42.678 129.049,42.678 129.049,46.058 133.103,46.058 133.103,42.678 133.734,42.678 
	133.734,50.476 133.103,50.476 133.103,46.614 129.049,46.614 129.049,50.476 128.407,50.476 "/>
<path fill="#FFFFFF" d="M135.543,49.041c0-1.262,1.123-1.859,3.637-2.149c0.021-0.844-0.225-1.722-1.305-1.722
	c-0.749,0-1.401,0.353-1.797,0.652l-0.278-0.45c0.439-0.299,1.23-0.748,2.161-0.748c1.358,0,1.84,0.974,1.84,2.235v3.616h-0.525
	l-0.064-0.729h-0.021c-0.578,0.472-1.262,0.867-1.99,0.867C136.283,50.614,135.543,50.101,135.543,49.041 M139.181,49.202v-1.851
	c-2.246,0.257-3.016,0.781-3.016,1.659c0,0.779,0.535,1.08,1.165,1.08C137.961,50.091,138.506,49.79,139.181,49.202"/>
<polygon fill="#FFFFFF" points="141.793,41.972 142.413,41.972 142.413,48.133 142.435,48.133 145.162,44.774 145.868,44.774 
	144.007,47.031 146.168,50.476 145.483,50.476 143.643,47.48 142.413,48.935 142.413,50.476 141.793,50.476 "/>
<path fill="#FFFFFF" d="M146.896,47.63c0-1.903,1.198-3.006,2.578-3.006s2.578,1.103,2.578,3.006c0,1.894-1.198,2.984-2.578,2.984
	S146.896,49.523,146.896,47.63 M151.411,47.63c0-1.455-0.824-2.46-1.936-2.46s-1.925,1.005-1.925,2.46s0.813,2.449,1.925,2.449
	S151.411,49.085,151.411,47.63"/>
<path fill="#FFFFFF" d="M153.253,47.63c0-1.84,1.176-3.006,2.524-3.006c0.685,0,1.145,0.257,1.701,0.695l-0.043-1.026v-2.321h0.621
	v8.504h-0.514l-0.075-0.718h-0.021c-0.46,0.461-1.091,0.856-1.829,0.856C154.184,50.614,153.253,49.545,153.253,47.63
	 M157.435,49.17v-3.294c-0.578-0.514-1.059-0.706-1.594-0.706c-1.091,0-1.925,1.06-1.925,2.46c0,1.477,0.652,2.438,1.808,2.438
	C156.333,50.068,156.868,49.758,157.435,49.17"/>
<path fill="#FFFFFF" d="M159.801,49.041c0-1.262,1.123-1.859,3.637-2.149c0.021-0.844-0.225-1.722-1.305-1.722
	c-0.749,0-1.401,0.353-1.797,0.652l-0.278-0.45c0.439-0.299,1.23-0.748,2.161-0.748c1.358,0,1.84,0.974,1.84,2.235v3.616h-0.525
	l-0.064-0.729h-0.021c-0.578,0.472-1.262,0.867-1.99,0.867C160.54,50.614,159.801,50.101,159.801,49.041 M163.438,49.202v-1.851
	c-2.246,0.257-3.016,0.781-3.016,1.659c0,0.779,0.535,1.08,1.165,1.08C162.219,50.091,162.764,49.79,163.438,49.202"/>
<path fill="#FFFFFF" d="M166.189,48.85v-3.551h-0.888v-0.472l0.909-0.053l0.076-1.647h0.524v1.647h1.636v0.524h-1.636v3.594
	c0,0.716,0.192,1.187,0.952,1.187c0.214,0,0.491-0.074,0.695-0.159l0.149,0.48c-0.331,0.117-0.695,0.214-0.951,0.214
	C166.531,50.614,166.189,49.908,166.189,48.85"/>
<path fill="#FFFFFF" d="M169.346,47.63c0-1.851,1.208-3.006,2.503-3.006c1.38,0,2.203,0.984,2.203,2.653
	c0,0.16-0.01,0.31-0.032,0.449h-4.043c0.032,1.391,0.856,2.363,2.086,2.363c0.61,0,1.09-0.191,1.519-0.491l0.235,0.46
	c-0.46,0.289-0.995,0.556-1.818,0.556C170.533,50.614,169.346,49.502,169.346,47.63 M173.485,47.234c0-1.38-0.631-2.075-1.625-2.075
	c-0.931,0-1.766,0.77-1.883,2.075H173.485z"/>
<path fill="#FFFFFF" d="M79.067,20.074c-0.097,0.253-0.195,0.683-0.253,1.034c-0.449,2.086-0.995,5.654-0.995,7.956
	c0,1.267,0.078,2.202,0.234,3.471c0.332-0.995,0.877-2.438,1.229-3.296l0.604,0.468c-0.448,1.19-1.17,3.159-1.365,4.056
	c-0.058,0.254-0.097,0.585-0.078,0.84c0.02,0.176,0.039,0.429,0.059,0.585l-0.917,0.077c-0.37-1.403-0.682-3.471-0.682-6.084
	c0-2.789,0.663-6.493,0.916-8.151c0.059-0.409,0.098-0.779,0.098-1.072L79.067,20.074z M92.035,33.822
	c-1.033-0.976-2.106-1.794-3.276-2.359c0.02,0.273,0.02,0.546,0.02,0.779c0,1.327-0.585,2.926-3.101,2.926
	c-2.535,0-3.822-1.034-3.822-2.594c0-1.404,1.326-2.691,3.803-2.691c0.76,0,1.442,0.098,2.086,0.253
	c-0.078-1.656-0.195-3.88-0.214-5.538c-0.703,0.021-1.424,0.039-2.126,0.039c-1.092,0-2.048-0.058-3.159-0.136v-0.956
	c1.072,0.099,2.086,0.156,3.198,0.156c0.702,0,1.404-0.02,2.087-0.039c0-1.014,0-1.93,0.019-2.554c0-0.352-0.019-0.82-0.058-1.131
	h1.169c-0.058,0.389-0.097,0.739-0.116,1.11c-0.039,0.605-0.039,1.619-0.039,2.517c1.248-0.099,2.457-0.234,3.509-0.449v0.995
	c-1.13,0.175-2.3,0.312-3.509,0.39c0.019,1.911,0.155,4.095,0.234,5.908c1.54,0.604,2.769,1.6,3.841,2.536L92.035,33.822z
	 M87.784,31.092c-0.702-0.233-1.443-0.351-2.223-0.351c-1.638,0-2.769,0.761-2.769,1.755c0,1.073,1.014,1.736,2.633,1.736
	c1.872,0,2.379-0.917,2.379-2.303C87.804,31.696,87.804,31.424,87.784,31.092"/>
<path fill="#FFFFFF" d="M98.977,28.985c-0.273,0.819-0.429,1.58-0.429,2.321c0,1.6,1.658,2.691,4.914,2.691
	c2.711,0,5.207-0.292,6.513-0.741l0.02,1.053c-1.209,0.37-3.745,0.683-6.514,0.683c-3.627,0-5.947-1.189-5.947-3.472
	c0-0.955,0.195-1.833,0.409-2.651L98.977,28.985z M98.665,21.42c1.384,0.175,3.14,0.253,5.012,0.253
	c1.833,0,3.646-0.136,4.972-0.273v1.016c-1.267,0.097-3.217,0.233-4.972,0.233c-1.872,0-3.511-0.079-5.012-0.215V21.42z"/>
<path fill="#FFFFFF" d="M124.386,23.447c-1.326,0.292-2.769,0.527-4.154,0.663c-0.175,0.858-0.39,1.755-0.624,2.613
	c-0.702,2.769-2.008,6.787-3.003,8.795l-1.15-0.37c1.17-2.029,2.457-5.87,3.178-8.62c0.195-0.702,0.39-1.521,0.566-2.319
	c-0.741,0.058-1.443,0.097-2.067,0.097c-0.8,0-1.463-0.02-2.184-0.078l-0.02-1.014c0.839,0.117,1.58,0.137,2.243,0.137
	c0.663,0,1.423-0.039,2.243-0.098c0.175-0.858,0.312-1.6,0.37-2.028s0.097-0.994,0.058-1.365l1.248,0.099
	c-0.097,0.369-0.234,0.993-0.292,1.345c-0.117,0.546-0.234,1.17-0.371,1.833c1.326-0.156,2.731-0.391,3.959-0.721V23.447z
	 M123.392,30.448c-0.196,0.684-0.293,1.287-0.293,1.813c0,0.956,0.409,1.97,3.549,1.97c1.248,0,2.574-0.137,3.647-0.37l-0.039,1.054
	c-1.014,0.155-2.301,0.272-3.628,0.272c-2.924,0-4.484-0.858-4.484-2.729c0-0.645,0.097-1.248,0.273-2.107L123.392,30.448z
	 M123.293,25.847c0.956-0.098,2.184-0.156,3.413-0.156c1.131,0,2.32,0.039,3.315,0.156l-0.039,0.995
	c-0.995-0.138-2.107-0.235-3.218-0.235c-1.131,0-2.301,0.078-3.471,0.215V25.847z M128.852,23.564
	c-0.39-0.799-1.092-1.989-1.619-2.71l0.741-0.332c0.488,0.684,1.209,1.854,1.619,2.672L128.852,23.564z M130.021,19.781
	c0.546,0.723,1.306,1.911,1.696,2.672l-0.76,0.351c-0.449-0.877-1.092-1.949-1.658-2.69L130.021,19.781z"/>
<path fill="#FFFFFF" d="M136.358,22.024c1.053-0.117,4.973-0.526,8.521-0.819c2.185-0.194,3.803-0.293,5.051-0.331v1.014
	c-1.131-0.02-2.847,0.02-3.802,0.332c-3.003,1.053-4.622,4.231-4.622,6.513c0,4.115,3.842,5.324,6.903,5.421l-0.351,1.015
	c-3.295-0.079-7.527-1.813-7.527-6.221c0-3.14,1.97-5.734,4.017-6.825c-1.716,0.194-7.683,0.74-9.691,1.15l-0.118-1.15
	C135.461,22.103,135.969,22.063,136.358,22.024"/>
<path fill="#FFFFFF" d="M169.704,28.343c-0.332,0.039-0.858,0.136-1.58,0.253c-1.15,0.176-3.12,0.488-5.148,0.819
	c0.43,2.087,0.78,3.822,0.858,4.135c0.137,0.564,0.293,1.209,0.488,1.695l-1.19,0.255c-0.097-0.645-0.175-1.19-0.292-1.757
	c-0.058-0.331-0.39-2.086-0.819-4.172c-2.34,0.37-4.602,0.761-5.597,0.937c-0.721,0.116-1.17,0.214-1.599,0.331l-0.234-1.17
	c0.429-0.021,1.092-0.078,1.541-0.156c1.014-0.117,3.334-0.488,5.714-0.878l-0.878-4.387c-1.93,0.312-3.744,0.604-4.583,0.74
	c-0.604,0.117-1.111,0.214-1.462,0.292l-0.215-1.188c0.41-0.021,0.878-0.06,1.502-0.117c0.819-0.098,2.632-0.351,4.563-0.663
	c-0.254-1.189-0.429-2.048-0.468-2.223c-0.098-0.47-0.215-0.878-0.331-1.248l1.13-0.215c0.039,0.351,0.118,0.857,0.195,1.248
	c0.02,0.155,0.196,1.053,0.429,2.281c2.028-0.332,3.998-0.644,4.895-0.818c0.546-0.118,0.897-0.215,1.151-0.273l0.214,1.092
	c-0.195,0.02-0.682,0.098-1.15,0.176l-4.915,0.779c0.254,1.326,0.566,2.887,0.878,4.368c2.087-0.351,4.095-0.682,5.148-0.877
	c0.741-0.136,1.19-0.234,1.541-0.351L169.704,28.343z"/>
<path fill="#FFFFFF" d="M178.244,29.103l-0.936,0.352c-0.312-1.014-1.404-3.764-1.735-4.35l0.916-0.369
	C176.821,25.456,177.875,28.108,178.244,29.103 M188.014,24.676c-0.097,0.254-0.175,0.507-0.234,0.684
	c-0.507,2.262-1.365,4.387-2.808,6.181c-1.794,2.243-4.154,3.706-6.26,4.505l-0.838-0.858c2.32-0.701,4.661-2.184,6.279-4.173
	c1.404-1.734,2.438-4.153,2.789-6.669L188.014,24.676z M182.515,27.933l-0.917,0.352c-0.195-0.858-1.131-3.413-1.501-4.193
	l0.936-0.312C181.345,24.54,182.301,27.114,182.515,27.933"/>
<path fill="#FFFFFF" d="M206.169,22.122c-0.098,0.116-0.293,0.468-0.351,0.644c-0.683,1.755-2.009,4.212-3.413,5.928
	c2.126,1.833,4.485,4.349,5.831,5.967l-0.839,0.741c-1.326-1.696-3.588-4.173-5.635-5.967c-2.146,2.282-4.778,4.466-7.801,5.831
	l-0.78-0.839c3.14-1.248,5.948-3.55,8.054-5.908c1.346-1.521,2.906-4.058,3.432-5.812h-8.171c-0.624,0-1.677,0.06-1.774,0.078v-1.17
	c0.117,0.021,1.17,0.117,1.774,0.117h7.898c0.507,0,0.877-0.039,1.131-0.117L206.169,22.122z M206.832,22.16
	c-0.371-0.78-1.073-1.95-1.6-2.69l0.742-0.331c0.487,0.682,1.209,1.852,1.618,2.671L206.832,22.16z M208.041,18.455
	c0.526,0.702,1.287,1.911,1.677,2.652l-0.76,0.351c-0.43-0.856-1.073-1.949-1.639-2.671L208.041,18.455z"/>
<path fill="#FFFFFF" d="M225.63,21.732H226c-0.097-0.234-0.136-0.488-0.136-0.762c0-1.17,0.916-2.105,2.086-2.105
	c1.151,0,2.106,0.936,2.106,2.105c0,1.151-0.955,2.087-2.106,2.087c-0.37,0-0.702-0.098-0.994-0.254l-0.02,0.078
	c-0.409,2.146-1.404,5.343-2.886,7.255c-1.794,2.263-3.959,3.979-7.586,5.109l-0.858-0.936c3.725-0.976,5.909-2.613,7.586-4.778
	c1.424-1.854,2.438-4.856,2.711-6.845h-10.511c-0.702,0-1.209,0.02-1.716,0.059v-1.131c0.507,0.058,1.092,0.117,1.735,0.117H225.63z
	 M229.335,20.971c0-0.76-0.624-1.403-1.385-1.403c-0.76,0-1.384,0.644-1.384,1.403c0,0.762,0.624,1.365,1.384,1.365
	C228.711,22.336,229.335,21.732,229.335,20.971"/>
<path fill="#FFFFFF" d="M247.177,25.358c-0.078,0.137-0.175,0.332-0.214,0.449c-0.449,1.931-1.346,4.017-2.808,5.615
	c-2.087,2.264-4.505,3.297-6.982,3.979l-0.78-0.897c2.652-0.525,5.168-1.794,6.923-3.666c1.267-1.345,2.145-3.256,2.496-4.875
	h-10.901c-0.448,0-1.053,0.02-1.677,0.059V24.91c0.624,0.078,1.209,0.117,1.677,0.117h10.646c0.332,0,0.683-0.039,0.878-0.117
	L247.177,25.358z M234.95,20.542c0.488,0.06,0.975,0.078,1.58,0.078h7.78c0.605,0,1.132-0.019,1.56-0.078v1.072
	c-0.428-0.039-0.955-0.039-1.579-0.039h-7.761c-0.566,0-1.073,0.021-1.58,0.039V20.542z"/>
<path fill="#FFFFFF" d="M265.741,24.345c0.781,0,1.463-0.078,1.58-0.097v1.11c-0.078-0.019-0.799-0.058-1.58-0.058h-2.554v0.702
	c0,5.401-1.092,7.917-5.382,9.867l-0.859-0.8c3.413-1.385,5.266-3.062,5.266-8.912v-0.857h-6.104v3.451
	c0,0.624,0.059,1.521,0.059,1.599h-1.132c0.02-0.078,0.098-0.936,0.098-1.599v-3.451h-2.379c-0.78,0-1.775,0.058-1.852,0.058v-1.11
	c0.058,0.019,1.111,0.097,1.852,0.097h2.379v-2.827c0-0.565-0.078-1.132-0.078-1.21h1.131c-0.019,0.078-0.078,0.586-0.078,1.19
	v2.847h6.104v-2.671c0-0.742-0.078-1.385-0.098-1.463h1.17c-0.019,0.078-0.097,0.721-0.097,1.463v2.671H265.741z M265.624,23.078
	c-0.292-0.819-0.819-2.049-1.189-2.75l0.702-0.234c0.37,0.663,0.936,1.931,1.228,2.729L265.624,23.078z M267.048,19.509
	c0.371,0.683,0.917,1.911,1.229,2.729l-0.742,0.253c-0.331-0.877-0.799-2.047-1.209-2.748L267.048,19.509z"/>
</svg>
