<?xml version="1.0" encoding="utf-8"?>
<!-- Generator: Adobe Illustrator 15.1.0, SVG Export Plug-In . SVG Version: 6.00 Build 0)  -->
<!DOCTYPE svg PUBLIC "-//W3C//DTD SVG 1.1//EN" "http://www.w3.org/Graphics/SVG/1.1/DTD/svg11.dtd">
<svg version="1.1" id="レイヤー_1" xmlns="http://www.w3.org/2000/svg" xmlns:xlink="http://www.w3.org/1999/xlink" x="0px"
	 y="0px" width="123.194px" height="123.195px" viewBox="0 0 123.194 123.195" enable-background="new 0 0 123.194 123.195"
	 xml:space="preserve">
<rect fill="#8FC31F" width="123.194" height="123.195"/>
<g>
	<path fill="#FFFFFF" d="M35,32.321c0,1.174-0.951,2.126-2.126,2.126c-1.174,0-2.126-0.952-2.126-2.126
		c0-1.175,0.952-2.126,2.126-2.126C34.049,30.195,35,31.146,35,32.321"/>
	<path fill="#FFFFFF" d="M49.172,24.14c0,1.174-0.952,2.126-2.126,2.126c-1.175,0-2.126-0.952-2.126-2.126s0.951-2.126,2.126-2.126
		C48.22,22.014,49.172,22.966,49.172,24.14"/>
	<path fill="#FFFFFF" d="M63.343,15.958c0,1.174-0.952,2.126-2.126,2.126s-2.126-0.952-2.126-2.126s0.952-2.126,2.126-2.126
		S63.343,14.784,63.343,15.958"/>
	<path fill="#FFFFFF" d="M63.343,32.321c0,1.175-0.952,2.126-2.126,2.126s-2.126-0.951-2.126-2.126c0-1.174,0.952-2.126,2.126-2.126
		S63.343,31.147,63.343,32.321"/>
	<path fill="#FFFFFF" d="M63.343,48.686c0,1.174-0.952,2.125-2.126,2.125s-2.126-0.951-2.126-2.125c0-1.175,0.952-2.127,2.126-2.127
		S63.343,47.511,63.343,48.686"/>
	<path fill="#FFFFFF" d="M63.343,65.049c0,1.174-0.952,2.125-2.126,2.125s-2.126-0.951-2.126-2.125s0.952-2.127,2.126-2.127
		S63.343,63.875,63.343,65.049"/>
	<path fill="#FFFFFF" d="M63.343,81.412c0,1.174-0.952,2.126-2.126,2.126s-2.126-0.952-2.126-2.126s0.952-2.127,2.126-2.127
		S63.343,80.238,63.343,81.412"/>
	<path fill="#FFFFFF" d="M49.172,40.503c0,1.175-0.952,2.126-2.126,2.126c-1.175,0-2.126-0.951-2.126-2.126
		c0-1.174,0.951-2.126,2.126-2.126C48.22,38.377,49.172,39.329,49.172,40.503"/>
	<path fill="#FFFFFF" d="M49.172,56.866c0,1.175-0.952,2.126-2.126,2.126c-1.175,0-2.126-0.951-2.126-2.126
		c0-1.174,0.951-2.126,2.126-2.126C48.22,54.74,49.172,55.692,49.172,56.866"/>
	<path fill="#FFFFFF" d="M49.172,73.23c0,1.174-0.952,2.125-2.126,2.125c-1.175,0-2.126-0.951-2.126-2.125s0.951-2.127,2.126-2.127
		C48.22,71.104,49.172,72.057,49.172,73.23"/>
	<path fill="#FFFFFF" d="M77.514,24.14c0,1.174-0.952,2.126-2.126,2.126s-2.126-0.952-2.126-2.126s0.952-2.126,2.126-2.126
		S77.514,22.966,77.514,24.14"/>
	<path fill="#FFFFFF" d="M77.514,40.503c0,1.175-0.952,2.126-2.126,2.126s-2.126-0.951-2.126-2.126c0-1.174,0.952-2.126,2.126-2.126
		S77.514,39.329,77.514,40.503"/>
	<path fill="#FFFFFF" d="M77.514,56.866c0,1.175-0.952,2.126-2.126,2.126s-2.126-0.951-2.126-2.126c0-1.174,0.952-2.126,2.126-2.126
		S77.514,55.692,77.514,56.866"/>
	<path fill="#FFFFFF" d="M77.514,73.23c0,1.174-0.952,2.125-2.126,2.125s-2.126-0.951-2.126-2.125s0.952-2.127,2.126-2.127
		S77.514,72.057,77.514,73.23"/>
	<path fill="#FFFFFF" d="M35,48.685c0,1.174-0.951,2.126-2.126,2.126c-1.174,0-2.126-0.952-2.126-2.126s0.952-2.126,2.126-2.126
		C34.049,46.559,35,47.511,35,48.685"/>
	<path fill="#FFFFFF" d="M35,65.048c0,1.174-0.951,2.126-2.126,2.126c-1.174,0-2.126-0.952-2.126-2.126s0.952-2.126,2.126-2.126
		C34.049,62.922,35,63.874,35,65.048"/>
	<path fill="#FFFFFF" d="M91.685,32.321c0,1.174-0.952,2.126-2.126,2.126s-2.126-0.952-2.126-2.126c0-1.175,0.952-2.126,2.126-2.126
		S91.685,31.146,91.685,32.321"/>
	<path fill="#FFFFFF" d="M91.685,48.685c0,1.174-0.952,2.126-2.126,2.126s-2.126-0.952-2.126-2.126s0.952-2.126,2.126-2.126
		S91.685,47.511,91.685,48.685"/>
	<path fill="#FFFFFF" d="M91.685,65.048c0,1.174-0.952,2.126-2.126,2.126s-2.126-0.952-2.126-2.126s0.952-2.126,2.126-2.126
		S91.685,63.874,91.685,65.048"/>
	<polygon fill="#FFFFFF" points="36.442,105.281 36.772,105.281 36.772,107.459 36.784,107.459 38.665,105.281 39.056,105.281 
		37.78,106.772 39.237,109.291 38.857,109.291 37.56,107.031 36.772,107.938 36.772,109.291 36.442,109.291 	"/>
	<path fill="#FFFFFF" d="M39.732,105.42c0-0.166,0.12-0.265,0.269-0.265c0.144,0,0.271,0.099,0.271,0.265
		c0,0.147-0.127,0.252-0.271,0.252C39.853,105.672,39.732,105.567,39.732,105.42 M39.836,106.36h0.319v2.932h-0.319V106.36z"/>
	<path fill="#FFFFFF" d="M41.008,107.828c0-0.945,0.604-1.546,1.298-1.546c0.353,0,0.589,0.132,0.875,0.358l-0.022-0.528v-1.194
		h0.319v4.373h-0.264l-0.038-0.369h-0.012c-0.236,0.237-0.562,0.441-0.94,0.441C41.486,109.363,41.008,108.813,41.008,107.828
		 M43.158,108.621v-1.695c-0.297-0.264-0.545-0.362-0.819-0.362c-0.562,0-0.99,0.544-0.99,1.265c0,0.76,0.336,1.254,0.93,1.254
		C42.592,109.082,42.866,108.922,43.158,108.621"/>
	<path fill="#FFFFFF" d="M44.22,108.961l0.171-0.23c0.253,0.215,0.522,0.368,0.924,0.368c0.446,0,0.671-0.252,0.671-0.556
		c0-0.346-0.368-0.506-0.71-0.627c-0.434-0.153-0.918-0.336-0.918-0.842c0-0.429,0.347-0.791,0.962-0.791
		c0.319,0,0.634,0.137,0.854,0.313l-0.165,0.22c-0.198-0.148-0.413-0.264-0.699-0.264c-0.434,0-0.632,0.242-0.632,0.506
		c0,0.324,0.341,0.445,0.682,0.572c0.451,0.17,0.946,0.33,0.946,0.896c0,0.452-0.356,0.837-1.007,0.837
		C44.869,109.363,44.483,109.182,44.22,108.961"/>
	<path fill="#FFFFFF" d="M48.316,105.281h1.04c0.908,0,1.463,0.297,1.463,1.129c0,0.803-0.55,1.188-1.44,1.188h-0.732v1.693h-0.33
		V105.281z M49.312,107.322c0.792,0,1.172-0.27,1.172-0.912c0-0.649-0.396-0.854-1.194-0.854h-0.644v1.766H49.312z"/>
	<path fill="#FFFFFF" d="M51.65,108.857v-3.938h0.319v3.972c0,0.138,0.055,0.197,0.132,0.197c0.022,0,0.044,0,0.104-0.011
		l0.05,0.253c-0.056,0.018-0.11,0.033-0.215,0.033C51.776,109.363,51.65,109.198,51.65,108.857"/>
	<path fill="#FFFFFF" d="M52.915,108.555c0-0.649,0.578-0.957,1.87-1.105c0.012-0.436-0.116-0.887-0.671-0.887
		c-0.385,0-0.721,0.183-0.924,0.337l-0.143-0.231c0.225-0.154,0.633-0.385,1.11-0.385c0.698,0,0.946,0.5,0.946,1.148v1.86h-0.271
		l-0.031-0.374H54.79c-0.297,0.241-0.648,0.445-1.022,0.445C53.294,109.363,52.915,109.1,52.915,108.555 M54.785,108.637v-0.951
		c-1.154,0.132-1.551,0.401-1.551,0.853c0,0.401,0.275,0.556,0.599,0.556C54.158,109.094,54.438,108.939,54.785,108.637"/>
	<polygon fill="#FFFFFF" points="55.753,109.121 57.441,106.629 55.935,106.629 55.935,106.36 57.854,106.36 57.854,106.53 
		56.165,109.016 57.909,109.016 57.909,109.291 55.753,109.291 	"/>
	<path fill="#FFFFFF" d="M58.415,108.555c0-0.649,0.578-0.957,1.87-1.105c0.011-0.436-0.116-0.887-0.671-0.887
		c-0.386,0-0.722,0.183-0.925,0.337l-0.143-0.231c0.225-0.154,0.633-0.385,1.111-0.385c0.698,0,0.945,0.5,0.945,1.148v1.86h-0.27
		l-0.032-0.374H60.29c-0.297,0.241-0.649,0.445-1.023,0.445C58.794,109.363,58.415,109.1,58.415,108.555 M60.285,108.637v-0.951
		c-1.155,0.132-1.551,0.401-1.551,0.853c0,0.401,0.274,0.556,0.599,0.556C59.658,109.094,59.938,108.939,60.285,108.637"/>
	<polygon fill="#FFFFFF" points="62.88,105.281 63.21,105.281 63.21,107.02 65.295,107.02 65.295,105.281 65.619,105.281 
		65.619,109.291 65.295,109.291 65.295,107.306 63.21,107.306 63.21,109.291 62.88,109.291 	"/>
	<path fill="#FFFFFF" d="M66.549,108.555c0-0.649,0.578-0.957,1.87-1.105c0.011-0.436-0.116-0.887-0.671-0.887
		c-0.386,0-0.722,0.183-0.925,0.337l-0.143-0.231c0.225-0.154,0.633-0.385,1.111-0.385c0.698,0,0.945,0.5,0.945,1.148v1.86h-0.27
		l-0.032-0.374h-0.012c-0.297,0.241-0.649,0.445-1.023,0.445C66.928,109.363,66.549,109.1,66.549,108.555 M68.419,108.637v-0.951
		c-1.155,0.132-1.552,0.401-1.552,0.853c0,0.401,0.275,0.556,0.6,0.556C67.792,109.094,68.071,108.939,68.419,108.637"/>
	<polygon fill="#FFFFFF" points="69.761,104.918 70.079,104.918 70.079,108.086 70.091,108.086 71.492,106.359 71.856,106.359 
		70.899,107.521 72.011,109.291 71.657,109.291 70.713,107.752 70.079,108.5 70.079,109.291 69.761,109.291 	"/>
	<path fill="#FFFFFF" d="M72.384,107.828c0-0.979,0.616-1.545,1.325-1.545c0.71,0,1.326,0.566,1.326,1.545
		c0,0.975-0.616,1.535-1.326,1.535C73,109.363,72.384,108.803,72.384,107.828 M74.705,107.828c0-0.748-0.423-1.265-0.996-1.265
		c-0.572,0-0.99,0.517-0.99,1.265s0.418,1.26,0.99,1.26C74.282,109.088,74.705,108.576,74.705,107.828"/>
	<path fill="#FFFFFF" d="M75.65,107.828c0-0.945,0.605-1.546,1.298-1.546c0.354,0,0.589,0.132,0.875,0.358l-0.021-0.528v-1.194
		h0.318v4.373h-0.264l-0.038-0.369h-0.012c-0.236,0.237-0.562,0.441-0.94,0.441C76.13,109.363,75.65,108.813,75.65,107.828
		 M77.802,108.621v-1.695c-0.297-0.264-0.545-0.362-0.82-0.362c-0.561,0-0.99,0.544-0.99,1.265c0,0.76,0.336,1.254,0.931,1.254
		C77.234,109.082,77.51,108.922,77.802,108.621"/>
	<path fill="#FFFFFF" d="M79.017,108.555c0-0.649,0.578-0.957,1.87-1.105c0.012-0.436-0.116-0.887-0.671-0.887
		c-0.385,0-0.721,0.183-0.924,0.337l-0.143-0.231c0.225-0.154,0.633-0.385,1.11-0.385c0.698,0,0.946,0.5,0.946,1.148v1.86h-0.271
		l-0.031-0.374h-0.013c-0.297,0.241-0.648,0.445-1.022,0.445C79.396,109.363,79.017,109.1,79.017,108.555 M80.887,108.637v-0.951
		c-1.154,0.132-1.551,0.401-1.551,0.853c0,0.401,0.275,0.556,0.599,0.556C80.26,109.094,80.54,108.939,80.887,108.637"/>
	<path fill="#FFFFFF" d="M82.3,108.455v-1.826h-0.457v-0.241l0.469-0.028l0.037-0.847h0.271v0.847h0.842v0.27h-0.842v1.849
		c0,0.369,0.099,0.61,0.49,0.61c0.108,0,0.253-0.039,0.356-0.082l0.077,0.248c-0.17,0.06-0.356,0.109-0.49,0.109
		C82.477,109.363,82.3,109,82.3,108.455"/>
	<path fill="#FFFFFF" d="M83.923,107.829c0-0.952,0.622-1.546,1.286-1.546c0.711,0,1.135,0.506,1.135,1.363
		c0,0.082-0.006,0.16-0.018,0.231h-2.079c0.017,0.715,0.44,1.216,1.072,1.216c0.314,0,0.562-0.099,0.781-0.253l0.121,0.235
		c-0.236,0.149-0.511,0.287-0.936,0.287C84.532,109.363,83.923,108.791,83.923,107.829 M86.052,107.625
		c0-0.709-0.325-1.067-0.836-1.067c-0.479,0-0.908,0.396-0.969,1.067H86.052z"/>
	<path fill="#FFFFFF" d="M13.638,91.812c-0.051,0.13-0.101,0.35-0.13,0.529c-0.23,1.07-0.511,2.9-0.511,4.082
		c0,0.649,0.04,1.129,0.12,1.779c0.17-0.51,0.45-1.25,0.63-1.689l0.311,0.24c-0.23,0.609-0.601,1.619-0.7,2.08
		c-0.03,0.129-0.05,0.299-0.04,0.43c0.01,0.091,0.02,0.221,0.03,0.301l-0.471,0.04c-0.189-0.722-0.351-1.781-0.351-3.121
		c0-1.431,0.341-3.331,0.471-4.181c0.03-0.211,0.051-0.4,0.051-0.551L13.638,91.812z M20.288,98.863c-0.529-0.5-1.08-0.92-1.68-1.21
		c0.01,0.14,0.01,0.28,0.01,0.399c0,0.681-0.3,1.5-1.591,1.5c-1.3,0-1.96-0.528-1.96-1.33c0-0.719,0.68-1.379,1.951-1.379
		c0.39,0,0.74,0.05,1.069,0.129c-0.039-0.85-0.1-1.989-0.109-2.84c-0.36,0.01-0.73,0.02-1.09,0.02c-0.561,0-1.052-0.03-1.621-0.07
		v-0.49c0.55,0.051,1.069,0.08,1.641,0.08c0.36,0,0.72-0.01,1.07-0.02c0-0.52,0-0.99,0.01-1.311c0-0.18-0.01-0.42-0.03-0.58h0.601
		c-0.03,0.201-0.05,0.381-0.061,0.57c-0.02,0.311-0.02,0.83-0.02,1.29c0.64-0.05,1.26-0.12,1.8-0.229v0.51
		c-0.58,0.09-1.18,0.16-1.8,0.2c0.01,0.981,0.08,2.101,0.12,3.03c0.79,0.311,1.42,0.82,1.97,1.301L20.288,98.863z M18.108,97.463
		c-0.36-0.119-0.74-0.18-1.14-0.18c-0.841,0-1.421,0.391-1.421,0.9c0,0.55,0.52,0.89,1.351,0.89c0.96,0,1.22-0.47,1.22-1.18
		C18.118,97.773,18.118,97.633,18.108,97.463"/>
	<path fill="#FFFFFF" d="M23.848,96.383c-0.141,0.42-0.221,0.811-0.221,1.19c0,0.82,0.851,1.38,2.521,1.38
		c1.391,0,2.671-0.15,3.341-0.38l0.01,0.54c-0.619,0.189-1.92,0.35-3.341,0.35c-1.859,0-3.05-0.609-3.05-1.779
		c0-0.49,0.1-0.94,0.21-1.36L23.848,96.383z M23.688,92.502c0.71,0.09,1.61,0.131,2.57,0.131c0.94,0,1.871-0.07,2.551-0.141v0.52
		c-0.65,0.051-1.65,0.121-2.551,0.121c-0.96,0-1.801-0.041-2.57-0.11V92.502z"/>
	<path fill="#FFFFFF" d="M36.878,93.542c-0.681,0.149-1.42,0.271-2.131,0.341c-0.09,0.44-0.199,0.9-0.319,1.34
		c-0.36,1.42-1.03,3.481-1.54,4.512l-0.591-0.19c0.6-1.041,1.261-3.011,1.631-4.421c0.1-0.359,0.2-0.779,0.29-1.189
		c-0.38,0.028-0.741,0.049-1.061,0.049c-0.41,0-0.75-0.01-1.12-0.041l-0.011-0.52c0.431,0.061,0.811,0.071,1.151,0.071
		c0.34,0,0.729-0.021,1.149-0.052c0.091-0.439,0.16-0.819,0.19-1.039c0.03-0.221,0.05-0.51,0.03-0.7l0.64,0.05
		c-0.05,0.189-0.12,0.51-0.15,0.689c-0.06,0.281-0.119,0.601-0.189,0.94c0.68-0.079,1.399-0.198,2.03-0.37V93.542z M36.367,97.133
		c-0.099,0.35-0.149,0.66-0.149,0.93c0,0.492,0.21,1.012,1.82,1.012c0.641,0,1.32-0.07,1.87-0.189l-0.02,0.539
		c-0.521,0.08-1.18,0.141-1.86,0.141c-1.501,0-2.301-0.441-2.301-1.401c0-0.33,0.05-0.64,0.14-1.08L36.367,97.133z M36.317,94.773
		c0.491-0.051,1.12-0.08,1.751-0.08c0.58,0,1.19,0.02,1.7,0.08l-0.02,0.51c-0.511-0.07-1.08-0.12-1.65-0.12
		c-0.58,0-1.181,0.04-1.781,0.11V94.773z M39.169,93.602c-0.2-0.41-0.561-1.02-0.83-1.39l0.38-0.17c0.25,0.351,0.62,0.95,0.83,1.37
		L39.169,93.602z M39.769,91.662c0.28,0.37,0.67,0.98,0.87,1.37l-0.39,0.18c-0.23-0.45-0.561-1-0.851-1.38L39.769,91.662z"/>
	<path fill="#FFFFFF" d="M43.017,92.812c0.54-0.061,2.552-0.27,4.371-0.42c1.12-0.1,1.95-0.15,2.591-0.17v0.52
		c-0.58-0.01-1.461,0.01-1.95,0.17c-1.54,0.54-2.37,2.172-2.37,3.34c0,2.111,1.97,2.731,3.541,2.781l-0.182,0.52
		c-1.689-0.039-3.859-0.93-3.859-3.189c0-1.611,1.01-2.941,2.06-3.501c-0.88,0.101-3.94,0.38-4.971,0.59l-0.06-0.59
		C42.557,92.853,42.817,92.832,43.017,92.812"/>
	<path fill="#FFFFFF" d="M60.119,96.053c-0.17,0.021-0.44,0.07-0.811,0.131c-0.59,0.09-1.601,0.25-2.641,0.42
		c0.221,1.07,0.4,1.959,0.439,2.119c0.071,0.291,0.151,0.621,0.25,0.871l-0.609,0.129c-0.05-0.33-0.09-0.608-0.15-0.898
		c-0.029-0.17-0.2-1.071-0.42-2.141c-1.2,0.189-2.359,0.39-2.871,0.479c-0.37,0.06-0.6,0.11-0.818,0.17l-0.12-0.6
		c0.219-0.011,0.56-0.04,0.79-0.08c0.52-0.06,1.71-0.25,2.93-0.45l-0.45-2.251c-0.99,0.161-1.92,0.31-2.351,0.38
		c-0.311,0.061-0.569,0.111-0.75,0.151l-0.109-0.611c0.21-0.009,0.449-0.028,0.771-0.06c0.42-0.051,1.35-0.18,2.34-0.34
		c-0.13-0.61-0.22-1.051-0.24-1.141c-0.05-0.24-0.11-0.449-0.17-0.64l0.58-0.11c0.02,0.18,0.06,0.44,0.1,0.641
		c0.011,0.08,0.101,0.539,0.221,1.17c1.04-0.17,2.05-0.33,2.511-0.42c0.28-0.061,0.46-0.11,0.59-0.141l0.11,0.561
		c-0.101,0.01-0.351,0.05-0.591,0.09l-2.521,0.4c0.13,0.68,0.29,1.48,0.45,2.24c1.069-0.18,2.101-0.35,2.641-0.449
		c0.38-0.07,0.61-0.121,0.79-0.181L60.119,96.053z"/>
	<path fill="#FFFFFF" d="M64.498,96.443l-0.479,0.18c-0.161-0.52-0.722-1.93-0.892-2.23l0.471-0.19
		C63.769,94.572,64.309,95.934,64.498,96.443 M69.509,94.174c-0.05,0.129-0.091,0.258-0.119,0.35c-0.262,1.16-0.701,2.25-1.441,3.17
		c-0.92,1.15-2.13,1.9-3.21,2.311l-0.43-0.439c1.189-0.361,2.39-1.121,3.22-2.141c0.721-0.891,1.25-2.131,1.431-3.422L69.509,94.174
		z M66.688,95.844l-0.471,0.18c-0.1-0.44-0.579-1.752-0.77-2.151l0.479-0.16C66.088,94.102,66.578,95.424,66.688,95.844"/>
	<path fill="#FFFFFF" d="M78.819,92.861c-0.05,0.061-0.15,0.242-0.182,0.33c-0.35,0.901-1.028,2.162-1.75,3.041
		c1.091,0.94,2.302,2.23,2.991,3.062l-0.43,0.38c-0.68-0.87-1.84-2.141-2.892-3.061c-1.1,1.17-2.449,2.291-4.001,2.99l-0.399-0.43
		c1.61-0.641,3.051-1.82,4.131-3.031c0.69-0.779,1.491-2.08,1.761-2.979h-4.19c-0.321,0-0.861,0.028-0.911,0.04v-0.6
		c0.061,0.008,0.601,0.059,0.911,0.059h4.05c0.261,0,0.451-0.021,0.58-0.059L78.819,92.861z M79.159,92.882
		c-0.191-0.399-0.55-1-0.82-1.38l0.379-0.17c0.25,0.35,0.621,0.949,0.831,1.369L79.159,92.882z M79.779,90.982
		c0.27,0.359,0.66,0.979,0.859,1.359l-0.39,0.182c-0.22-0.441-0.55-1.002-0.84-1.371L79.779,90.982z"/>
	<path fill="#FFFFFF" d="M88.799,92.662h0.19c-0.05-0.119-0.07-0.25-0.07-0.39c0-0.601,0.47-1.081,1.07-1.081
		c0.59,0,1.08,0.48,1.08,1.081c0,0.59-0.49,1.069-1.08,1.069c-0.19,0-0.36-0.049-0.511-0.129l-0.01,0.039
		c-0.21,1.101-0.72,2.741-1.479,3.722c-0.921,1.159-2.031,2.04-3.893,2.62l-0.439-0.48c1.911-0.5,3.03-1.34,3.892-2.449
		c0.73-0.951,1.25-2.492,1.391-3.512h-5.392c-0.361,0-0.62,0.01-0.881,0.03v-0.58c0.261,0.03,0.56,0.06,0.89,0.06H88.799z
		 M90.699,92.272c0-0.39-0.32-0.72-0.71-0.72c-0.391,0-0.71,0.33-0.71,0.72s0.319,0.7,0.71,0.7
		C90.379,92.973,90.699,92.662,90.699,92.272"/>
	<path fill="#FFFFFF" d="M99.849,94.523c-0.04,0.07-0.089,0.17-0.109,0.229c-0.229,0.99-0.69,2.06-1.44,2.88
		c-1.07,1.16-2.311,1.69-3.58,2.041l-0.401-0.459c1.361-0.271,2.651-0.922,3.551-1.882c0.65-0.69,1.101-1.67,1.28-2.5h-5.591
		c-0.23,0-0.54,0.011-0.86,0.03v-0.571c0.32,0.04,0.62,0.06,0.86,0.06h5.461c0.17,0,0.351-0.02,0.451-0.06L99.849,94.523z
		 M93.577,92.053c0.25,0.029,0.5,0.039,0.812,0.039h3.989c0.311,0,0.58-0.01,0.802-0.039v0.549c-0.222-0.02-0.491-0.02-0.812-0.02
		h-3.979c-0.291,0-0.552,0.01-0.812,0.02V92.053z"/>
	<path fill="#FFFFFF" d="M109.369,94.002c0.399,0,0.75-0.04,0.81-0.049v0.57c-0.04-0.011-0.41-0.031-0.81-0.031h-1.311v0.361
		c0,2.771-0.561,4.061-2.761,5.061l-0.44-0.41c1.75-0.711,2.701-1.57,2.701-4.571v-0.44h-3.131v1.771c0,0.32,0.03,0.78,0.03,0.821
		h-0.58c0.01-0.041,0.05-0.48,0.05-0.821v-1.771h-1.221c-0.399,0-0.91,0.031-0.95,0.031v-0.57c0.031,0.009,0.571,0.049,0.95,0.049
		h1.221v-1.45c0-0.29-0.04-0.58-0.04-0.62h0.58c-0.01,0.04-0.04,0.301-0.04,0.611v1.459h3.131v-1.37c0-0.38-0.041-0.71-0.05-0.75
		h0.6c-0.01,0.04-0.05,0.37-0.05,0.75v1.37H109.369z M109.309,93.354c-0.149-0.421-0.42-1.052-0.609-1.412l0.359-0.119
		c0.19,0.34,0.48,0.99,0.63,1.4L109.309,93.354z M110.039,91.521c0.189,0.351,0.47,0.98,0.63,1.4l-0.38,0.13
		c-0.17-0.448-0.41-1.05-0.62-1.409L110.039,91.521z"/>
</g>
</svg>
