<?xml version="1.0" encoding="utf-8"?>
<!-- Generator: Adobe Illustrator 15.1.0, SVG Export Plug-In . SVG Version: 6.00 Build 0)  -->
<!DOCTYPE svg PUBLIC "-//W3C//DTD SVG 1.1//EN" "http://www.w3.org/Graphics/SVG/1.1/DTD/svg11.dtd">
<svg version="1.1" id="レイヤー_1" xmlns="http://www.w3.org/2000/svg" xmlns:xlink="http://www.w3.org/1999/xlink" x="0px"
	 y="0px" width="338px" height="39px" viewBox="0 0 338 39" enable-background="new 0 0 338 39" xml:space="preserve">
<g>
	<path fill="#575554" d="M61.098,15.918c-0.012-0.12-0.012-0.192-0.06-0.468c-0.228-1.403-0.324-2.555-0.324-3.814
		c0-1.08,0.072-2.135,0.228-3.178c0.06-0.36,0.06-0.36,0.324-1.715c0.084-0.42,0.132-0.768,0.132-0.888c0-0.012,0-0.024,0-0.048
		l1.619,0.168c-0.492,1.043-0.947,3.934-0.959,6.021c-0.012,0.432-0.012,0.432-0.012,0.624c0,0.084,0,0.084,0,0.192
		c0,0.096,0,0.12-0.012,0.252h0.012c0.06-0.132,0.06-0.132,0.144-0.348c0.024-0.084,0.084-0.216,0.144-0.408
		c0.108-0.251,0.108-0.251,0.228-0.54c0.024-0.036,0.036-0.072,0.144-0.372l0.995,0.444c-0.708,1.391-1.187,2.878-1.187,3.67
		c0,0.084,0,0.096,0.024,0.324L61.098,15.918z M63.809,8.062c0.563,0.144,1.187,0.192,2.17,0.192c0.42,0,0.684,0,1.104-0.024
		c0-0.708-0.012-1.307-0.012-1.799c0-0.264-0.012-0.444-0.036-0.576l1.499-0.036c-0.06,0.336-0.084,0.912-0.084,1.763
		c0,0.132,0,0.312,0,0.552c0.624-0.072,1.151-0.168,1.619-0.288c0.072-0.024,0.072-0.024,0.264-0.096l0.096-0.024l0.048,1.355
		c-0.12,0.012-0.132,0.012-0.348,0.06c-0.408,0.084-1.031,0.192-1.667,0.264c0,0.108,0,0.108,0,0.264c0,0.671,0,0.695,0.12,2.71
		c0.864,0.408,1.164,0.576,1.883,1.091c0.156,0.108,0.216,0.144,0.335,0.204l-0.576,1.451c-0.204-0.24-0.563-0.552-0.899-0.768
		c-0.408-0.264-0.684-0.444-0.755-0.492c0,0.072,0,0.096,0,0.168c0,0.264-0.036,0.503-0.096,0.671
		c-0.276,0.708-1.115,1.127-2.279,1.127c-1.571,0-2.53-0.744-2.53-1.967c0-1.164,1.02-1.979,2.471-1.979
		c0.443,0,0.744,0.048,1.067,0.168c-0.036-0.3-0.048-0.888-0.096-2.555c-0.479,0.012-0.768,0.024-1.079,0.024
		c-0.444,0-0.924-0.012-1.487-0.06c-0.168,0-0.3-0.012-0.36-0.012C64.073,9.441,64,9.441,63.977,9.441
		c-0.06-0.012-0.096-0.012-0.12-0.012c-0.012,0-0.036,0-0.072,0.012L63.809,8.062z M66.244,13.087c-0.768,0-1.248,0.3-1.248,0.792
		c0,0.444,0.432,0.744,1.104,0.744c0.444,0,0.792-0.132,0.971-0.372c0.108-0.144,0.156-0.324,0.156-0.648c0-0.132,0-0.324,0-0.324
		C66.831,13.135,66.604,13.087,66.244,13.087z"/>
	<path fill="#575554" d="M75.977,11.36c-0.755,0.624-1.091,1.127-1.091,1.643c0,0.78,0.875,1.115,2.902,1.115
		c1.427,0,2.999-0.216,3.766-0.503l0.132,1.643c-0.204,0.012-0.276,0.012-0.528,0.048c-1.439,0.204-2.207,0.264-3.238,0.264
		c-1.307,0-2.362-0.132-2.998-0.396c-1.031-0.396-1.535-1.067-1.535-2.003c0-0.912,0.468-1.703,1.547-2.603L75.977,11.36z
		 M74.154,6.431c0.923,0.216,1.991,0.3,3.598,0.3c1.523,0,2.375-0.06,3.166-0.228l0.048,1.343c-0.719,0.324-2.015,1.127-3.202,1.991
		L76.72,9.01c0.624-0.396,1.211-0.756,1.763-1.067c-0.528,0.072-1.043,0.096-1.799,0.096c-0.612,0-1.607-0.06-2.195-0.144
		c-0.24-0.024-0.276-0.036-0.444-0.036L74.154,6.431z"/>
	<path fill="#575554" d="M84.535,7.619c0.432,0.072,0.912,0.108,1.607,0.108c0.144,0,0.276,0,0.552-0.012
		c0.108-0.576,0.228-1.499,0.228-1.835c0-0.048,0-0.12-0.012-0.216l1.583,0.144c-0.072,0.264-0.084,0.324-0.192,0.936
		c-0.024,0.144-0.048,0.312-0.084,0.527c-0.012,0.06-0.036,0.156-0.072,0.372c0.78-0.072,1.487-0.192,2.051-0.36l0.06,1.379
		c-0.06,0.012-0.096,0.012-0.108,0.012l-0.276,0.048c-0.803,0.144-1.679,0.252-1.967,0.252c-0.444,2.315-1.043,4.318-2.087,7.064
		l-1.511-0.587c0.78-1.391,1.739-4.282,2.147-6.429c-0.06,0-0.108,0-0.12,0L86.07,9.01h-0.576c-0.012,0-0.12,0-0.276,0
		c-0.168-0.012-0.384-0.012-0.479-0.012c-0.06,0-0.12,0-0.228,0.012L84.535,7.619z M90.483,12.26
		c-0.48,0.612-0.624,0.899-0.624,1.332c0,0.611,0.6,0.923,1.799,0.923c0.875,0,2.027-0.192,2.723-0.444l0.108,1.463
		c-0.216,0.024-0.276,0.036-0.588,0.084c-0.995,0.156-1.523,0.204-2.23,0.204c-1.067,0-1.835-0.156-2.411-0.479
		c-0.516-0.3-0.852-0.875-0.852-1.475c0-0.636,0.228-1.176,0.887-2.087L90.483,12.26z M94.045,10.689
		c-0.576-0.06-0.912-0.084-1.511-0.084c-1.188,0-1.979,0.084-3.166,0.36L89.26,9.633c1.691-0.324,2.278-0.384,3.574-0.384
		c0.36,0,0.636,0,1.188,0.012L94.045,10.689z M92.066,5.987c0.528,0.563,0.852,1.02,1.259,1.763l-0.839,0.444
		c-0.396-0.732-0.731-1.211-1.259-1.787L92.066,5.987z M93.925,7.438c-0.359-0.66-0.755-1.223-1.223-1.739l0.804-0.42
		c0.54,0.552,0.875,1.007,1.247,1.691L93.925,7.438z"/>
	<path fill="#575554" d="M96.438,7.139c0.264,0.012,0.396,0.012,0.456,0.012c0.216,0,0.216,0,1.979-0.12
		c0.671-0.036,2.662-0.144,5.984-0.3c0.983-0.048,1.164-0.06,1.379-0.12l0.084,1.535c-0.132-0.012-0.132-0.012-0.252-0.012
		c-0.72,0-1.607,0.24-2.375,0.647c-1.523,0.792-2.423,1.991-2.423,3.202c0,0.936,0.588,1.655,1.595,1.955
		c0.587,0.18,1.355,0.312,1.787,0.312c0.012,0,0.12,0,0.24-0.012l-0.216,1.631c-0.144-0.036-0.204-0.048-0.408-0.072
		c-1.319-0.168-2.075-0.384-2.807-0.792c-1.104-0.624-1.715-1.643-1.715-2.89c0-1.02,0.408-2.027,1.139-2.831
		c0.456-0.492,0.888-0.804,1.667-1.2c-0.971,0.144-1.439,0.18-4.042,0.372c-0.804,0.06-1.523,0.144-1.991,0.24L96.438,7.139z"/>
	<path fill="#575554" d="M109.59,6.155c0.276,0.048,0.576,0.06,1.211,0.06c0.72,0,1.787-0.048,2.231-0.108
		c0.24-0.024,0.324-0.048,0.479-0.144l0.948,0.815c-0.108,0.144-0.168,0.276-0.252,0.504c-0.06,0.144-0.792,2.351-0.899,2.722
		c0.936,0.132,1.739,0.36,2.65,0.756c0.096-0.612,0.12-1.104,0.12-2.219c0-0.264-0.012-0.396-0.048-0.636l1.511,0.06
		c-0.048,0.252-0.06,0.348-0.072,0.804c-0.036,1.055-0.096,1.775-0.216,2.542c0.384,0.192,0.912,0.468,1.283,0.684
		c0.324,0.192,0.372,0.204,0.552,0.288l-0.54,1.583c-0.348-0.3-1.043-0.768-1.655-1.116c-0.336,0.888-0.696,1.475-1.307,2.111
		c-0.528,0.552-1.127,0.996-1.811,1.355c-0.504-0.624-0.624-0.744-1.091-1.08c0.899-0.432,1.367-0.744,1.859-1.259
		c0.479-0.516,0.875-1.163,1.067-1.775c-0.852-0.408-1.559-0.636-2.699-0.828c-0.528,1.583-0.839,2.351-1.187,2.95
		c-0.444,0.768-0.984,1.14-1.644,1.14c-1.103,0-1.919-0.972-1.919-2.279c0-1.104,0.54-2.039,1.487-2.626
		c0.624-0.384,1.259-0.54,2.267-0.576c0.312-0.948,0.456-1.403,0.755-2.507c-0.612,0.048-0.899,0.06-2.075,0.108
		c-0.492,0.024-0.708,0.036-0.948,0.072L109.59,6.155z M109.95,11.864c-0.3,0.324-0.456,0.731-0.456,1.151
		c0,0.492,0.264,0.887,0.587,0.887c0.228,0,0.408-0.216,0.684-0.755c0.24-0.48,0.527-1.224,0.779-2.003
		C110.741,11.265,110.322,11.457,109.95,11.864z"/>
	<path fill="#575554" d="M123.473,8.038c-0.18,0.66-0.384,1.775-0.54,2.951c-0.024,0.167-0.024,0.167-0.06,0.348l0.024,0.024
		c0.695-0.671,2.183-1.139,3.634-1.139c2.039,0,3.382,1.007,3.382,2.542c0,0.875-0.468,1.763-1.235,2.314
		c-0.78,0.564-1.775,0.816-3.167,0.816c-1.031,0-1.691-0.084-3.058-0.42c-0.012-0.744-0.036-0.983-0.18-1.547
		c1.175,0.408,2.207,0.6,3.226,0.6c1.691,0,2.866-0.708,2.866-1.727c0-0.804-0.755-1.284-2.027-1.284
		c-1.067,0-2.183,0.324-2.986,0.875c-0.216,0.156-0.288,0.228-0.54,0.516l-1.511-0.048c0.036-0.216,0.036-0.264,0.096-0.719
		c0.096-0.744,0.288-2.075,0.504-3.49c0.048-0.288,0.06-0.432,0.072-0.696L123.473,8.038z M123.629,5.688
		c0.828,0.456,3.118,1.139,4.474,1.331l-0.492,1.379c-2.051-0.468-3.31-0.863-4.678-1.499L123.629,5.688z"/>
	<path fill="#575554" d="M134.417,6.659c-0.06,0.443-0.096,1.031-0.096,1.823c0,1.043,0.096,2.483,0.228,3.214
		c0.204,1.247,0.588,2.015,0.972,2.015c0.18,0,0.348-0.18,0.492-0.516c0.288-0.647,0.504-1.367,0.636-2.171
		c0.42,0.48,0.612,0.66,1.199,1.092c-0.624,2.338-1.319,3.31-2.339,3.31c-0.803,0-1.451-0.588-1.931-1.739
		c-0.492-1.199-0.708-2.938-0.756-6.26c-0.012-0.42-0.012-0.504-0.048-0.768H134.417z M140.09,7.199
		c1.511,1.811,2.351,3.814,2.699,6.453l-1.487,0.563c-0.072-1.127-0.348-2.375-0.768-3.466c-0.408-1.091-0.983-2.062-1.703-2.95
		L140.09,7.199z"/>
	<path fill="#575554" d="M148.205,16.182c-0.144-0.432-0.24-0.671-0.336-0.912c-0.54,0.216-1.667,0.54-2.663,0.78
		c-0.516,0.12-0.695,0.168-0.935,0.252l-0.3-1.308c0.348-0.024,0.348-0.024,0.779-0.096V9.549c0-0.348-0.012-0.503-0.024-0.744
		c-0.144,0.096-0.24,0.168-0.468,0.336c-0.096-0.516-0.216-0.863-0.444-1.355c0.672-0.432,0.936-0.635,1.475-1.163
		c0.42-0.408,0.708-0.78,0.912-1.188h1.211c0.312,0.564,0.875,1.175,1.607,1.727c-0.012-0.384-0.012-0.528-0.036-0.744
		c0.264,0.024,0.516,0.036,0.995,0.036h1.211V6.251c0-0.335-0.024-0.576-0.06-0.839h1.403c-0.048,0.252-0.06,0.444-0.06,0.839v0.204
		h1.308c0.468,0,0.852-0.024,1.163-0.06c-0.024,0.24-0.036,0.48-0.036,0.84v0.899c0,0.348,0,0.587,0.036,0.815h-0.828
		c0,0.192,0,0.216,0,0.276v1.499c0,0.48,0,0.696,0.036,0.912c-0.288-0.024-0.54-0.036-0.888-0.036h-2.506v0.864h2.89
		c0.432,0,0.696-0.012,0.948-0.036c-0.036,0.276-0.036,0.552-0.036,0.948v2.062c0,0.48,0.012,0.756,0.048,1.056h-1.283v-0.576
		h-2.555v0.611h-1.307c0.036-0.264,0.06-0.563,0.06-1.031V9.394c0-0.192,0-0.228-0.012-0.456h-0.527
		c0.024-0.251,0.036-0.468,0.036-0.743V7.451c-0.276,0.36-0.396,0.552-0.527,0.911c-0.768-0.635-1.14-1.043-1.631-1.751
		c-0.587,0.792-1.055,1.295-1.883,1.991c0.216,0.012,0.312,0.012,0.611,0.012h0.648V8.218c0-0.252-0.012-0.396-0.048-0.6h1.199
		c-0.036,0.192-0.048,0.348-0.048,0.611v0.384h0.468c0.467,0,0.695-0.012,0.947-0.048c-0.036,0.3-0.036,0.588-0.036,1.02v2.255
		c0,0.456,0,0.719,0.024,0.971c-0.192-0.024-0.384-0.036-0.708-0.036h-2.075v1.883c0.744-0.18,0.947-0.24,1.427-0.396
		c-0.18-0.372-0.24-0.492-0.504-0.899l1.007-0.42c0.516,0.78,0.912,1.523,1.392,2.651L148.205,16.182z M147.521,10.209V9.585h-1.559
		v0.624H147.521z M145.962,11.792h1.559v-0.671h-1.559V11.792z M153.698,7.594h-3.454v0.84h2.95c0.192,0,0.288,0,0.504-0.012V7.594z
		 M150.759,10.545h2.135v-1.08h-2.135V10.545z M150.759,14.803h2.566v-1.235h-2.566V14.803z"/>
	<path fill="#575554" d="M162.915,10.917c0,0.792-0.636,1.427-1.427,1.427s-1.427-0.636-1.427-1.427s0.636-1.427,1.427-1.427
		S162.915,10.125,162.915,10.917z"/>
	<path fill="#575554" d="M169.098,15.918c-0.012-0.12-0.012-0.192-0.06-0.468c-0.228-1.403-0.324-2.555-0.324-3.814
		c0-1.08,0.072-2.135,0.228-3.178c0.06-0.36,0.06-0.36,0.324-1.715c0.084-0.42,0.132-0.768,0.132-0.888c0-0.012,0-0.024,0-0.048
		l1.619,0.168c-0.492,1.043-0.947,3.934-0.959,6.021c-0.012,0.432-0.012,0.432-0.012,0.624c0,0.084,0,0.084,0,0.192
		c0,0.096,0,0.12-0.012,0.252h0.012c0.06-0.132,0.06-0.132,0.144-0.348c0.024-0.084,0.084-0.216,0.144-0.408
		c0.108-0.251,0.108-0.251,0.228-0.54c0.024-0.036,0.036-0.072,0.144-0.372l0.995,0.444c-0.708,1.391-1.187,2.878-1.187,3.67
		c0,0.084,0,0.096,0.024,0.324L169.098,15.918z M171.809,8.062c0.563,0.144,1.187,0.192,2.17,0.192c0.42,0,0.684,0,1.104-0.024
		c0-0.708-0.012-1.307-0.012-1.799c0-0.264-0.012-0.444-0.036-0.576l1.499-0.036c-0.06,0.336-0.084,0.912-0.084,1.763
		c0,0.132,0,0.312,0,0.552c0.624-0.072,1.151-0.168,1.619-0.288c0.072-0.024,0.072-0.024,0.264-0.096l0.096-0.024l0.048,1.355
		c-0.12,0.012-0.132,0.012-0.348,0.06c-0.408,0.084-1.031,0.192-1.667,0.264c0,0.108,0,0.108,0,0.264c0,0.671,0,0.695,0.12,2.71
		c0.864,0.408,1.164,0.576,1.883,1.091c0.156,0.108,0.216,0.144,0.335,0.204l-0.576,1.451c-0.204-0.24-0.563-0.552-0.899-0.768
		c-0.408-0.264-0.684-0.444-0.755-0.492c0,0.072,0,0.096,0,0.168c0,0.264-0.036,0.503-0.096,0.671
		c-0.276,0.708-1.115,1.127-2.279,1.127c-1.571,0-2.53-0.744-2.53-1.967c0-1.164,1.02-1.979,2.471-1.979
		c0.443,0,0.744,0.048,1.067,0.168c-0.036-0.3-0.048-0.888-0.096-2.555c-0.479,0.012-0.768,0.024-1.079,0.024
		c-0.444,0-0.924-0.012-1.487-0.06c-0.168,0-0.3-0.012-0.36-0.012c-0.108-0.012-0.18-0.012-0.204-0.012
		c-0.06-0.012-0.096-0.012-0.12-0.012c-0.012,0-0.036,0-0.072,0.012L171.809,8.062z M174.244,13.087c-0.768,0-1.248,0.3-1.248,0.792
		c0,0.444,0.432,0.744,1.104,0.744c0.444,0,0.792-0.132,0.971-0.372c0.108-0.144,0.156-0.324,0.156-0.648c0-0.132,0-0.324,0-0.324
		C174.831,13.135,174.604,13.087,174.244,13.087z"/>
	<path fill="#575554" d="M183.977,11.36c-0.755,0.624-1.091,1.127-1.091,1.643c0,0.78,0.875,1.115,2.902,1.115
		c1.427,0,2.999-0.216,3.766-0.503l0.132,1.643c-0.204,0.012-0.276,0.012-0.528,0.048c-1.439,0.204-2.207,0.264-3.238,0.264
		c-1.307,0-2.362-0.132-2.998-0.396c-1.031-0.396-1.535-1.067-1.535-2.003c0-0.912,0.468-1.703,1.547-2.603L183.977,11.36z
		 M182.154,6.431c0.923,0.216,1.991,0.3,3.598,0.3c1.523,0,2.375-0.06,3.166-0.228l0.048,1.343
		c-0.719,0.324-2.015,1.127-3.202,1.991L184.72,9.01c0.624-0.396,1.211-0.756,1.763-1.067c-0.528,0.072-1.043,0.096-1.799,0.096
		c-0.612,0-1.607-0.06-2.195-0.144c-0.24-0.024-0.276-0.036-0.444-0.036L182.154,6.431z"/>
	<path fill="#575554" d="M192.535,7.619c0.432,0.072,0.911,0.108,1.606,0.108c0.144,0,0.276,0,0.552-0.012
		c0.107-0.576,0.229-1.499,0.229-1.835c0-0.048,0-0.12-0.013-0.216l1.583,0.144c-0.072,0.264-0.084,0.324-0.191,0.936
		c-0.024,0.144-0.049,0.312-0.084,0.527c-0.012,0.06-0.036,0.156-0.072,0.372c0.779-0.072,1.487-0.192,2.051-0.36l0.061,1.379
		c-0.061,0.012-0.096,0.012-0.108,0.012l-0.276,0.048c-0.803,0.144-1.678,0.252-1.967,0.252c-0.443,2.315-1.043,4.318-2.086,7.064
		l-1.512-0.587c0.779-1.391,1.739-4.282,2.146-6.429c-0.06,0-0.107,0-0.119,0L194.07,9.01h-0.576c-0.012,0-0.12,0-0.275,0
		c-0.168-0.012-0.385-0.012-0.48-0.012c-0.06,0-0.119,0-0.228,0.012L192.535,7.619z M198.483,12.26
		c-0.479,0.612-0.624,0.899-0.624,1.332c0,0.611,0.6,0.923,1.799,0.923c0.876,0,2.027-0.192,2.723-0.444l0.108,1.463
		c-0.216,0.024-0.276,0.036-0.588,0.084c-0.995,0.156-1.522,0.204-2.23,0.204c-1.067,0-1.835-0.156-2.411-0.479
		c-0.516-0.3-0.852-0.875-0.852-1.475c0-0.636,0.229-1.176,0.888-2.087L198.483,12.26z M202.045,10.689
		c-0.575-0.06-0.911-0.084-1.511-0.084c-1.188,0-1.979,0.084-3.166,0.36l-0.108-1.332c1.691-0.324,2.279-0.384,3.574-0.384
		c0.359,0,0.636,0,1.188,0.012L202.045,10.689z M200.066,5.987c0.527,0.563,0.852,1.02,1.26,1.763l-0.84,0.444
		c-0.396-0.732-0.731-1.211-1.26-1.787L200.066,5.987z M201.926,7.438c-0.359-0.66-0.756-1.223-1.224-1.739l0.804-0.42
		c0.539,0.552,0.875,1.007,1.247,1.691L201.926,7.438z"/>
	<path fill="#575554" d="M204.438,7.139c0.265,0.012,0.396,0.012,0.456,0.012c0.216,0,0.216,0,1.979-0.12
		c0.672-0.036,2.662-0.144,5.984-0.3c0.984-0.048,1.164-0.06,1.38-0.12l0.084,1.535c-0.132-0.012-0.132-0.012-0.252-0.012
		c-0.72,0-1.606,0.24-2.374,0.647c-1.523,0.792-2.424,1.991-2.424,3.202c0,0.936,0.588,1.655,1.596,1.955
		c0.588,0.18,1.355,0.312,1.787,0.312c0.012,0,0.119,0,0.24-0.012l-0.217,1.631c-0.144-0.036-0.203-0.048-0.407-0.072
		c-1.319-0.168-2.075-0.384-2.807-0.792c-1.104-0.624-1.715-1.643-1.715-2.89c0-1.02,0.407-2.027,1.14-2.831
		c0.455-0.492,0.887-0.804,1.666-1.2c-0.971,0.144-1.438,0.18-4.041,0.372c-0.804,0.06-1.523,0.144-1.991,0.24L204.438,7.139z"/>
	<path fill="#575554" d="M219.977,7.019c-0.107-0.587-0.156-0.792-0.287-1.127l1.582-0.252c0.013,0.312,0.061,0.66,0.145,1.127
		l0.191,1.043l2.531-0.396c0.588-0.096,0.84-0.156,1.151-0.264l0.251,1.439c-0.323,0.024-0.323,0.024-1.15,0.156l-2.531,0.396
		l0.36,1.967l2.818-0.444c0.503-0.083,0.923-0.18,1.247-0.276l0.264,1.439c-0.252,0.012-0.299,0.012-0.551,0.06
		c-0.072,0-0.133,0.012-0.192,0.024c-0.084,0.012-0.239,0.036-0.479,0.072l-2.855,0.456l0.433,2.327
		c0.144,0.792,0.155,0.828,0.288,1.235l-1.607,0.288c-0.012-0.36-0.061-0.695-0.156-1.259l-0.432-2.363l-2.963,0.468
		c-0.575,0.096-0.791,0.144-1.223,0.264l-0.24-1.476c0.408,0,0.756-0.036,1.271-0.12l2.914-0.468l-0.359-1.967l-2.23,0.348
		c-0.552,0.096-0.996,0.18-1.319,0.276l-0.24-1.475c0.433-0.012,0.815-0.06,1.319-0.132l2.23-0.348L219.977,7.019z"/>
	<path fill="#575554" d="M229.682,8.578c0.504,0.923,0.744,1.499,1.176,2.842l-1.355,0.432c-0.312-1.211-0.553-1.847-1.092-2.902
		L229.682,8.578z M236.566,8.662c-0.072,0.18-0.097,0.24-0.168,0.611c-0.349,1.631-0.889,2.951-1.656,3.994
		c-0.887,1.211-1.883,1.991-3.658,2.89c-0.311-0.528-0.455-0.708-0.959-1.188c0.84-0.324,1.332-0.587,2.039-1.103
		c1.403-1.02,2.207-2.243,2.723-4.162c0.156-0.587,0.216-1.007,0.216-1.379L236.566,8.662z M232.236,8.086
		c0.635,1.188,0.863,1.715,1.163,2.759l-1.331,0.42c-0.229-0.912-0.588-1.835-1.092-2.819L232.236,8.086z"/>
	<path fill="#575554" d="M247.254,16.182c-0.828-1.055-2.494-2.674-3.682-3.562c-1.199,1.391-2.818,2.615-4.57,3.466
		c-0.323-0.612-0.491-0.852-0.971-1.332c1.234-0.444,2.807-1.475,3.934-2.59c1.079-1.056,1.906-2.267,2.494-3.61l0.061-0.132
		l0.035-0.084c0-0.024,0.013-0.048,0.037-0.108c-0.133,0.012-0.168,0.012-0.264,0.012l-0.108,0.012l-3.599,0.06
		c-0.647,0.012-0.947,0.036-1.307,0.084l-0.049-1.523c0.336,0.06,0.564,0.072,1.057,0.072c0.035,0,0.143,0,0.287,0l4.006-0.06
		c0.672-0.012,0.768-0.024,1.067-0.132l0.888,1.067c-0.12,0.132-0.275,0.384-0.384,0.647c-0.456,1.092-1.116,2.231-1.751,3.059
		c1.331,0.912,1.99,1.475,3.97,3.394L247.254,16.182z M246.799,5.627c0.527,0.564,0.851,1.02,1.259,1.763l-0.804,0.444
		c-0.396-0.732-0.731-1.211-1.26-1.787L246.799,5.627z M248.657,7.079c-0.36-0.66-0.756-1.223-1.224-1.739l0.756-0.384
		c0.539,0.552,0.875,1.007,1.247,1.691L248.657,7.079z"/>
	<path fill="#575554" d="M257.838,6.755c0.36,0,0.504-0.012,0.709-0.024c0.012-0.78,0.611-1.391,1.379-1.391
		s1.391,0.624,1.391,1.379c0,0.768-0.623,1.392-1.391,1.392c-0.072,0-0.145-0.012-0.229-0.024c-0.971,3.922-3.094,6.369-6.884,7.952
		c-0.312-0.624-0.516-0.899-1.056-1.427c3.322-1.031,5.493-3.262,6.261-6.452h-5.709c-0.888,0-1.115,0.012-1.511,0.072V6.671
		c0.432,0.072,0.719,0.084,1.535,0.084H257.838z M259.146,6.719c0,0.432,0.348,0.792,0.779,0.792c0.443,0,0.791-0.36,0.791-0.792
		c0-0.432-0.348-0.779-0.791-0.779C259.494,5.939,259.146,6.287,259.146,6.719z"/>
	<path fill="#575554" d="M272.201,9.681c-0.119,0.216-0.191,0.384-0.336,0.756c-0.623,1.763-1.535,3.094-2.782,4.054
		c-0.852,0.66-1.631,1.067-3.142,1.631c-0.265-0.6-0.408-0.803-0.936-1.391c1.463-0.372,2.41-0.815,3.334-1.583
		c0.887-0.744,1.402-1.475,1.931-2.807h-5.841c-0.804,0-1.104,0.012-1.535,0.06V8.938c0.455,0.072,0.72,0.084,1.559,0.084h5.709
		c0.744,0,0.984-0.024,1.355-0.108L272.201,9.681z M263.914,6.047c0.396,0.072,0.647,0.084,1.402,0.084h4.187
		c0.755,0,1.007-0.012,1.403-0.084v1.475c-0.372-0.048-0.6-0.06-1.379-0.06h-4.234c-0.779,0-1.008,0.012-1.379,0.06V6.047z"/>
	<path fill="#575554" d="M280.915,8.17c0-0.312,0-0.6,0-0.708c0-0.144,0-0.264,0-0.288c0-0.636-0.012-0.912-0.048-1.188h1.535
		c-0.036,0.288-0.036,0.372-0.036,0.792c0,0.444-0.012,0.912-0.012,1.391h0.755c0.912,0,1.141-0.012,1.572-0.084v1.463
		c-0.408-0.048-0.576-0.06-1.548-0.06h-0.792c-0.023,2.159-0.144,2.927-0.587,3.874c-0.659,1.295-1.835,2.219-3.562,2.794
		c-0.205-0.479-0.408-0.768-0.9-1.271c1.703-0.479,2.711-1.235,3.227-2.398c0.287-0.72,0.359-1.307,0.384-2.999h-3.106v1.787
		c0,0.54,0.012,0.72,0.048,1.007h-1.56c0.037-0.251,0.037-0.384,0.049-1.031V9.489h-0.732c-0.959,0-1.127,0.012-1.535,0.06V8.086
		c0.432,0.072,0.66,0.084,1.56,0.084h0.708V6.971c0-0.611-0.012-0.768-0.061-1.067h1.571c-0.048,0.396-0.048,0.444-0.048,1.02V8.17
		H280.915z M283.206,5.292c0.36,0.588,0.624,1.164,0.827,1.871l-0.827,0.24c-0.228-0.768-0.479-1.355-0.815-1.883L283.206,5.292z
		 M284.682,7.007c-0.181-0.612-0.457-1.224-0.816-1.811l0.768-0.24c0.324,0.503,0.576,1.067,0.816,1.799L284.682,7.007z"/>
</g>
<g>
	<path fill="#575554" d="M14.283,32.095c0.719,0.972,0.852,1.14,1.199,1.523h-2.219c-0.18-0.36-0.48-0.864-0.756-1.259L10.121,29
		l-1.307,1.307v1.763c0,0.708,0.024,1.043,0.108,1.547H7.147c0.072-0.54,0.096-0.912,0.096-1.547v-6.452
		c0-0.648-0.024-1.043-0.096-1.547h1.775c-0.072,0.396-0.108,0.863-0.108,1.547v2.794l3.059-3.178
		c0.468-0.48,0.695-0.768,0.935-1.164h2.267c-0.348,0.348-0.744,0.731-1.271,1.271l-2.566,2.626L14.283,32.095z"/>
	<path fill="#575554" d="M18.162,24.071v1.523h-1.763v-1.523H18.162z M18.15,26.734c-0.06,0.444-0.084,0.839-0.084,1.571v3.742
		c0,0.66,0.024,1.067,0.084,1.571h-1.751c0.072-0.54,0.096-0.959,0.096-1.559v-3.766c0-0.66-0.024-1.067-0.096-1.559H18.15z"/>
	<path fill="#575554" d="M24.256,28.245c-0.504-0.144-0.756-0.192-1.067-0.192c-0.6,0-1.056,0.192-1.391,0.587
		c-0.3,0.348-0.42,0.624-0.492,1.2v2.219c0,0.647,0.024,0.995,0.083,1.559h-1.715c0.06-0.588,0.084-0.936,0.084-1.559v-3.766
		c0-0.731-0.012-1.067-0.084-1.559h1.631v1.127c0.432-0.852,1.175-1.259,2.254-1.259c0.288,0,0.576,0.036,1.116,0.132L24.256,28.245
		z"/>
	<path fill="#575554" d="M30.112,32.838c-0.48,0.456-0.78,0.624-1.271,0.756c-0.348,0.096-0.731,0.144-1.115,0.144
		c-1.463,0-2.351-0.755-2.351-2.015c0-0.839,0.528-1.595,1.355-1.943c0.78-0.324,1.667-0.444,3.382-0.48v-0.611
		c0-0.696-0.468-1.056-1.379-1.056c-0.48,0-0.972,0.132-1.248,0.348c-0.228,0.168-0.335,0.336-0.479,0.768l-1.535-0.276
		c0.276-0.695,0.492-1.007,0.947-1.331c0.588-0.432,1.259-0.612,2.291-0.612c1.151,0,1.847,0.204,2.363,0.708
		c0.408,0.384,0.563,0.84,0.563,1.655v3.226c0,0.636,0.024,0.959,0.096,1.5h-1.619V32.838z M30.112,30.344
		c-2.291,0.048-3.19,0.444-3.19,1.379c0,0.563,0.42,0.912,1.091,0.912c0.636,0,1.259-0.24,1.667-0.636
		c0.288-0.288,0.432-0.636,0.432-1.056V30.344z"/>
	<path fill="#575554" d="M34.901,24.071c-0.06,0.468-0.083,0.852-0.083,1.571v6.417c0,0.635,0.024,1.031,0.083,1.559h-1.739
		c0.06-0.516,0.084-0.864,0.084-1.559V25.63c0-0.72-0.024-1.104-0.084-1.559H34.901z"/>
	<path fill="#575554" d="M38.178,24.071v1.523h-1.763v-1.523H38.178z M38.166,26.734c-0.06,0.444-0.084,0.839-0.084,1.571v3.742
		c0,0.66,0.024,1.067,0.084,1.571h-1.751c0.072-0.54,0.096-0.959,0.096-1.559v-3.766c0-0.66-0.024-1.067-0.096-1.559H38.166z"/>
	<path fill="#575554" d="M41.01,31.459c0.204,0.816,0.647,1.14,1.583,1.14c0.888,0,1.439-0.348,1.439-0.912
		c0-0.24-0.12-0.468-0.312-0.6c-0.228-0.156-0.3-0.168-1.259-0.384c-0.948-0.204-1.319-0.324-1.727-0.516
		c-0.684-0.324-1.056-0.899-1.056-1.595c0-0.42,0.132-0.815,0.372-1.115c0.492-0.624,1.307-0.936,2.398-0.936
		c0.983,0,1.763,0.24,2.255,0.695c0.312,0.3,0.48,0.6,0.647,1.188l-1.583,0.204c-0.132-0.66-0.54-0.948-1.319-0.948
		c-0.743,0-1.247,0.336-1.247,0.84c0,0.228,0.132,0.432,0.372,0.563c0.264,0.132,0.516,0.204,1.2,0.36
		c1.223,0.264,1.715,0.432,2.111,0.731c0.467,0.336,0.695,0.828,0.695,1.487c0,0.492-0.228,1.02-0.587,1.355
		c-0.552,0.516-1.392,0.779-2.483,0.779c-1.235,0-2.159-0.372-2.674-1.067c-0.216-0.288-0.324-0.528-0.468-1.067L41.01,31.459z"/>
	<path fill="#575554" d="M55.746,31.855c-0.647-0.959-1.067-1.463-1.775-2.111c-0.036,0.684-0.06,0.923-0.096,1.259
		c-0.084,0.78-0.36,1.164-0.912,1.283c-0.228,0.06-0.6,0.084-1.007,0.084c-0.12,0-0.24,0-0.492-0.024
		c-0.048-0.492-0.132-0.804-0.324-1.223c0.372,0.06,0.672,0.096,0.972,0.096c0.288,0,0.408-0.06,0.492-0.252
		c0.12-0.264,0.204-1.463,0.204-2.806c0-0.204,0-0.492-0.012-0.888h-1.02c-0.108,0-0.18,0-0.563,0.012
		c0.288,0.384,0.372,0.516,0.671,1.02l-1.02,0.755c-0.527-0.947-0.899-1.487-1.451-2.099l0.996-0.66
		c0.288,0.324,0.372,0.419,0.612,0.731c0.419-0.755,0.792-1.547,0.959-2.063h-2.902c-0.54,0-0.983,0.024-1.476,0.072v-1.308
		c0.444,0.048,0.888,0.072,1.451,0.072h7.94c0.647,0,1.031-0.024,1.475-0.072v1.308c-0.444-0.048-0.839-0.072-1.463-0.072h-3.73
		c-0.191,0.552-0.335,0.888-0.54,1.295h0.444c0.479,0,0.696-0.012,0.912-0.048c-0.024,0.156-0.048,0.384-0.048,0.587v0.156
		c0,0.192,0,0.408,0,0.887c0.816-0.695,1.319-1.235,1.644-1.775l1.019,0.804c-0.204,0.204-0.216,0.216-0.611,0.66
		c-0.324,0.335-0.875,0.851-1.343,1.247l-0.72-0.708c-0.012,0.576-0.024,0.899-0.048,1.487l0.827-0.624
		c0.78,0.708,1.295,1.271,1.931,2.123L55.746,31.855z M49.233,32.707h7.556v-5.709c0-0.419-0.012-0.708-0.06-1.043h1.416
		c-0.048,0.384-0.072,0.804-0.072,1.271v5.469c0,0.9,0.024,1.403,0.072,1.775h-1.367v-0.6h-7.544v0.6H47.89
		c0.048-0.444,0.072-1.032,0.072-1.799v-5.577c0-0.42-0.024-0.768-0.072-1.14h1.403c-0.048,0.312-0.06,0.564-0.06,1.032v3.682
		c0.671-0.312,1.727-1.031,2.699-1.835l0.54,0.972c-0.6,0.54-1.451,1.188-2.207,1.691c-0.036,0.024-0.168,0.12-0.396,0.288
		l-0.636-0.948V32.707z"/>
	<path fill="#575554" d="M63.752,34.182c-0.144-0.432-0.24-0.671-0.336-0.912c-0.54,0.216-1.667,0.54-2.663,0.78
		c-0.516,0.12-0.695,0.168-0.935,0.252l-0.3-1.308c0.348-0.024,0.348-0.024,0.78-0.096v-5.349c0-0.348-0.012-0.503-0.024-0.744
		c-0.144,0.096-0.24,0.168-0.468,0.336c-0.096-0.516-0.216-0.863-0.444-1.355c0.672-0.432,0.936-0.635,1.475-1.163
		c0.42-0.408,0.708-0.78,0.912-1.188h1.211c0.312,0.564,0.875,1.175,1.607,1.727c-0.012-0.384-0.012-0.528-0.036-0.744
		c0.264,0.024,0.516,0.036,0.995,0.036h1.211v-0.204c0-0.335-0.024-0.576-0.06-0.839h1.403c-0.048,0.252-0.06,0.444-0.06,0.839
		v0.204h1.308c0.468,0,0.852-0.024,1.163-0.06c-0.024,0.24-0.036,0.48-0.036,0.84v0.899c0,0.348,0,0.587,0.036,0.815h-0.828
		c0,0.192,0,0.216,0,0.276v1.499c0,0.48,0,0.696,0.036,0.912c-0.288-0.024-0.54-0.036-0.888-0.036h-2.506v0.864h2.89
		c0.432,0,0.696-0.012,0.948-0.036c-0.036,0.276-0.036,0.552-0.036,0.948v2.062c0,0.48,0.012,0.756,0.048,1.056h-1.283v-0.576
		h-2.555v0.611h-1.307c0.036-0.264,0.06-0.563,0.06-1.031v-6.104c0-0.192,0-0.228-0.012-0.456h-0.527
		c0.024-0.251,0.036-0.468,0.036-0.743v-0.744c-0.276,0.36-0.396,0.552-0.527,0.911c-0.768-0.635-1.14-1.043-1.631-1.751
		c-0.588,0.792-1.055,1.295-1.883,1.991c0.216,0.012,0.312,0.012,0.611,0.012h0.648v-0.396c0-0.252-0.012-0.396-0.048-0.6h1.199
		c-0.036,0.192-0.048,0.348-0.048,0.611v0.384h0.467c0.468,0,0.696-0.012,0.948-0.048c-0.036,0.3-0.036,0.588-0.036,1.02v2.255
		c0,0.456,0,0.719,0.024,0.971c-0.192-0.024-0.384-0.036-0.708-0.036h-2.075v1.883c0.744-0.18,0.947-0.24,1.427-0.396
		c-0.18-0.372-0.24-0.492-0.504-0.899l1.007-0.42c0.516,0.78,0.912,1.523,1.392,2.651L63.752,34.182z M63.068,28.209v-0.624h-1.559
		v0.624H63.068z M61.509,29.792h1.559v-0.671h-1.559V29.792z M69.245,25.594h-3.454v0.84h2.95c0.192,0,0.288,0,0.504-0.012V25.594z
		 M66.307,28.545h2.135v-1.08h-2.135V28.545z M66.307,32.803h2.566v-1.235h-2.566V32.803z"/>
	<path fill="#575554" d="M76.005,34.542c-0.671-0.959-0.971-1.487-1.307-2.363c-0.432-1.104-0.636-2.159-0.636-3.31
		c0-1.127,0.192-2.123,0.612-3.202c0.348-0.875,0.636-1.403,1.319-2.363h1.679c-0.84,1.056-1.188,1.595-1.523,2.387
		c-0.42,0.983-0.624,2.003-0.624,3.178c0,1.211,0.204,2.291,0.636,3.286c0.335,0.792,0.671,1.319,1.523,2.387H76.005z"/>
	<path fill="#575554" d="M80.018,28.185c-0.552,0-0.948,0.024-1.343,0.072V26.83c0.396,0.048,0.779,0.072,1.343,0.072h8.023
		c0.576,0,0.948-0.024,1.332-0.072v1.427c-0.408-0.048-0.792-0.072-1.332-0.072h-2.003v4.366c0,0.324,0.132,0.372,0.923,0.372
		c0.828,0,1.043-0.072,1.14-0.42c0.072-0.204,0.132-0.875,0.18-1.679c0.492,0.24,0.78,0.335,1.271,0.432
		c-0.144,1.655-0.204,1.979-0.444,2.363c-0.276,0.456-0.828,0.587-2.387,0.587c-0.995,0-1.499-0.096-1.775-0.335
		c-0.18-0.144-0.24-0.36-0.24-0.756v-4.929H82.98c-0.024,1.619-0.24,2.782-0.696,3.718c-0.36,0.756-0.887,1.379-1.583,1.883
		c-0.3,0.216-0.552,0.359-1.271,0.731c-0.276-0.504-0.552-0.864-0.912-1.199c1.344-0.588,2.051-1.164,2.531-2.063
		c0.384-0.708,0.54-1.595,0.564-3.07H80.018z M88.257,25.354c-0.3-0.048-0.708-0.072-1.223-0.072h-5.973
		c-0.552,0-0.912,0.024-1.224,0.072v-1.427C80.149,23.976,80.521,24,81.097,24h5.913c0.587,0,0.936-0.024,1.247-0.072V25.354z"/>
	<path fill="#575554" d="M92.677,25.438c-0.48,0.096-0.768,0.144-1.595,0.276c-0.108-0.516-0.192-0.768-0.432-1.199
		c1.811-0.18,3.67-0.66,4.401-1.151l0.78,1.151l-0.072,0.024c-0.084,0.024-0.084,0.024-0.252,0.084c-0.012,0-0.06,0.012-0.132,0.048
		c-0.348,0.132-1.103,0.372-1.439,0.468v1.475h0.708c0.479,0,0.744-0.012,1.007-0.06v1.308c-0.3-0.048-0.587-0.06-1.02-0.06h-0.611
		c0.144,0.348,0.228,0.492,0.492,0.839c0.456,0.624,0.815,0.983,1.451,1.476c-0.36,0.348-0.432,0.443-0.768,1.043
		c-0.576-0.624-0.936-1.139-1.332-1.895c0.048,0.432,0.072,0.863,0.072,1.535v2.099c0,0.744,0.012,1.115,0.072,1.523h-1.415
		c0.06-0.432,0.072-0.779,0.072-1.523v-1.991c0-0.324,0.012-0.576,0.06-1.416c-0.228,0.648-0.384,0.972-0.839,1.751
		c-0.204,0.348-0.372,0.576-0.816,1.104c-0.216-0.468-0.372-0.72-0.743-1.139c0.563-0.504,1.031-1.127,1.499-2.003
		c0.336-0.6,0.336-0.6,0.647-1.403h-0.744c-0.444,0-0.768,0.024-1.103,0.072v-1.331c0.348,0.06,0.635,0.072,1.127,0.072h0.924
		V25.438z M97.318,34.134H96c0.036-0.372,0.06-0.864,0.06-1.403v-7.172c0-0.528-0.012-0.924-0.06-1.271
		c0.372,0.048,0.647,0.06,1.175,0.06h2.747c0.503,0,0.827-0.012,1.187-0.06c-0.048,0.36-0.06,0.708-0.06,1.271v7.052
		c0,0.624,0.024,1.14,0.072,1.535h-1.379v-0.803h-2.423V34.134z M97.343,32.083h2.398v-6.489h-2.398V32.083z"/>
	<path fill="#575554" d="M107.268,24.731c0-0.468-0.024-0.852-0.072-1.211h1.475c-0.06,0.336-0.072,0.708-0.072,1.211v2.938h3.346
		c0.492,0,0.935-0.024,1.379-0.072v1.343c-0.372-0.048-0.768-0.072-1.355-0.072h-2.195v3.862c0,0.312,0.084,0.336,1.079,0.336
		c0.804,0,1.08-0.06,1.176-0.264c0.132-0.252,0.18-0.648,0.216-1.739c0.527,0.288,0.695,0.348,1.271,0.492
		c-0.108,1.475-0.288,2.075-0.708,2.411c-0.324,0.264-0.768,0.336-2.195,0.336c-1.847,0-2.123-0.144-2.123-1.14v-4.293h-1.368
		c-0.036,1.02-0.108,1.499-0.335,2.207c-0.312,1.043-0.828,1.775-1.667,2.411c-0.564,0.432-1.068,0.684-1.919,0.971
		c-0.276-0.516-0.456-0.792-0.816-1.199c1.224-0.324,2.003-0.78,2.567-1.511c0.384-0.492,0.671-1.247,0.792-2.039
		c0.036-0.24,0.048-0.384,0.06-0.839h-1.715c-0.492,0-0.912,0.024-1.343,0.072v-1.343c0.42,0.048,0.852,0.072,1.367,0.072h3.154
		V24.731z M104.461,24.047c0.755,0.936,1.127,1.499,1.775,2.734l-1.175,0.684c-0.648-1.319-0.972-1.847-1.763-2.831L104.461,24.047z
		 M112.605,24.587c-0.636,1.259-1.188,2.111-1.895,2.975l-1.151-0.66c0.744-0.864,1.235-1.655,1.787-2.878L112.605,24.587z"/>
	<path fill="#575554" d="M117.625,27.729c1.811-0.336,4.461-1.403,5.241-2.135l0.959,1.355c-0.084,0.036-0.444,0.204-1.08,0.516
		c-1.631,0.78-3.31,1.319-5.121,1.655v1.583c-0.012,0.06-0.012,0.12-0.012,0.156c0,0.696,0.048,0.972,0.216,1.14
		c0.204,0.216,0.887,0.312,2.051,0.312c0.804,0,1.907-0.072,2.782-0.192c0.576-0.072,0.84-0.132,1.368-0.288l0.072,1.595
		c-0.252,0-0.312,0.012-1.583,0.132c-0.708,0.072-2.219,0.144-2.951,0.144c-1.511,0-2.338-0.156-2.806-0.516
		c-0.336-0.252-0.516-0.636-0.588-1.224c-0.024-0.204-0.036-0.408-0.036-1.104l-0.012-5.565c0-0.611,0-0.803-0.048-1.103h1.607
		c-0.048,0.288-0.06,0.503-0.06,1.115V27.729z M123.321,23.627c0.48,0.54,0.804,1.032,1.2,1.823l-0.864,0.396
		c-0.372-0.768-0.684-1.247-1.188-1.835L123.321,23.627z M125.121,25.151c-0.324-0.66-0.696-1.235-1.151-1.787l0.828-0.384
		c0.527,0.6,0.851,1.067,1.175,1.739L125.121,25.151z"/>
	<path fill="#575554" d="M130.464,24.179c-0.048,0.336-0.048,0.336-0.12,2.687c-0.084,2.339-0.348,3.694-0.972,4.929
		c-0.408,0.828-0.863,1.439-1.655,2.219c-0.468-0.6-0.648-0.779-1.211-1.163c0.588-0.48,0.875-0.804,1.235-1.379
		c0.863-1.379,1.139-2.926,1.139-6.285c0-0.66,0-0.768-0.048-1.091L130.464,24.179z M133.643,24.035
		c-0.06,0.348-0.072,0.552-0.084,1.14l-0.06,6.824c0.839-0.396,1.319-0.756,1.835-1.367c0.552-0.648,0.899-1.308,1.175-2.195
		c0.42,0.54,0.576,0.695,1.127,1.127c-0.492,1.187-1.115,2.087-1.907,2.794c-0.684,0.587-1.307,0.947-2.554,1.439
		c-0.264,0.096-0.36,0.144-0.516,0.216l-0.768-0.815c0.084-0.348,0.096-0.612,0.108-1.271l0.06-6.764v-0.36
		c0-0.3-0.012-0.563-0.048-0.792L133.643,24.035z"/>
	<path fill="#575554" d="M138.386,34.542c0.852-1.067,1.188-1.595,1.523-2.387c0.432-0.996,0.636-2.063,0.636-3.286
		c0-1.199-0.192-2.195-0.612-3.178c-0.348-0.792-0.696-1.331-1.535-2.387h1.691c0.672,0.947,0.959,1.475,1.308,2.363
		c0.419,1.091,0.611,2.063,0.611,3.202c0,1.164-0.204,2.207-0.624,3.31c-0.348,0.875-0.636,1.403-1.307,2.363H138.386z"/>
	<path fill="#575554" d="M148.997,31.063c0.156,0.563,0.264,0.744,0.563,0.983c0.396,0.312,0.875,0.468,1.451,0.468
		c1.188,0,1.943-0.612,1.943-1.559c0-0.552-0.24-1.007-0.671-1.259c-0.288-0.168-0.852-0.288-1.379-0.288s-0.875,0.012-1.283,0.06
		v-1.487c0.384,0.048,0.647,0.06,1.163,0.06c1.2,0,1.907-0.552,1.907-1.475c0-0.828-0.564-1.295-1.583-1.295
		c-0.588,0-1.02,0.132-1.308,0.372c-0.24,0.228-0.36,0.432-0.503,0.923l-1.715-0.288c0.3-0.888,0.576-1.308,1.14-1.715
		c0.611-0.444,1.391-0.66,2.351-0.66c2.003,0,3.298,1.007,3.298,2.566c0,0.72-0.312,1.379-0.828,1.763
		c-0.264,0.204-0.528,0.3-1.164,0.468c0.852,0.132,1.295,0.336,1.715,0.804c0.396,0.444,0.576,0.947,0.576,1.655
		c0,0.648-0.276,1.308-0.72,1.751c-0.66,0.635-1.667,0.971-2.95,0.971c-1.403,0-2.363-0.36-3.046-1.139
		c-0.3-0.336-0.456-0.648-0.672-1.332L148.997,31.063z"/>
	<path fill="#575554" d="M157.974,24.803c0-0.624-0.012-0.995-0.036-1.211c0.18,0.024,0.492,0.036,0.948,0.036h1.307
		c0.468,0,0.671-0.012,0.899-0.048l0.72,0.708c-0.06,0.12-0.108,0.252-0.144,0.396c-0.06,0.216-0.348,1.007-0.54,1.487
		c-0.168,0.444-0.312,0.756-0.612,1.379c0.432,0.648,0.6,0.936,0.744,1.307c0.168,0.444,0.276,0.996,0.276,1.403
		c0,0.768-0.216,1.248-0.66,1.475c-0.276,0.144-0.647,0.204-1.175,0.204c-0.024,0-0.084,0-0.168,0
		c-0.012-0.624-0.048-0.804-0.228-1.211c0.24,0.024,0.276,0.024,0.36,0.024c0.54,0,0.672-0.108,0.672-0.552
		c0-0.264-0.072-0.647-0.192-1.031c-0.168-0.576-0.372-0.936-0.84-1.535c0.492-0.971,0.768-1.727,1.043-2.831h-1.139v8
		c0,0.755,0.012,1.235,0.06,1.631h-1.368c0.048-0.396,0.072-0.947,0.072-1.655V24.803z M161.824,24.587
		c0-0.503-0.012-0.863-0.06-1.235h1.319c-0.036,0.324-0.06,0.708-0.06,1.224v0.108h0.719c0.444,0,0.612-0.012,0.876-0.06v1.247
		c-0.288-0.036-0.552-0.048-0.864-0.048h-0.731v1.343c0.563-0.12,0.923-0.216,1.595-0.444v1.14c-0.78,0.252-1.703,0.492-2.711,0.695
		c-0.168,0.036-0.335,0.084-0.503,0.132l-0.24-1.224c0.191-0.012,0.335-0.024,0.659-0.072V24.587z M166.178,27.021
		c0,0.24,0.096,0.276,0.684,0.276c0.348,0,0.479-0.024,0.552-0.096c0.083-0.084,0.132-0.384,0.144-0.959
		c0.468,0.264,0.648,0.324,1.091,0.396c-0.048,0.924-0.144,1.284-0.396,1.511c-0.216,0.192-0.588,0.252-1.643,0.252
		c-0.576,0-0.696-0.012-0.983-0.06c-0.036,0.072-0.036,0.072-0.084,0.168c-0.012,0.024-0.036,0.072-0.072,0.156
		c-0.096,0.204-0.156,0.312-0.251,0.48h1.523c0.768,0,0.972-0.012,1.211-0.048c-0.036,0.324-0.048,0.576-0.048,1.259v2.734
		c0,0.504,0.024,0.936,0.072,1.367h-1.355V33.99h-3.478v0.444h-1.295c0.06-0.348,0.072-0.672,0.072-1.211V30.26
		c0-0.587-0.012-0.803-0.048-1.151c0.335,0.024,0.563,0.036,1.223,0.036h0.78c0.204-0.348,0.312-0.636,0.432-1.067l0.959,0.156
		c-0.228-0.144-0.3-0.324-0.3-0.72v-2.974c0-0.468-0.024-0.852-0.06-1.188h1.331c-0.048,0.324-0.06,0.612-0.06,1.08v0.432
		c0.755-0.336,1.319-0.66,1.643-0.959l0.671,1.08c-0.072,0.036-0.312,0.168-0.803,0.432c-0.432,0.24-0.996,0.504-1.511,0.684V27.021
		z M163.143,31.003h3.478v-0.792h-3.478V31.003z M163.143,32.911h3.478v-0.875h-3.478V32.911z"/>
	<path fill="#575554" d="M175.462,28.917c0,0.792-0.636,1.427-1.427,1.427s-1.427-0.636-1.427-1.427s0.636-1.427,1.427-1.427
		S175.462,28.125,175.462,28.917z"/>
	<path fill="#575554" d="M187.896,31.543c-0.443-0.06-0.695-0.072-1.199-0.072h-0.432v0.839c0,0.624,0.024,0.936,0.096,1.379h-1.703
		c0.072-0.42,0.096-0.792,0.096-1.391v-0.84h-3.322c-0.708,0-1.091,0.012-1.499,0.06v-1.475c0.408-0.444,0.54-0.6,0.959-1.104
		l2.842-3.478c0.528-0.636,0.72-0.887,0.996-1.319h1.619c-0.072,0.696-0.084,1.116-0.084,2.027v3.934h0.42
		c0.48,0,0.768-0.024,1.211-0.084V31.543z M184.767,27.633c0-0.563,0.012-0.947,0.06-1.439c-0.24,0.348-0.384,0.54-0.815,1.067
		l-2.303,2.842h3.059V27.633z"/>
	<path fill="#575554" d="M190.975,24.803c0-0.624-0.013-0.995-0.037-1.211c0.181,0.024,0.492,0.036,0.948,0.036h1.308
		c0.467,0,0.671-0.012,0.898-0.048l0.721,0.708c-0.061,0.12-0.108,0.252-0.145,0.396c-0.061,0.216-0.348,1.007-0.539,1.487
		c-0.168,0.444-0.312,0.756-0.612,1.379c0.432,0.648,0.6,0.936,0.743,1.307c0.168,0.444,0.276,0.996,0.276,1.403
		c0,0.768-0.216,1.248-0.659,1.475c-0.276,0.144-0.648,0.204-1.176,0.204c-0.023,0-0.084,0-0.168,0
		c-0.012-0.624-0.048-0.804-0.229-1.211c0.24,0.024,0.276,0.024,0.36,0.024c0.54,0,0.672-0.108,0.672-0.552
		c0-0.264-0.072-0.647-0.192-1.031c-0.168-0.576-0.371-0.936-0.84-1.535c0.492-0.971,0.768-1.727,1.044-2.831h-1.14v8
		c0,0.755,0.012,1.235,0.061,1.631h-1.367c0.048-0.396,0.072-0.947,0.072-1.655V24.803z M194.824,24.587
		c0-0.503-0.012-0.863-0.061-1.235h1.32c-0.037,0.324-0.061,0.708-0.061,1.224v0.108h0.719c0.444,0,0.612-0.012,0.877-0.06v1.247
		c-0.289-0.036-0.553-0.048-0.864-0.048h-0.731v1.343c0.563-0.12,0.924-0.216,1.596-0.444v1.14c-0.78,0.252-1.703,0.492-2.711,0.695
		c-0.168,0.036-0.336,0.084-0.504,0.132l-0.24-1.224c0.191-0.012,0.336-0.024,0.66-0.072V24.587z M199.178,27.021
		c0,0.24,0.096,0.276,0.684,0.276c0.348,0,0.479-0.024,0.552-0.096c0.083-0.084,0.132-0.384,0.144-0.959
		c0.468,0.264,0.648,0.324,1.092,0.396c-0.049,0.924-0.145,1.284-0.396,1.511c-0.215,0.192-0.588,0.252-1.643,0.252
		c-0.576,0-0.695-0.012-0.983-0.06c-0.036,0.072-0.036,0.072-0.084,0.168c-0.013,0.024-0.036,0.072-0.072,0.156
		c-0.096,0.204-0.155,0.312-0.251,0.48h1.522c0.768,0,0.972-0.012,1.212-0.048c-0.037,0.324-0.049,0.576-0.049,1.259v2.734
		c0,0.504,0.024,0.936,0.072,1.367h-1.355V33.99h-3.479v0.444h-1.295c0.061-0.348,0.072-0.672,0.072-1.211V30.26
		c0-0.587-0.012-0.803-0.048-1.151c0.335,0.024,0.563,0.036,1.224,0.036h0.779c0.203-0.348,0.312-0.636,0.432-1.067l0.959,0.156
		c-0.228-0.144-0.299-0.324-0.299-0.72v-2.974c0-0.468-0.024-0.852-0.061-1.188h1.331c-0.048,0.324-0.06,0.612-0.06,1.08v0.432
		c0.756-0.336,1.318-0.66,1.643-0.959l0.672,1.08c-0.072,0.036-0.312,0.168-0.803,0.432c-0.433,0.24-0.996,0.504-1.512,0.684V27.021
		z M196.143,31.003h3.479v-0.792h-3.479V31.003z M196.143,32.911h3.479v-0.875h-3.479V32.911z"/>
	<path fill="#575554" d="M203.754,33.846c-0.012-0.216-0.024-0.288-0.061-0.563c-0.228-1.451-0.312-2.375-0.312-3.586
		c0-1.547,0.144-2.915,0.491-4.689c0.133-0.672,0.156-0.792,0.18-1.115l1.584,0.167c-0.288,0.708-0.564,2.051-0.756,3.586
		c-0.119,0.899-0.168,1.607-0.18,2.65c0,0.264-0.012,0.36-0.023,0.66c0.131-0.42,0.155-0.504,0.623-1.583l0.959,0.432
		c-0.659,1.391-1.066,2.782-1.066,3.634c0,0.072,0,0.168,0.012,0.324L203.754,33.846z M208.863,29.108
		c-0.6,0.696-0.852,1.211-0.852,1.727c0,0.684,0.659,1.043,1.906,1.043c1.056,0,2.1-0.168,2.854-0.456l0.12,1.523
		c-0.168,0.012-0.216,0.024-0.492,0.072c-0.959,0.156-1.69,0.228-2.482,0.228c-1.486,0-2.446-0.335-2.975-1.043
		c-0.228-0.3-0.359-0.744-0.359-1.175c0-0.779,0.359-1.583,1.104-2.471L208.863,29.108z M206.884,25.139
		c0.54,0.144,1.175,0.192,2.219,0.192c1.331,0,2.471-0.108,3.263-0.324l0.072,1.451c-0.097,0.012-0.276,0.036-0.852,0.108
		c-0.768,0.096-1.68,0.144-2.567,0.144c-0.876,0-0.888,0-2.159-0.132L206.884,25.139z"/>
	<path fill="#575554" d="M218.34,33.69c0.072-0.468,0.096-0.936,0.096-1.571v-6.596h-0.576c-0.443,0-0.791,0.024-1.234,0.072v-1.523
		c0.371,0.06,0.635,0.072,1.199,0.072h1.104c0.611,0,0.791-0.012,1.223-0.06c-0.072,0.708-0.096,1.259-0.096,1.979v6.057
		c0,0.636,0.023,1.08,0.096,1.571H218.34z"/>
	<path fill="#575554" d="M225.505,32.911c-0.36-0.36-0.636-0.78-0.792-1.211c-0.312-0.852-0.467-1.787-0.467-2.759
		c0-1.271,0.287-2.59,0.73-3.322c0.648-1.08,1.728-1.667,3.059-1.667c1.02,0,1.895,0.336,2.531,0.972
		c0.359,0.36,0.635,0.779,0.791,1.211c0.312,0.839,0.468,1.799,0.468,2.782c0,1.475-0.323,2.771-0.888,3.55
		c-0.672,0.936-1.667,1.415-2.914,1.415C227.004,33.882,226.141,33.546,225.505,32.911z M229.33,31.987
		c0.54-0.563,0.84-1.679,0.84-3.082c0-1.392-0.3-2.483-0.84-3.07c-0.287-0.324-0.768-0.504-1.307-0.504
		c-0.576,0-0.996,0.192-1.344,0.612c-0.527,0.624-0.791,1.607-0.791,2.914c0,1.26,0.228,2.303,0.611,2.854
		c0.372,0.528,0.875,0.78,1.535,0.78C228.562,32.491,229.031,32.311,229.33,31.987z"/>
	<path fill="#575554" d="M237.492,30.704c-0.107,0.612-0.203,1.007-0.348,1.427c-0.324,0.912-0.731,1.607-1.415,2.375
		c-0.348-0.468-0.647-0.768-1.115-1.103c0.671-0.672,1.007-1.211,1.283-2.111c0.36-1.116,0.479-2.519,0.479-5.637
		c0-0.863-0.012-1.391-0.06-1.811c0.468,0.048,0.792,0.06,1.403,0.06h5.001c0.659,0,0.983-0.012,1.392-0.06
		c-0.049,0.324-0.061,0.648-0.061,1.355v7.771c0,0.6-0.131,0.948-0.432,1.14c-0.264,0.18-0.6,0.24-1.391,0.24
		c-0.385,0-0.779-0.012-1.392-0.048c-0.071-0.576-0.144-0.852-0.348-1.343c0.611,0.096,1.271,0.144,1.763,0.144
		c0.359,0,0.443-0.06,0.443-0.324v-2.075H237.492z M242.697,29.48v-1.607h-4.965c0,0.372-0.023,0.636-0.096,1.607H242.697z
		 M242.697,26.65v-1.499h-4.953v1.499H242.697z"/>
	<path fill="#575554" d="M249.34,33.69c0.072-0.468,0.096-0.936,0.096-1.571v-6.596h-0.576c-0.443,0-0.791,0.024-1.234,0.072v-1.523
		c0.371,0.06,0.635,0.072,1.199,0.072h1.104c0.611,0,0.791-0.012,1.223-0.06c-0.072,0.708-0.096,1.259-0.096,1.979v6.057
		c0,0.636,0.023,1.08,0.096,1.571H249.34z"/>
	<path fill="#575554" d="M256.225,31.208c0.107,0.348,0.191,0.503,0.359,0.695c0.336,0.408,0.84,0.612,1.475,0.612
		c1.188,0,1.968-0.792,1.968-1.979c0-1.175-0.743-1.931-1.884-1.931c-0.587,0-1.115,0.192-1.486,0.551
		c-0.168,0.168-0.252,0.276-0.359,0.54l-1.5-0.144c0.12-0.852,0.133-0.912,0.156-1.247l0.275-2.975
		c0.012-0.216,0.036-0.624,0.049-1.223c0.359,0.024,0.635,0.036,1.271,0.036h2.949c0.828,0,1.128-0.012,1.668-0.096v1.511
		c-0.528-0.072-0.996-0.096-1.656-0.096h-2.818l-0.191,2.099c-0.012,0.096-0.035,0.264-0.072,0.503
		c0.588-0.503,1.224-0.731,2.051-0.731c0.973,0,1.752,0.288,2.34,0.899c0.587,0.576,0.852,1.295,0.852,2.255
		c0,2.111-1.38,3.418-3.611,3.418c-1.187,0-2.074-0.335-2.734-1.043c-0.323-0.348-0.491-0.636-0.755-1.307L256.225,31.208z"/>
	<path fill="#575554" d="M265.873,25.199c0-0.468-0.023-0.888-0.06-1.283c0.384,0.048,0.78,0.06,1.331,0.06h5.805
		c0.564,0,0.936-0.012,1.296-0.06c-0.048,0.456-0.06,0.803-0.06,1.223v7.748c0,0.624,0.023,1.02,0.071,1.452h-1.451v-0.72h-5.577
		v0.72h-1.427c0.048-0.408,0.071-0.888,0.071-1.452V25.199z M267.229,28.029h5.577v-2.783h-5.577V28.029z M267.229,32.359h5.577
		v-3.07h-5.577V32.359z"/>
	<path fill="#575554" d="M282.935,28.989c0-0.06,0.024-0.672,0.036-0.864c-0.252,0.516-0.623,1.02-1.223,1.679
		c-0.66,0.72-1.535,1.487-2.363,2.087c-0.468,0.335-0.863,0.587-1.775,1.103c-0.287-0.563-0.467-0.779-0.995-1.247
		c1.427-0.647,2.579-1.439,3.778-2.603c0.611-0.6,1.211-1.343,1.607-1.979h-3.287c-0.899,0.012-1.043,0.012-1.475,0.06v-1.463
		c0.455,0.084,0.659,0.084,1.511,0.084h4.149l-0.012-0.959c-0.012-0.647-0.012-0.647-0.061-1.104h1.584
		c-0.036,0.312-0.049,0.528-0.049,1.02v0.072l0.025,0.971h1.211c0.803,0,0.995-0.012,1.415-0.084v1.451
		c-0.36-0.036-0.636-0.048-1.38-0.048h-1.234l0.06,5.565c0.012,0.588,0.036,1.043,0.071,1.379h-1.631
		c0.049-0.336,0.072-0.66,0.072-1.151c0-0.072,0-0.132,0-0.216l-0.036-3.586V28.989z"/>
	<path fill="#575554" d="M288.891,28.041c0.527,0.072,0.755,0.084,1.942,0.084h6.393c1.188,0,1.415-0.012,1.942-0.084v1.667
		c-0.479-0.06-0.611-0.06-1.955-0.06h-6.367c-1.344,0-1.477,0-1.955,0.06V28.041z"/>
	<path fill="#575554" d="M308.387,24.755c0.359,0,0.503-0.012,0.707-0.024c0.012-0.78,0.611-1.391,1.379-1.391
		s1.392,0.624,1.392,1.379c0,0.768-0.624,1.392-1.392,1.392c-0.072,0-0.144-0.012-0.228-0.024c-0.972,3.922-3.095,6.369-6.884,7.952
		c-0.312-0.624-0.516-0.899-1.057-1.427c3.322-1.031,5.494-3.262,6.262-6.452h-5.709c-0.888,0-1.115,0.012-1.512,0.072v-1.559
		c0.432,0.072,0.72,0.084,1.535,0.084H308.387z M309.693,24.719c0,0.432,0.348,0.792,0.779,0.792c0.443,0,0.791-0.36,0.791-0.792
		c0-0.432-0.348-0.779-0.791-0.779C310.041,23.939,309.693,24.287,309.693,24.719z"/>
	<path fill="#575554" d="M313.479,32.035c1.031-0.06,2.458-0.408,3.549-0.888c1.5-0.647,2.615-1.571,3.562-2.938
		c0.527-0.768,0.863-1.427,1.223-2.398c0.469,0.563,0.66,0.743,1.271,1.175c-1.02,2.195-2.158,3.61-3.801,4.701
		c-1.225,0.815-2.711,1.403-4.57,1.799c-0.479,0.096-0.516,0.108-0.791,0.204L313.479,32.035z M314.497,24.587
		c1.427,0.888,2.171,1.439,3.095,2.315l-1.031,1.307c-0.96-1.02-1.943-1.811-3.059-2.435L314.497,24.587z"/>
	<path fill="#575554" d="M329.34,31.063c0.012-0.252,0.023-0.372,0.023-0.516c0-0.132,0-0.132-0.035-0.852l-0.168-4.078
		c-0.024-0.528-0.061-1.127-0.108-1.463h1.967c-0.036,0.324-0.084,0.947-0.108,1.463l-0.168,4.078
		c-0.023,0.695-0.023,0.695-0.023,0.863c0,0.144,0,0.264,0.023,0.504H329.34z M329.172,33.69v-1.643h1.738v1.643H329.172z"/>
</g>
</svg>
