<?xml version="1.0" encoding="utf-8"?>
<!-- Generator: Adobe Illustrator 16.0.4, SVG Export Plug-In . SVG Version: 6.00 Build 0)  -->
<!DOCTYPE svg PUBLIC "-//W3C//DTD SVG 1.1//EN" "http://www.w3.org/Graphics/SVG/1.1/DTD/svg11.dtd">
<svg version="1.1" id="レイヤー_1" xmlns="http://www.w3.org/2000/svg" xmlns:xlink="http://www.w3.org/1999/xlink" x="0px"
	 y="0px" width="225.088px" height="63.777px" viewBox="0 0 225.088 63.777" enable-background="new 0 0 225.088 63.777"
	 xml:space="preserve">
<polygon fill="#F39800" points="72.783,39.713 77.084,39.713 77.084,40.258 73.426,40.258 73.426,43.264 76.517,43.264 
	76.517,43.811 73.426,43.811 73.426,47.512 72.783,47.512 "/>
<path fill="#F39800" d="M78.326,45.457v-3.646h0.621v3.572c0,1.165,0.363,1.711,1.24,1.711c0.662,0,1.134-0.343,1.775-1.113v-4.17
	h0.62v5.701h-0.524l-0.053-0.941h-0.033c-0.556,0.641-1.133,1.08-1.924,1.08C78.861,47.65,78.326,46.922,78.326,45.457"/>
<path fill="#F39800" d="M84.863,45.885v-3.551h-0.888v-0.471l0.909-0.053l0.076-1.648h0.523v1.648h1.637v0.523h-1.637v3.594
	c0,0.717,0.192,1.188,0.952,1.188c0.214,0,0.491-0.075,0.695-0.16l0.149,0.48c-0.332,0.117-0.695,0.215-0.951,0.215
	C85.205,47.65,84.863,46.944,84.863,45.885"/>
<path fill="#F39800" d="M88.405,45.457v-3.646h0.621v3.572c0,1.165,0.362,1.711,1.239,1.711c0.664,0,1.135-0.343,1.776-1.113v-4.17
	h0.62v5.701h-0.523l-0.054-0.941h-0.032c-0.557,0.641-1.133,1.08-1.926,1.08C88.94,47.65,88.405,46.922,88.405,45.457"/>
<path fill="#F39800" d="M94.805,41.81h0.512l0.076,1.06h0.021c0.386-0.717,0.953-1.209,1.616-1.209c0.224,0,0.396,0.031,0.576,0.129
	l-0.127,0.556c-0.193-0.075-0.299-0.097-0.524-0.097c-0.503,0-1.112,0.375-1.53,1.434v3.829h-0.619V41.81z"/>
<path fill="#F39800" d="M98.175,44.666c0-1.852,1.208-3.006,2.503-3.006c1.381,0,2.203,0.984,2.203,2.652
	c0,0.16-0.01,0.311-0.031,0.449h-4.044c0.032,1.391,0.856,2.364,2.087,2.364c0.609,0,1.09-0.192,1.519-0.492l0.235,0.46
	c-0.461,0.289-0.996,0.557-1.819,0.557C99.361,47.65,98.175,46.538,98.175,44.666 M102.314,44.27c0-1.379-0.631-2.074-1.625-2.074
	c-0.932,0-1.767,0.77-1.884,2.074H102.314z"/>
<path fill="#F39800" d="M106.349,43.606c0-2.491,1.38-4.032,3.358-4.032c0.92,0,1.638,0.449,2.055,0.941l-0.364,0.417
	c-0.417-0.471-0.974-0.78-1.69-0.78c-1.647,0-2.685,1.326-2.685,3.434c0,2.128,1.017,3.486,2.653,3.486
	c0.791,0,1.38-0.332,1.936-0.941l0.363,0.406c-0.6,0.695-1.326,1.112-2.331,1.112C107.717,47.649,106.349,46.099,106.349,43.606"/>
<path fill="#F39800" d="M113.016,44.666c0-1.852,1.207-3.006,2.502-3.006c1.381,0,2.203,0.984,2.203,2.652
	c0,0.16-0.01,0.311-0.031,0.449h-4.043c0.031,1.391,0.855,2.364,2.086,2.364c0.609,0,1.09-0.192,1.519-0.492l0.235,0.46
	c-0.46,0.289-0.995,0.557-1.818,0.557C114.202,47.65,113.016,46.538,113.016,44.666 M117.154,44.27c0-1.379-0.631-2.074-1.625-2.074
	c-0.932,0-1.766,0.77-1.883,2.074H117.154z"/>
<path fill="#F39800" d="M119.242,41.81h0.513l0.075,0.866h0.021c0.578-0.566,1.166-1.016,1.947-1.016
	c1.188,0,1.732,0.737,1.732,2.203v3.647h-0.621v-3.562c0-1.188-0.374-1.733-1.251-1.733c-0.663,0-1.134,0.343-1.797,1.026v4.269
	h-0.62V41.81z"/>
<path fill="#F39800" d="M125.726,45.885v-3.551h-0.888v-0.471l0.908-0.053l0.076-1.648h0.524v1.648h1.636v0.523h-1.636v3.594
	c0,0.717,0.192,1.188,0.952,1.188c0.214,0,0.49-0.075,0.695-0.16l0.148,0.48c-0.331,0.117-0.695,0.215-0.951,0.215
	C126.067,47.65,125.726,46.944,125.726,45.885"/>
<path fill="#F39800" d="M128.883,44.666c0-1.852,1.207-3.006,2.502-3.006c1.381,0,2.203,0.984,2.203,2.652
	c0,0.16-0.01,0.311-0.031,0.449h-4.043c0.031,1.391,0.855,2.364,2.086,2.364c0.609,0,1.09-0.192,1.519-0.492l0.235,0.46
	c-0.46,0.289-0.995,0.557-1.818,0.557C130.069,47.65,128.883,46.538,128.883,44.666 M133.021,44.27c0-1.379-0.631-2.074-1.625-2.074
	c-0.932,0-1.766,0.77-1.883,2.074H133.021z"/>
<path fill="#F39800" d="M135.109,41.81h0.513l0.075,1.06h0.021c0.386-0.717,0.953-1.209,1.615-1.209
	c0.225,0,0.396,0.031,0.577,0.129l-0.128,0.556c-0.193-0.075-0.299-0.097-0.523-0.097c-0.504,0-1.112,0.375-1.53,1.434v3.829h-0.62
	V41.81z"/>
<polygon fill="#F39800" points="141.39,39.713 142.031,39.713 142.031,43.094 146.086,43.094 146.086,39.713 146.717,39.713 
	146.717,47.512 146.086,47.512 146.086,43.649 142.031,43.649 142.031,47.512 141.39,47.512 "/>
<path fill="#F39800" d="M148.525,46.078c0-1.264,1.123-1.861,3.638-2.15c0.021-0.845-0.226-1.722-1.306-1.722
	c-0.748,0-1.4,0.353-1.797,0.651l-0.277-0.448c0.439-0.3,1.23-0.749,2.16-0.749c1.359,0,1.841,0.973,1.841,2.234v3.616h-0.525
	l-0.063-0.727h-0.021c-0.578,0.47-1.262,0.866-1.99,0.866C149.266,47.65,148.525,47.137,148.525,46.078 M152.163,46.238v-1.851
	c-2.246,0.257-3.017,0.78-3.017,1.658c0,0.78,0.535,1.08,1.166,1.08S151.489,46.826,152.163,46.238"/>
<polygon fill="#F39800" points="154.775,39.008 155.396,39.008 155.396,45.168 155.418,45.168 158.145,41.809 158.85,41.809 
	156.989,44.066 159.15,47.512 158.465,47.512 156.625,44.516 155.396,45.971 155.396,47.512 154.775,47.512 "/>
<path fill="#F39800" d="M159.879,44.666c0-1.904,1.198-3.006,2.578-3.006s2.578,1.102,2.578,3.006c0,1.893-1.198,2.983-2.578,2.983
	S159.879,46.559,159.879,44.666 M164.393,44.666c0-1.455-0.824-2.461-1.936-2.461s-1.925,1.006-1.925,2.461s0.813,2.449,1.925,2.449
	S164.393,46.121,164.393,44.666"/>
<path fill="#F39800" d="M166.235,44.666c0-1.84,1.177-3.006,2.524-3.006c0.685,0,1.145,0.257,1.701,0.695l-0.043-1.027v-2.321h0.621
	v8.504h-0.515l-0.075-0.717h-0.021c-0.459,0.46-1.09,0.856-1.828,0.856C167.166,47.65,166.235,46.58,166.235,44.666 M170.418,46.206
	v-3.294c-0.578-0.514-1.06-0.706-1.595-0.706c-1.091,0-1.925,1.058-1.925,2.46c0,1.477,0.652,2.438,1.809,2.438
	C169.315,47.104,169.851,46.794,170.418,46.206"/>
<path fill="#F39800" d="M172.783,46.078c0-1.264,1.123-1.861,3.637-2.15c0.021-0.845-0.225-1.722-1.305-1.722
	c-0.749,0-1.4,0.353-1.797,0.651l-0.277-0.448c0.438-0.3,1.229-0.749,2.16-0.749c1.357,0,1.84,0.973,1.84,2.234v3.616h-0.525
	l-0.063-0.727h-0.021c-0.578,0.47-1.262,0.866-1.99,0.866C173.522,47.65,172.783,47.137,172.783,46.078 M176.42,46.238v-1.851
	c-2.246,0.257-3.016,0.78-3.016,1.658c0,0.78,0.535,1.08,1.165,1.08C175.201,47.126,175.746,46.826,176.42,46.238"/>
<path fill="#F39800" d="M179.172,45.885v-3.551h-0.889v-0.471l0.909-0.053l0.076-1.648h0.524v1.648h1.635v0.523h-1.635v3.594
	c0,0.717,0.191,1.188,0.951,1.188c0.215,0,0.491-0.075,0.695-0.16l0.148,0.48c-0.33,0.117-0.694,0.215-0.951,0.215
	C179.514,47.65,179.172,46.944,179.172,45.885"/>
<path fill="#F39800" d="M182.328,44.666c0-1.852,1.208-3.006,2.503-3.006c1.38,0,2.203,0.984,2.203,2.652
	c0,0.16-0.01,0.311-0.032,0.449h-4.043c0.032,1.391,0.856,2.364,2.086,2.364c0.61,0,1.09-0.192,1.52-0.492l0.234,0.46
	c-0.459,0.289-0.994,0.557-1.818,0.557C183.516,47.65,182.328,46.538,182.328,44.666 M186.467,44.27
	c0-1.379-0.631-2.074-1.625-2.074c-0.931,0-1.766,0.77-1.883,2.074H186.467z"/>
<path fill="#F39800" d="M74.879,17.109c-0.098,0.254-0.195,0.684-0.254,1.035c-0.449,2.086-0.994,5.654-0.994,7.955
	c0,1.268,0.078,2.203,0.233,3.472c0.332-0.995,0.877-2.438,1.229-3.296l0.604,0.468c-0.447,1.19-1.17,3.159-1.365,4.056
	c-0.058,0.254-0.097,0.585-0.078,0.84c0.021,0.176,0.039,0.428,0.06,0.584l-0.917,0.078c-0.37-1.404-0.682-3.471-0.682-6.084
	c0-2.789,0.662-6.494,0.916-8.152c0.059-0.408,0.098-0.778,0.098-1.071L74.879,17.109z M87.846,30.857
	c-1.032-0.975-2.105-1.793-3.275-2.358c0.02,0.272,0.02,0.546,0.02,0.778c0,1.328-0.584,2.927-3.101,2.927
	c-2.534,0-3.821-1.034-3.821-2.595c0-1.403,1.325-2.69,3.803-2.69c0.76,0,1.441,0.097,2.086,0.253
	c-0.078-1.656-0.195-3.88-0.215-5.538c-0.702,0.021-1.424,0.039-2.125,0.039c-1.092,0-2.049-0.058-3.159-0.136v-0.956
	c1.071,0.099,2.086,0.155,3.198,0.155c0.701,0,1.403-0.019,2.086-0.038c0-1.015,0-1.931,0.02-2.554c0-0.352-0.02-0.82-0.059-1.131
	h1.17c-0.059,0.389-0.098,0.739-0.116,1.11c-0.039,0.604-0.039,1.619-0.039,2.517c1.248-0.099,2.457-0.234,3.509-0.449v0.994
	c-1.13,0.176-2.3,0.312-3.509,0.391c0.019,1.91,0.155,4.095,0.233,5.908c1.541,0.604,2.77,1.6,3.842,2.535L87.846,30.857z
	 M83.596,28.128c-0.702-0.233-1.443-0.351-2.223-0.351c-1.639,0-2.77,0.761-2.77,1.755c0,1.073,1.014,1.735,2.633,1.735
	c1.872,0,2.379-0.916,2.379-2.302C83.615,28.732,83.615,28.46,83.596,28.128"/>
<path fill="#F39800" d="M94.788,26.021c-0.272,0.819-0.429,1.58-0.429,2.321c0,1.599,1.658,2.69,4.914,2.69
	c2.711,0,5.207-0.291,6.513-0.74l0.021,1.053c-1.209,0.37-3.746,0.682-6.515,0.682c-3.627,0-5.946-1.188-5.946-3.471
	c0-0.955,0.194-1.833,0.408-2.652L94.788,26.021z M94.477,18.455c1.384,0.176,3.14,0.254,5.012,0.254
	c1.833,0,3.646-0.137,4.972-0.273v1.016c-1.267,0.097-3.217,0.233-4.972,0.233c-1.872,0-3.512-0.079-5.012-0.215V18.455z"/>
<path fill="#F39800" d="M120.197,20.483c-1.326,0.292-2.77,0.527-4.154,0.663c-0.176,0.857-0.391,1.755-0.624,2.613
	c-0.702,2.769-2.009,6.787-3.003,8.795l-1.15-0.37c1.17-2.029,2.457-5.87,3.178-8.62c0.195-0.702,0.391-1.521,0.566-2.32
	c-0.741,0.059-1.443,0.098-2.066,0.098c-0.801,0-1.464-0.02-2.185-0.078l-0.021-1.014c0.84,0.117,1.58,0.137,2.244,0.137
	c0.662,0,1.422-0.039,2.242-0.098c0.176-0.858,0.312-1.6,0.37-2.028s0.097-0.994,0.058-1.365l1.248,0.099
	c-0.097,0.369-0.234,0.993-0.291,1.344c-0.117,0.547-0.234,1.171-0.371,1.834c1.325-0.156,2.73-0.391,3.959-0.721V20.483z
	 M119.203,27.484c-0.196,0.684-0.293,1.287-0.293,1.812c0,0.957,0.408,1.971,3.549,1.971c1.248,0,2.574-0.137,3.646-0.37
	l-0.039,1.054c-1.014,0.155-2.301,0.272-3.628,0.272c-2.924,0-4.483-0.858-4.483-2.729c0-0.645,0.097-1.248,0.272-2.107
	L119.203,27.484z M119.104,22.883c0.956-0.098,2.185-0.156,3.413-0.156c1.131,0,2.32,0.039,3.314,0.156l-0.038,0.994
	c-0.995-0.137-2.107-0.234-3.218-0.234c-1.131,0-2.301,0.078-3.472,0.215V22.883z M124.662,20.601
	c-0.39-0.799-1.092-1.989-1.618-2.71l0.741-0.332c0.487,0.684,1.209,1.854,1.619,2.672L124.662,20.601z M125.832,16.817
	c0.547,0.722,1.307,1.911,1.697,2.673l-0.761,0.35c-0.448-0.877-1.092-1.949-1.657-2.69L125.832,16.817z"/>
<path fill="#F39800" d="M132.17,19.061c1.053-0.117,4.973-0.526,8.521-0.819c2.185-0.194,3.804-0.293,5.052-0.331v1.014
	c-1.131-0.02-2.848,0.02-3.803,0.332c-3.003,1.053-4.622,4.231-4.622,6.512c0,4.115,3.843,5.324,6.903,5.422l-0.352,1.015
	c-3.295-0.079-7.526-1.813-7.526-6.221c0-3.14,1.97-5.734,4.017-6.825c-1.716,0.194-7.683,0.74-9.691,1.15l-0.117-1.15
	C131.272,19.139,131.779,19.1,132.17,19.061"/>
<path fill="#F39800" d="M165.982,28.361c-0.643-0.545-1.404-1.111-2.262-1.638c-0.74,2.711-2.242,4.603-5.167,6.046l-0.839-0.702
	c3.12-1.288,4.523-3.491,5.148-5.831c-1.756-0.956-3.842-1.697-6.065-1.812c-0.741,1.695-1.774,4.152-2.554,5.244
	c-0.645,0.879-1.287,1.151-2.106,1.151c-1.288,0-2.262-0.976-2.262-2.379c0-2.789,2.612-4.914,6.337-4.954
	c0.781-1.695,1.58-3.529,2.262-4.895c-0.779,0.039-3.49,0.176-4.387,0.215c-0.449,0.039-0.917,0.078-1.346,0.137l-0.06-1.111
	c0.47,0.039,0.956,0.039,1.347,0.039c0.975,0,3.783-0.156,4.563-0.216c0.272-0.019,0.526-0.077,0.722-0.155l0.662,0.547
	c-0.136,0.175-0.293,0.312-0.429,0.564c-0.565,0.858-1.481,3.042-2.34,4.915c2.163,0.155,4.192,0.877,5.889,1.735
	c0.117-0.645,0.195-1.287,0.234-1.911c0.019-0.39,0.038-0.976,0.019-1.58l1.034,0.117c-0.078,1.424-0.194,2.69-0.429,3.823
	c0.975,0.545,1.814,1.11,2.477,1.598L165.982,28.361z M155.765,24.403c-3.159,0.156-4.954,2.028-4.954,3.938
	c0,0.957,0.645,1.482,1.327,1.482c0.487,0,0.819-0.136,1.267-0.682C154.185,28.147,155.004,26.041,155.765,24.403"/>
<path fill="#F39800" d="M172.689,26.021c1.932-1.813,4.136-2.612,6.593-2.612c2.71,0,4.698,1.618,4.698,3.842
	c0,3.412-3.236,5.538-9.905,4.992l-0.293-1.034c6.26,0.702,9.166-1.248,9.166-3.997c0-1.696-1.56-2.887-3.705-2.887
	c-2.789,0-4.875,1.014-6.319,2.729c-0.234,0.293-0.39,0.625-0.486,0.879l-1.034-0.234c0.39-1.678,0.897-5.889,0.995-7.684
	l1.111,0.137C173.256,21.596,172.924,24.696,172.689,26.021 M174.23,16.837c1.561,0.507,5.617,1.326,7.332,1.501l-0.252,0.977
	c-1.756-0.234-5.891-1.073-7.332-1.482L174.23,16.837z"/>
<path fill="#F39800" d="M191.039,20.035c-0.039,1.17,0,3.141,0.156,4.836c0.352,3.51,1.463,5.754,2.945,5.754
	c1.033,0,2.008-1.814,2.594-3.998l0.819,0.838c-1.112,3.218-2.263,4.31-3.433,4.31c-1.657,0-3.354-1.794-3.9-6.688
	c-0.175-1.599-0.195-3.998-0.195-5.09c0-0.41-0.019-1.209-0.097-1.58l1.228,0.039C191.117,18.787,191.059,19.567,191.039,20.035
	 M204.787,28.264l-1.014,0.41c-0.351-3.686-1.617-7.098-3.296-9.282l0.976-0.351C203.111,21.303,204.437,24.832,204.787,28.264"/>
<path fill="#F39800" d="M214.752,19.782c-0.604-0.937-1.795-2.38-2.926-3.374c-0.838,1.463-2.164,3.412-4.056,4.934
	c-0.136-0.176-0.429-0.449-0.643-0.566c1.969-1.521,3.334-3.606,4.075-5.187h0.994c1.209,1.054,2.594,2.535,3.217,3.53
	L214.752,19.782z M212.9,27.718c1.092,1.347,2.184,3.14,2.594,4.329l-0.801,0.41c-0.175-0.507-0.468-1.131-0.839-1.794
	c-2.125,0.604-4.329,1.248-5.985,1.696l-0.352-0.916c0.43-0.098,0.916-0.195,1.443-0.332V20.62h2.535v-1.97h0.838v1.97h2.301v6.084
	h-4.816v4.192c1.131-0.291,2.359-0.623,3.607-0.955c-0.389-0.644-0.838-1.287-1.287-1.832L212.9,27.718z M209.818,23.271h3.939V21.4
	h-3.939V23.271z M213.758,24.014h-3.939v1.91h3.939V24.014z M225.088,17.734v3.08h-0.896v-2.242h-7.664v2.242h-0.858v-3.08h4.114
	v-2.166h0.916v2.166H225.088z M217.775,27.27h6.825v5.812h-0.897v-0.897h-5.928v1.053h-0.897V20.775h6.903v4.604h-6.006V27.27z
	 M217.775,24.54h5.129v-2.925h-5.129V24.54z M217.775,31.326h5.928v-3.219h-5.928V31.326z"/>
<path fill="#F39800" d="M28.342,17.626v12.162c0.082-0.011,0.164-0.025,0.25-0.025s0.166,0.015,0.25,0.025V17.626
	c-0.084,0.01-0.164,0.024-0.25,0.024S28.424,17.636,28.342,17.626"/>
<path fill="#F39800" d="M26.639,32.727l-10.521,6.074c0.101,0.135,0.189,0.275,0.257,0.431l10.521-6.074
	C26.795,33.023,26.706,32.883,26.639,32.727"/>
<path fill="#F39800" d="M40.811,24.545l-10.521,6.074c0.1,0.135,0.189,0.275,0.255,0.431l10.522-6.074
	C40.966,24.842,40.877,24.701,40.811,24.545"/>
<path fill="#F39800" d="M16.373,22.868l10.521-6.074c-0.1-0.134-0.189-0.274-0.256-0.43l-10.521,6.073
	C16.217,22.572,16.307,22.713,16.373,22.868"/>
<path fill="#F39800" d="M41.065,22.438l-10.521-6.074c-0.067,0.155-0.156,0.296-0.257,0.429l10.521,6.075
	C40.877,22.713,40.965,22.571,41.065,22.438"/>
<path fill="#F39800" d="M43.013,37.969V25.807c-0.083,0.011-0.164,0.025-0.25,0.025s-0.167-0.015-0.25-0.025v12.162
	c0.083-0.01,0.164-0.024,0.25-0.024S42.93,37.959,43.013,37.969"/>
<path fill="#F39800" d="M30.289,33.157L40.81,39.23c0.067-0.154,0.156-0.295,0.256-0.428l-10.521-6.076
	C30.478,32.882,30.389,33.023,30.289,33.157"/>
<path fill="#F39800" d="M26.895,30.62l-10.521-6.074c-0.066,0.155-0.156,0.296-0.256,0.429l10.521,6.075
	C26.705,30.895,26.795,30.753,26.895,30.62"/>
<path fill="#F39800" d="M14.67,37.969V25.807c-0.082,0.011-0.164,0.025-0.25,0.025s-0.166-0.015-0.25-0.025v12.162
	c0.084-0.01,0.164-0.024,0.25-0.024S14.588,37.959,14.67,37.969"/>
<path fill="#F39800" d="M28.842,46.151V33.989c-0.084,0.01-0.164,0.024-0.25,0.024s-0.168-0.015-0.25-0.024v12.162
	c0.082-0.011,0.164-0.025,0.25-0.025S28.758,46.141,28.842,46.151"/>
<path fill="#F39800" d="M26.895,14.257L16.373,8.183c-0.066,0.155-0.156,0.296-0.256,0.429l10.521,6.076
	C26.705,14.531,26.795,14.39,26.895,14.257"/>
<path fill="#F39800" d="M12.723,22.438L2.202,16.364c-0.067,0.155-0.155,0.296-0.256,0.429l10.521,6.075
	C12.534,22.713,12.623,22.571,12.723,22.438"/>
<path fill="#F39800" d="M16.117,41.338l10.521,6.074c0.066-0.154,0.156-0.295,0.256-0.429l-10.521-6.075
	C16.307,41.063,16.218,41.205,16.117,41.338"/>
<path fill="#F39800" d="M12.468,40.908L1.947,46.982c0.1,0.135,0.188,0.275,0.256,0.43l10.521-6.073
	C12.624,41.205,12.535,41.063,12.468,40.908"/>
<path fill="#F39800" d="M44.459,41.338l10.521,6.074c0.067-0.154,0.156-0.295,0.256-0.429l-10.521-6.075
	C44.648,41.063,44.56,41.205,44.459,41.338"/>
<path fill="#F39800" d="M30.289,49.52l10.521,6.074c0.066-0.154,0.155-0.295,0.256-0.429L30.545,49.09
	C30.479,49.245,30.389,49.387,30.289,49.52"/>
<path fill="#F39800" d="M26.639,49.09l-10.521,6.074c0.101,0.135,0.189,0.275,0.256,0.43l10.521-6.073
	C26.795,49.387,26.705,49.246,26.639,49.09"/>
<path fill="#F39800" d="M44.716,22.868l10.521-6.075c-0.1-0.133-0.188-0.273-0.255-0.429l-10.522,6.073
	C44.56,22.572,44.648,22.713,44.716,22.868"/>
<path fill="#F39800" d="M40.81,40.908l-10.521,6.074c0.099,0.135,0.189,0.275,0.255,0.431l10.522-6.074
	C40.966,41.205,40.877,41.064,40.81,40.908"/>
<path fill="#F39800" d="M42.513,9.443v12.162c0.083-0.01,0.164-0.024,0.25-0.024s0.167,0.015,0.25,0.024V9.443
	c-0.083,0.011-0.164,0.025-0.25,0.025S42.596,9.454,42.513,9.443"/>
<path fill="#F39800" d="M30.545,14.687l10.521-6.075c-0.1-0.133-0.188-0.273-0.256-0.429l-10.521,6.073
	C30.389,14.391,30.478,14.531,30.545,14.687"/>
<path fill="#F39800" d="M56.934,34.014c-0.086,0-0.167-0.015-0.25-0.024V46.15c0.083-0.01,0.164-0.024,0.25-0.024
	s0.167,0.015,0.25,0.024V33.989C57.101,33.999,57.02,34.014,56.934,34.014"/>
<path fill="#F39800" d="M2.203,14.686l10.521-6.074c-0.101-0.133-0.189-0.274-0.257-0.43L1.946,14.256
	C2.047,14.39,2.135,14.531,2.203,14.686"/>
<path fill="#F39800" d="M16.373,6.504L26.895,0.43c-0.1-0.133-0.189-0.274-0.256-0.43L16.117,6.074
	C16.217,6.209,16.307,6.35,16.373,6.504"/>
<path fill="#F39800" d="M57.184,29.787V17.625c-0.083,0.01-0.164,0.025-0.25,0.025s-0.167-0.016-0.25-0.025v12.162
	c0.083-0.01,0.164-0.025,0.25-0.025S57.101,29.777,57.184,29.787"/>
<path fill="#F39800" d="M44.459,8.611l10.521,6.076c0.066-0.156,0.156-0.298,0.256-0.431L44.715,8.182
	C44.648,8.337,44.56,8.479,44.459,8.611"/>
<path fill="#F39800" d="M0.25,29.762c0.086,0,0.166,0.016,0.25,0.025V17.625c-0.084,0.01-0.164,0.025-0.25,0.025
	S0.082,17.635,0,17.625v12.162C0.082,29.777,0.164,29.762,0.25,29.762"/>
<path fill="#F39800" d="M30.289,0.43L40.81,6.505c0.067-0.155,0.156-0.297,0.256-0.43L30.545,0
	C30.478,0.155,30.389,0.297,30.289,0.43"/>
<path fill="#F39800" d="M40.811,57.272l-10.521,6.074c0.1,0.134,0.189,0.274,0.255,0.431l10.522-6.074
	C40.967,57.568,40.877,57.428,40.811,57.272"/>
<path fill="#F39800" d="M54.981,49.091L44.46,55.165c0.101,0.134,0.189,0.274,0.255,0.431l10.522-6.074
	C55.137,49.387,55.049,49.246,54.981,49.091"/>
<path fill="#F39800" d="M12.724,55.165L2.203,49.09c-0.067,0.155-0.156,0.297-0.257,0.43l10.521,6.076
	C12.535,55.439,12.623,55.298,12.724,55.165"/>
<path fill="#F39800" d="M26.895,63.348l-10.521-6.076c-0.066,0.156-0.156,0.298-0.256,0.431l10.521,6.075
	C26.705,63.622,26.795,63.48,26.895,63.348"/>
<path fill="#F39800" d="M0,33.988V46.15c0.082-0.01,0.164-0.024,0.25-0.024s0.166,0.015,0.25,0.024V33.988
	c-0.084,0.011-0.164,0.025-0.25,0.025S0.082,33.999,0,33.988"/>
<path fill="#F39800" d="M12.724,38.802L2.203,32.728c-0.068,0.155-0.156,0.296-0.257,0.429l10.521,6.076
	C12.534,39.076,12.623,38.935,12.724,38.802"/>
<path fill="#F39800" d="M44.459,24.976l10.521,6.073c0.066-0.154,0.156-0.295,0.256-0.429l-10.521-6.075
	C44.648,24.7,44.56,24.842,44.459,24.976"/>
<path fill="#F39800" d="M28.342,1.262v12.162c0.082-0.01,0.164-0.024,0.25-0.024s0.166,0.015,0.25,0.024V1.262
	c-0.084,0.011-0.164,0.025-0.25,0.025S28.424,1.272,28.342,1.262"/>
<path fill="#F39800" d="M14.17,9.443v12.162c0.084-0.01,0.164-0.024,0.25-0.024s0.168,0.015,0.25,0.024V9.443
	c-0.082,0.01-0.164,0.025-0.25,0.025S14.254,9.453,14.17,9.443"/>
<path fill="#F39800" d="M12.724,24.975c-0.1-0.133-0.188-0.274-0.256-0.43L1.947,30.62c0.1,0.134,0.188,0.274,0.256,0.429
	L12.724,24.975z"/>
<path fill="#F39800" d="M43.013,54.332V42.171c-0.083,0.01-0.164,0.024-0.25,0.024s-0.167-0.015-0.25-0.024v12.161
	c0.083-0.01,0.164-0.024,0.25-0.024S42.93,54.322,43.013,54.332"/>
<path fill="#F39800" d="M44.46,38.802c0.1,0.133,0.188,0.274,0.256,0.43l10.521-6.075c-0.1-0.133-0.188-0.273-0.256-0.429
	L44.46,38.802z"/>
<path fill="#F39800" d="M28.842,62.515V50.353c-0.084,0.011-0.164,0.024-0.25,0.024s-0.168-0.014-0.25-0.024v12.162
	c0.082-0.01,0.164-0.024,0.25-0.024S28.758,62.505,28.842,62.515"/>
<path fill="#F39800" d="M14.67,54.332V42.171c-0.082,0.01-0.164,0.024-0.25,0.024s-0.166-0.015-0.25-0.024v12.161
	c0.084-0.01,0.164-0.024,0.25-0.024S14.588,54.322,14.67,54.332"/>
</svg>
