<?xml version="1.0" encoding="utf-8"?>
<!-- Generator: Adobe Illustrator 16.0.4, SVG Export Plug-In . SVG Version: 6.00 Build 0)  -->
<!DOCTYPE svg PUBLIC "-//W3C//DTD SVG 1.1//EN" "http://www.w3.org/Graphics/SVG/1.1/DTD/svg11.dtd">
<svg version="1.1" xmlns="http://www.w3.org/2000/svg" xmlns:xlink="http://www.w3.org/1999/xlink" x="0px" y="0px" width="61.18px"
	 height="61.179px" viewBox="0 0 61.18 61.179" enable-background="new 0 0 61.18 61.179" xml:space="preserve">
<g id="backcolor">
</g>
<g id="graphic">
	<g>
		<circle fill="#FFFFFF" cx="30.59" cy="30.589" r="28.089"/>
		<path fill="#A0A0A0" d="M30.59,61.179c-8.171,0-15.853-3.183-21.63-8.96C3.182,46.441,0,38.761,0,30.59S3.182,14.737,8.96,8.96
			C14.737,3.182,22.419,0,30.59,0s15.853,3.182,21.63,8.96c5.778,5.777,8.96,13.459,8.96,21.63s-3.182,15.852-8.96,21.629
			C46.442,57.996,38.761,61.179,30.59,61.179z M30.59,5c-6.835,0-13.261,2.662-18.095,7.495C7.662,17.328,5,23.755,5,30.59
			s2.662,13.261,7.495,18.094c4.833,4.833,11.26,7.495,18.095,7.495s13.261-2.662,18.095-7.495
			c4.833-4.833,7.495-11.259,7.495-18.094s-2.662-13.262-7.495-18.095C43.851,7.662,37.425,5,30.59,5z"/>
	</g>
</g>
<g id="header">
</g>
<g id="footer">
</g>
<g id="hover">
</g>
<g id="補足">
</g>
<g id="レイヤー_7">
</g>
</svg>
